<svg width="40" height="41" viewBox="0 0 40 41" fill="none" xmlns="http://www.w3.org/2000/svg">
<path d="M19.9629 0.5C27.8267 0.5 32.444 1.29517 35.6885 4.44727C38.9989 7.82416 39.7637 12.4079 39.7637 20.2715V20.4941C39.7637 28.3601 38.9989 32.9747 35.6885 36.3184C32.4416 39.4705 27.8578 40.2656 19.9609 40.2656H19.8027C11.9083 40.2656 7.29119 39.4705 4.0752 36.3184C0.764551 32.9416 5.3538e-06 28.3578 0 20.4941V20.2715C8.85328e-06 12.4079 0.764559 7.79103 4.0752 4.44727C7.32193 1.29523 11.908 0.500004 19.8047 0.5H19.9629ZM19.5645 5.2334C19.4132 5.23349 19.2875 5.3566 19.2803 5.50781C19.0744 10.9521 18.3841 14.2652 16.0654 16.584C13.749 18.9004 10.4428 19.591 5.00781 19.7969C4.8566 19.8018 4.73345 19.9274 4.7334 20.0811V20.7148C4.7334 20.8661 4.85657 20.9917 5.00781 20.999C10.4428 21.2049 13.7513 21.8988 16.0654 24.2129C18.3792 26.527 19.0701 29.8279 19.2783 35.2529C19.2832 35.4043 19.4088 35.5273 19.5625 35.5273H20.1992C20.3503 35.5271 20.4752 35.4041 20.4824 35.2529C20.6906 29.8277 21.3822 26.527 23.6963 24.2129C26.0127 21.8964 29.3179 21.2049 34.7529 20.999C34.9043 20.9942 35.0273 20.8686 35.0273 20.7148V20.0811H35.0293C35.0292 19.9297 34.9063 19.804 34.7549 19.7969C29.32 19.591 26.0123 18.898 23.6982 16.584C21.3794 14.2652 20.6883 10.9546 20.4824 5.50781C20.4775 5.35671 20.3527 5.23366 20.1992 5.2334H19.5645Z" fill="black"/>
</svg>
