<svg xmlns="http://www.w3.org/2000/svg" width="130" height="42" fill="none"><path fill="#000" d="M20.116 0c6.352 0 12.199 2.968 16.041 8.144L34.32 9.566c-3.401-4.582-8.58-7.21-14.203-7.21-9.82 0-17.81 8.158-17.81 18.184 0 10.026 7.99 18.182 17.81 18.183 1.9 0 3.758-.313 5.516-.899l-5.63-13.463c3.438.276 3.845-3.038 3.849-3.066l11.418 8.802-.001-.003c.137-.228.271-.456.4-.69l2.013 1.15c-3.557 6.49-10.288 10.522-17.565 10.522C9.024 41.076 0 31.864 0 20.54S9.024 0 20.116 0Zm36.421 22.486c1.827 0 3.322.464 4.483 1.389 1.162.927 1.877 2.229 2.147 3.906h-3.251c-.185-.81-.561-1.435-1.127-1.877-.567-.44-1.325-.66-2.273-.66-.878 0-1.63.204-2.253.617v.001c-.623.41-1.102 1.001-1.434 1.768-.333.767-.499 1.676-.499 2.733 0 1.057.166 1.964.5 2.724.331.76.81 1.344 1.433 1.757.622.411 1.374.618 2.253.618.948 0 1.706-.205 2.273-.618.567-.413.935-.989 1.105-1.726h3.273c-.27 1.577-.985 2.819-2.147 3.722-1.161.903-2.656 1.355-4.483 1.355-1.5 0-2.79-.327-3.868-.986-1.076-.659-1.909-1.577-2.496-2.757-.587-1.178-.882-2.543-.882-4.09 0-1.547.294-2.914.882-4.101.587-1.186 1.42-2.112 2.496-2.777s2.366-.998 3.868-.998Zm13.756.261c1.19 0 2.178.21 2.965.63.785.42 1.373.98 1.763 1.68.388.704.583 1.488.584 2.355 0 .81-.188 1.572-.564 2.28-.376.708-.956 1.276-1.742 1.703-.183.1-.38.187-.59.263l3.024 6.279h-3.379l-2.711-5.903h-2.029v5.903h-2.973v-15.19h5.652Zm20.596 15.19h-3.167l-1.154-3.407h-5.641l-1.154 3.407h-3.125l5.42-15.19h3.4l5.42 15.19Zm10.714-12.738h-6.78v3.928h5.419v2.387h-5.419v6.423h-2.975v-15.19h9.755V25.2Zm12.37 0h-4.334v12.738h-2.954V25.199h-4.336v-2.452h11.624V25.2Zm-88.01 12.514a17.92 17.92 0 0 0 9.167-7.39l-12.2-6.259 3.034 13.649Zm55.763-5.548h4.04l-2.02-5.968-2.02 5.968ZM67.613 29.82h2.488c.836 0 1.455-.21 1.859-.63.403-.419.605-.99.605-1.67 0-.679-.2-1.22-.595-1.626-.396-.405-1.02-.608-1.87-.608h-2.487v4.534ZM18.564 18.45a2.494 2.494 0 0 1 3.55.447c.86 1.124.664 2.747-.437 3.625a2.494 2.494 0 0 1-3.55-.448c-.86-1.124-.664-2.747.438-3.625ZM56.537 2.521c1.827 0 3.322.464 4.483 1.39 1.162.926 1.877 2.227 2.147 3.904h-3.251c-.185-.81-.561-1.435-1.127-1.877-.567-.44-1.325-.66-2.273-.66-.878 0-1.63.205-2.253.617-.623.412-1.102 1.001-1.434 1.768-.333.767-.499 1.677-.499 2.734 0 1.056.166 1.964.5 2.723.331.76.81 1.344 1.433 1.757.622.412 1.374.618 2.253.618.948 0 1.706-.205 2.273-.618.567-.413.935-.988 1.105-1.726h3.273c-.27 1.577-.985 2.819-2.147 3.722-1.161.905-2.656 1.356-4.483 1.357-1.5 0-2.79-.328-3.868-.987-1.076-.659-1.909-1.577-2.496-2.757-.587-1.178-.882-2.542-.882-4.09 0-1.547.294-2.914.882-4.101.587-1.186 1.42-2.11 2.496-2.775s2.366-.999 3.868-.999Zm-39.79 12.575a.157.157 0 0 1 .224.028l1.576 2.063-1.179.938-1.575-2.062a.165.165 0 0 1 .027-.228l.927-.74Zm61.046 2.875h-3.167l-1.153-3.408h-5.641l-1.152 3.408h-3.125l5.419-15.189h3.4l5.419 15.189Zm6.638-15.189c1.203 0 2.198.206 2.984.618.786.413 1.374.975 1.764 1.692.39.716.585 1.524.585 2.42 0 .84-.184 1.613-.552 2.322-.368.709-.95 1.283-1.743 1.725-.793.44-1.806.662-3.038.662h-2.7v5.75h-2.975V2.783h5.675Zm9.46 15.189h-2.975V2.783h2.975v15.189Zm25.069 0h-3.167l-1.153-3.408h-5.642l-1.153 3.408h-3.125l5.419-15.189h3.402l5.419 15.189ZM107.048 5.234h-4.334v12.737H99.76V5.234h-4.336v-2.45h11.624v2.45Zm15.847 10.371h6.503v2.366h-9.478V2.783h2.975v12.822ZM68.632 12.2h4.04l-2.02-5.968-2.02 5.968Zm41.167 0h4.039l-2.02-5.969-2.019 5.968ZM81.73 9.77h2.507c.879 0 1.517-.202 1.913-.608.398-.405.596-.94.596-1.65 0-.708-.2-1.261-.596-1.66-.397-.396-1.034-.595-1.913-.595h-2.506V9.77Z"/></svg>