<svg width="40" height="41" viewBox="0 0 40 41" fill="none" xmlns="http://www.w3.org/2000/svg">
<path d="M20 0.5C31.0457 0.5 40 9.4543 40 20.5C40 31.5457 31.0457 40.5 20 40.5C8.9543 40.5 0 31.5457 0 20.5C0 9.4543 8.9543 0.5 20 0.5ZM20 1.5C9.50659 1.5 1 10.0066 1 20.5C1 30.9934 9.50659 39.5 20 39.5C30.4934 39.5 39 30.9934 39 20.5C39 10.0066 30.4934 1.5 20 1.5ZM27.7852 13.5986C28.5126 13.2717 29.2154 13.7728 28.9375 14.8799L26.2227 27.5938C26.0329 28.4981 25.4853 28.7122 24.7227 28.2949L20.5869 25.2598L18.5986 27.1807C18.3666 27.4032 18.1841 27.5918 17.7705 27.5918L18.0527 23.3994V23.3984L25.7266 16.5166C26.0625 16.2201 25.6538 16.0751 25.2061 16.3457L15.7344 22.2832L11.6406 21.0146C10.7586 20.7457 10.7527 20.1423 11.8408 19.708L27.7852 13.5986Z" fill="black"/>
</svg>
