<svg xmlns="http://www.w3.org/2000/svg" width="19" height="17" fill="none"><path fill="#444" d="M17.206.564c-.236.011-.459.08-.657.158h-.002c-.2.08-1.154.484-2.601 1.095L8.755 4.02 1.369 7.155l.044-.017s-.253.083-.516.266c-.135.088-.283.21-.412.401-.13.191-.234.484-.195.786.063.512.392.819.629.988.238.171.466.251.466.251h.006l3.433 1.165c.154.498 1.047 3.454 1.26 4.134.127.407.25.661.405.855.074.1.162.183.266.25a.776.776 0 0 0 .173.074l-.036-.008c.011.002.02.01.028.013.027.009.047.012.082.017.544.166.98-.174.98-.174l.025-.02 2.027-1.86 3.398 2.627.077.033c.708.313 1.425.138 1.804-.169.382-.31.53-.705.53-.705l.025-.064 2.626-13.55c.074-.334.093-.647.01-.952a1.28 1.28 0 0 0-.548-.741 1.308 1.308 0 0 0-.75-.191Zm-.072 1.453c-.002.044.006.038-.013.124v.008L14.52 15.558c-.011.02-.03.06-.083.102-.055.045-.099.072-.327-.019l-4.155-3.21-2.51 2.305.527-3.392 6.79-6.375c.28-.263.186-.318.186-.318.02-.321-.423-.094-.423-.094L5.964 9.9l-.003-.014-4.103-1.392v-.003l-.011-.002a.189.189 0 0 0 .022-.009l.022-.01.022-.01L9.3 5.327c1.865-.791 3.744-1.588 5.188-2.203 1.445-.611 2.514-1.06 2.574-1.084.058-.022.03-.022.071-.022Z"/></svg>