<svg xmlns="http://www.w3.org/2000/svg" width="17" height="17" fill="none"><path fill="#444" d="M14.45 2.465A8.342 8.342 0 0 0 8.5 0a8.436 8.436 0 0 0-7.31 12.633L0 17l4.463-1.169a8.426 8.426 0 0 0 4.026 1.063 8.5 8.5 0 0 0 8.5-8.426 8.501 8.501 0 0 0-2.539-6.003ZM8.5 15.438a6.991 6.991 0 0 1-3.57-.977l-.255-.16-2.646.702.702-2.582-.17-.266a7.013 7.013 0 0 1 10.89-8.68 7.065 7.065 0 0 1 2.125 4.95A7.076 7.076 0 0 1 8.5 15.439Zm3.836-5.249c-.213-.106-1.244-.616-1.435-.68-.191-.063-.34-.106-.478.107a9.56 9.56 0 0 1-.67.818c-.116.149-.244.16-.456 0a5.663 5.663 0 0 1-2.858-2.497c-.223-.372.212-.35.616-1.148a.403.403 0 0 0 0-.371c0-.107-.478-1.148-.648-1.562-.17-.415-.34-.351-.478-.362h-.415a.755.755 0 0 0-.563.266 2.327 2.327 0 0 0-.701 1.796c.067.795.366 1.552.86 2.178a9.445 9.445 0 0 0 3.603 3.187c.763.446 1.65.632 2.528.532a2.123 2.123 0 0 0 1.413-1c.142-.312.186-.66.128-.998-.096-.106-.234-.16-.446-.266Z"/></svg>