<svg xmlns="http://www.w3.org/2000/svg" viewBox="0 0 595.28 149.32">
  <path fill="#ef3124" d="M80.48 69.65c-.28 8.64-1.4 10.38-6.26 10.38V90.9h1.81c12.12 0 15.04-6.26 15.48-20.18l.49-15.4h11.36V90.9h11.86V44.54H81.29l-.82 25.12Z"/>
  <path fill="#ef3124" d="M144.71 58.62h-8.56V44.54h-11.86V90.9h20.59c12.93 0 17.54-8.4 17.54-16.31 0-10.21-6.42-15.98-17.71-15.98Zm-.9 22.07h-7.66V68.9h7.66c4.12 0 6.59 1.81 6.59 5.68 0 4.2-2.39 6.09-6.59 6.09Z"/>
  <path fill="#ef3124" d="M201.04 43.47V26.25h-11.86v17.21c-13.59 1.15-22.73 10.79-22.73 24.21s9.14 23.14 22.73 24.29v17.46h11.86V91.96c13.59-1.07 22.73-10.79 22.73-24.29s-9.14-23.14-22.73-24.21Zm-11.86 37.31c-6.59-.91-10.71-5.85-10.71-13.09s4.12-12.19 10.71-13.09v26.19Zm11.86 0V54.58c6.59.91 10.71 5.85 10.71 13.09s-4.12 12.19-10.71 13.09Z"/>
  <path fill="#ef3124" d="M268.24 76.66V61.1c0-11.37-7.25-18.53-19.43-18.53s-19.27 7.58-19.85 15.48h12.02c.41-1.73 2.22-4.69 7.82-4.69 4.61 0 7.58 2.14 7.58 7.74H244.6c-10.54 0-16.8 5.52-16.8 14.74s6.85 16.22 16.72 16.22c7.24 0 11.26-3.42 13.01-6.01 1.56 3.13 5.02 4.86 9.55 4.86h4.12V80.2c-2.14 0-2.96-.99-2.96-3.54Zm-11.86-3.05c0 5.35-3.79 8.4-8.73 8.4-4.28 0-7.66-1.57-7.66-6.18s3.7-5.27 6.92-5.27h9.47v3.05Z"/>
  <rect fill="#ef3124" x="10.07" y="110.67" width="63.41" height="13.18"/>
  <path fill="#ef3124" d="M28.93 77.64h25.04l4.2 13.26h13.84l-18.7-55.77c-1.81-5.39-3.89-9.65-11.03-9.65s-9.36 4.24-11.26 9.65L11.38 90.9h13.01l4.53-13.26ZM41.61 40h.33l8.4 26.44H32.72L41.61 40Z"/>
  <path fill="#ef3124" d="M427.68 66.66c3.54-1.12 7.18-4.48 7.18-9.98 0-8.76-6.9-14.17-19.39-14.17-13.7 0-20.89 8.02-22.19 15.66h11.66c1.58-3.45 4.66-6.24 10.53-6.24 4.76 0 7.65 1.86 7.65 5.5s-2.61 5.31-6.43 5.31h-7.08v8.67h7.46c4.57 0 6.9 1.77 6.9 5.13 0 4.19-3.26 6.15-9.32 6.15-6.43 0-9.6-3.63-10.91-7.08h-11.38c.84 8.02 7.83 16.5 22.28 16.5 13.24 0 21.44-5.87 21.44-15.29 0-5.78-4.01-9.04-8.39-10.16Z"/>
  <polygon fill="#ef3124" points="470.26 61.83 453.88 61.83 453.88 44.54 442.02 44.54 442.02 90.9 453.88 90.9 453.88 72.62 470.26 72.62 470.26 90.9 482.12 90.9 482.12 44.54 470.26 44.54 470.26 61.83"/>
  <path fill="#ef3124" d="M319.05 51.12h-13.26V38.03h30.72V26.25h-43.15V90.9h25.69c14.25 0 22.4-7.08 22.4-20.09 0-12.27-8.15-19.68-22.4-19.68Zm-.58 28.08h-12.68v-16.8h12.68c6.59 0 10.29 3.05 10.29 8.4s-3.71 8.4-10.29 8.4Z"/>
  <polygon fill="#ef3124" points="359.53 72.85 359.53 44.54 347.67 44.54 347.67 90.9 359.53 90.9 359.53 90.88 375.91 62.57 375.91 90.9 387.77 90.9 387.77 44.54 375.91 44.54 359.53 72.85"/>
  <path fill="#ef3124" d="M511.26 42.51c-13.71 0-23.12 10.16-23.12 24.8s9.42 24.8 23.12 24.8c10.61 0 18.61-6.13 21.75-15.53h-12.86c-1.84 3.14-4.83 5.09-8.89 5.09-6.71 0-10.48-5.41-11.02-12.55h34.16c.03-.6.07-1.19.07-1.81 0-14.64-9.42-24.8-23.22-24.8Zm-10.29 18.83c1.47-5.01 4.94-8.39 10.29-8.39s8.82 3.38 10.29 8.39h-20.58Z"/>
  <path fill="#ef3124" d="M563.44 81.67c-7.27 0-11.1-6.34-11.1-14.36s3.82-14.36 11.1-14.36c4.06 0 7.05 1.95 8.89 5.09h12.88c-3.12-9.47-11.13-15.53-21.77-15.53-13.71 0-23.12 10.16-23.12 24.8s9.42 24.8 23.12 24.8c10.61 0 18.61-6.13 21.75-15.53h-12.86c-1.84 3.14-4.83 5.09-8.89 5.09Z"/>
</svg>