<svg xmlns="http://www.w3.org/2000/svg" fill="none" viewBox="0 0 239 55"><path fill="#2355D7" d="M27.212 0c14.996 0 27.21 12.33 27.21 27.5S42.209 55 27.213 55 0 42.67 0 27.5 12.216 0 27.212 0Zm0 .933C12.722.933.927 12.839.927 27.5s11.795 26.567 26.285 26.567S53.496 42.161 53.496 27.5C53.496 12.882 41.702.933 27.212.933Zm142.544 28.516c4.085 0 5.898 2.754 5.898 5.424a5.207 5.207 0 0 1-.759 2.966c-.547.847-1.348 1.568-2.317 1.95V40c1.054.297 1.938.975 2.569 1.864.632.89.928 1.95.844 3.051 0 3.898-2.865 6.06-6.446 6.06a9.094 9.094 0 0 1-4.718-1.06l.084-4.28a7.238 7.238 0 0 0 3.286.637c.253.042.548 0 .801-.085.251-.085.505-.255.716-.424.209-.212.379-.424.505-.678.127-.254.211-.508.211-.805 0-1.186-.758-1.95-2.443-1.95h-2.023v-4.45h2.107c.59 0 1.137-.168 1.56-.55.42-.38.674-.932.716-1.482 0-.297-.043-.55-.17-.805-.126-.212-.295-.467-.504-.636a2.355 2.355 0 0 0-.718-.382 1.726 1.726 0 0 0-.8-.085 6.165 6.165 0 0 0-2.737.51V30a16.662 16.662 0 0 1 4.338-.55Zm-24.853-.043v21.272h-4.633V34.534h-1.938v8.432c0 2.882 0 8.009-5.308 8.009a5.356 5.356 0 0 1-2.021-.382v-5c.379.085.758.127 1.138.17 1.052 0 1.558-.891 1.558-4.661V29.406h11.204Zm-22.873 0c5.729 0 7.667 5.382 7.667 10.764 0 5.381-1.938 10.763-7.667 10.763-5.728 0-7.666-5.382-7.666-10.763 0-5.382 1.938-10.764 7.666-10.764Zm31.045.17V41.06l4.465-11.484h4.508v21.272h-4.508V39.364l-4.507 11.484h-4.507V29.576h4.549Zm29.866 11.484 4.464-11.484h4.55v21.272h-4.508V39.364l-4.506 11.484h-4.507V29.576h4.507V41.06Zm17.396-11.526v7.67h3.455v-7.67h4.886v21.314h-4.886V42.33h-3.455v8.475h-4.845v-21.27h4.845Zm21.946 0v5.339h-5.138v15.932h-5.054v-21.27h10.192ZM84.163 50.51h-4.93l-.59-3.602h-3.369l-.59 3.602h-4.928l4.128-20.975h6.15l4.128 20.975Zm7.455-21.018c.884 0 1.684.127 2.4.424.717.297 1.306.679 1.812 1.187a4.95 4.95 0 0 1 1.138 1.779c.295.678.42 1.441.42 2.204 0 .762-.126 1.44-.336 1.991-.253.551-.464.975-.759 1.314-.295.297-.547.55-.8.72-.253.127-.38.254-.464.254.548.17.97.467 1.349.806.337.338.632.762.885 1.228.21.466.378.975.505 1.526.126.55.168 1.101.168 1.652 0 .848-.127 1.61-.421 2.331a5.496 5.496 0 0 1-1.222 1.864c-.506.508-1.18.932-1.938 1.229a7.18 7.18 0 0 1-2.61.466h-5.73V29.49h5.603Zm21.019.043v5.212h-4.043v15.72h-4.887v-15.72h-4.044v-5.212h12.974ZM28.644 7.161c3.622.043 7.877 1.313 10.53 3.94.422.509.674 1.06.8 1.526 2.065 1.06 3.287 2.077 3.96 3.22.295.594.38 1.272.254 1.992.884.508 1.263.975 1.684 1.525.295.466.548 1.017.59 1.526.084.678.168 1.398-.506 2.246.716.339 1.263 1.355 1.348 1.779.337 1.568-.674 3.136-2.022 4.322-1.516 1.356-4.886 2.966-7.624 3.687-5.476 1.398-10.278 1.99-14.111 2.669 1.727.423 4.044.974 7.877.974 8.12 0 15.315-3.887 15.333-3.897-.005.014-.171.515-.337.974-5.181 3.136-13.395 4.491-16.892 4.322-3.58-.17-6.57-.72-9.52-1.61-.884.255-1.769.509-2.653.89 4.549 2.161 7.92 2.626 11.752 2.923 3.876.297 10.32-.678 15.796-2.669-.252.254-.379.635-.631.89-2.78 1.483-8.678 2.966-11.627 3.093-2.948.128-6.529 0-9.646-.593-2.696-.509-4.886-1.399-7.161-2.415-.421.296-.632.72-.716 1.143 8.888 4.746 17.313 4.874 26.833 1.865l-.885.848c-10.53 4.322-18.745 2.627-25.105-.467-.21-.084-.463-.212-.632-.297.59 1.06 5.433 4.619 10.867 5.085 3.75.297 8.3-.339 11.037-1.44l-1.601.848c-1.306.635-4.802 2.118-9.646 1.822-6.487-.424-10.11-3.348-11.753-4.873-.758-.72-1.137-1.526-1.347-2.543-1.475-.763-2.401-1.568-3.16-2.796-.463-.72-.379-1.483-.252-2.161.042-.212.084-.424.168-.594-.716-.508-1.432-1.06-1.727-1.61-.632-1.187-.252-2.161.21-2.966-.378-.424-.758-.89-.884-1.314a4.21 4.21 0 0 1-.168-1.61c.127-.974.632-1.864 1.306-2.669 1.432-1.652 3.622-2.924 7.455-4.195 3.749-1.23 5.224-1.44 8.046-2.076 3.285-.763 7.203-1.017 10.531-2.162-9.14-1.737-18.703-.253-26.454 5.17l.506-1.525c6.95-4.618 14.658-7.289 27.717-5.043.716-.424 1.095-.805 1.305-1.694-3.243-1.187-6.781-1.61-11.373-1.526-4.086.127-11.5 1.653-15.417 4.026l1.222-1.526c2.78-1.61 9.941-3.813 15.333-3.898 3.79-.085 5.77.127 10.277 1.355-.379-.804-1.347-1.186-2.695-1.779-4.38-1.991-12.552-2.161-19.25.805.842-.551 1.685-1.102 2.737-1.568 2.19-1.017 5.814-1.991 10.32-1.949ZM90.775 41.78v4.238h.843c.421 0 .758-.213 1.053-.551.294-.382.42-.89.42-1.568 0-.677-.125-1.229-.42-1.568-.295-.38-.632-.55-1.053-.55h-.843Zm31.255-7.288c-1.684 0-2.569 1.992-2.569 5.679 0 3.686.885 5.677 2.569 5.678 1.727 0 2.57-1.992 2.57-5.678 0-3.687-.885-5.679-2.57-5.679Zm-45.956 7.755h1.812l-.927-6.398-.885 6.398Zm-64.28-5.806c0 .594.337 1.145 1.18 1.823.084-.34.253-.593.505-.89a10.77 10.77 0 0 1-1.684-.933Zm78.981-2.457v3.77h.716c.38 0 .674-.168.885-.465.21-.339.337-.805.337-1.44 0-.636-.126-1.102-.337-1.399a1.04 1.04 0 0 0-.885-.466h-.716Zm-77 0a6.695 6.695 0 0 0-1.138.89l2.274 1.272a17.249 17.249 0 0 1 1.77-.891c-.927-.381-1.896-.847-2.907-1.27Zm30.118-8.73c-1.517 1.187-3.876 2.12-7.162 3.01-6.823 1.864-11.795 2.118-17.439 3.516a20.403 20.403 0 0 0-3.327 1.103c1.053.55 2.19 1.016 3.37 1.482 2.274-.678 3.412-.974 6.697-1.525 1.264-.212 5.181-.89 7.961-1.525 5.097-1.102 12.553-3.475 10.573-6.61-.21.169-.42.338-.673.55Zm-33.91 6.611c-.252.593.253 1.229.758 1.526.253-.212.505-.382.716-.593-.59-.34-1.01-.551-1.474-.933Zm30.455-10c-1.347.636-3.243 1.271-6.023 1.991-2.233.551-7.751 1.357-13.648 2.67-1.896.424-6.95 1.61-9.436 3.772.674.55 1.138.72 1.896 1.143 1.053-.678 2.443-1.313 4.506-1.864 3.623-.974 6.32-1.398 9.605-1.906 3.243-.55 9.309-1.823 12.679-3.052 1.095-.381 2.106-.932 2.864-1.525-.213-.255-2.354-1.31-2.443-1.229Zm-3.37-1.186c-2.78-.763-4.296-1.102-7.203-.763-4.254.509-8.888 1.44-12.89 2.627-1.558.466-9.772 2.84-7.413 6.144.002.039 1.395-1.95 6.824-3.559 6.655-1.95 13.606-2.585 20.682-4.45ZM147.853 4.364c5.896 0 7.876 5.34 7.876 10.678 0 5.339-1.98 10.678-7.876 10.678-5.898 0-7.877-5.34-7.877-10.678 0-5.339 2.022-10.678 7.877-10.678Zm-47.094-.085c4.043 0 5.896 2.755 5.896 5.382.042 1.017-.252 2.034-.842 2.924a5.002 5.002 0 0 1-2.359 1.906v.212c1.053.297 1.938.975 2.569 1.864.632.89.928 1.992.843 3.094 0 3.898-2.822 6.017-6.444 6.017a8.939 8.939 0 0 1-4.676-1.06l.084-4.28a7.345 7.345 0 0 0 3.286.637c.295.042.547 0 .8-.085s.505-.212.716-.424c.211-.17.379-.424.506-.678.126-.254.169-.509.169-.806-.001-1.143-.759-1.949-2.486-1.949h-1.938V12.67h2.148c.295.042.59 0 .843-.084.253-.085.505-.254.758-.424.211-.17.379-.424.506-.679.126-.254.211-.55.211-.804s-.085-.55-.169-.805a1.89 1.89 0 0 0-.505-.636 2.345 2.345 0 0 0-.717-.382c-.253-.084-.547-.084-.8-.084-.927 0-1.853.212-2.738.593V4.83a16.697 16.697 0 0 1 4.339-.55Zm21.988 21.399h-4.971V9.449h-3.623v16.229h-4.97V4.322h13.564v21.356ZM166.05 9.364l3.748-5.042h4.213v21.356h-4.971V12.627l-2.99 3.728-2.99-3.728v13.009h-4.972V4.322h4.255l3.707 5.042Zm39.68 16.314h-5.055l-.591-3.687h-3.495l-.59 3.687h-5.055l4.297-21.356h6.235l4.254 21.356Zm-111.5-.042h-5.055l-.59-3.687h-3.454l-.59 3.687h-5.055l4.255-21.357h6.234l4.255 21.357Zm37.995-21.357c4.717 0 6.444 4.323 6.444 7.12 0 2.796-1.517 7.203-6.444 7.203h-1.685v7.034h-4.929V4.279h6.614Zm80.456 7.712h3.453V4.322h4.886v21.314h-4.886v-8.56h-3.453v8.517h-4.845V4.323h4.845v7.668ZM79.992 9.661h-5.14v15.932h-5.054V4.364h10.194v5.297Zm97.431 15.932h-.042v-.042h.042v.042Zm51.726-13.602h1.053l2.781-7.669h5.308l-3.792 10.084 4.339 11.187h-5.729l-2.779-8.56h-1.181v8.56h-4.844V4.323h4.844v7.668ZM188.881 9.45h-6.613v2.796h.841c2.696 0 6.867.933 6.867 6.357a6.414 6.414 0 0 1-.337 2.668c-.337.848-.802 1.653-1.432 2.289a6.207 6.207 0 0 1-2.233 1.526 6.401 6.401 0 0 1-2.654.466h-5.897V4.364h11.458V9.45ZM43.471 19.576c-.295.424-.674.763-1.095 1.102.674.339 1.264.593 1.812.974.42-.805.167-1.313-.717-2.076Zm138.753 1.738.717.041c.589 0 2.148-.465 2.148-2.669 0-2.203-1.559-2.204-2.148-2.204h-.717v4.832ZM147.853 9.322c-1.77 0-2.655 1.992-2.655 5.678s.885 5.678 2.655 5.678c1.768 0 2.653-1.992 2.653-5.678s-.884-5.677-2.653-5.678ZM37.405 16.907c-.632.509-1.39.974-2.443 1.398 1.811.339 3.117.805 4.634 1.271.252.127 1.473-1.059 1.684-1.313-1.095-.509-2.443-.975-3.875-1.356Zm159.942.381h1.895l-.927-6.483-.968 6.483Zm-111.415-.043h1.895l-.97-6.482-.925 6.482Zm-46.21-3.008c-.127.466-.59.974-.927 1.356 1.01.254 2.022.636 2.991 1.017-.126-.89-1.18-1.78-2.064-2.373Zm90.775-.339h1.18c.674 0 1.853-.127 1.853-2.458 0-1.737-.716-2.415-1.853-2.415h-1.18v4.873Z"/></svg>