<svg xmlns="http://www.w3.org/2000/svg" fill="none" viewBox="0 0 136 20"><defs><linearGradient id="c" x1="3.355" x2=".861" y1="16.782" y2="9.486" gradientUnits="userSpaceOnUse"><stop offset=".144" stop-color="#F2E913"/><stop offset=".304" stop-color="#E7E518"/><stop offset=".582" stop-color="#CADB26"/><stop offset=".891" stop-color="#A3CD39"/></linearGradient><linearGradient id="d" x1="3.546" x2="9.969" y1="3.338" y2=".861" gradientUnits="userSpaceOnUse"><stop offset=".059" stop-color="#0FA8E0"/><stop offset=".538" stop-color="#0099F9"/><stop offset=".923" stop-color="#0291EB"/></linearGradient><linearGradient id="e" x1="9.236" x2="16.501" y1="18.607" y2="16.945" gradientUnits="userSpaceOnUse"><stop offset=".123" stop-color="#A3CD39"/><stop offset=".285" stop-color="#86C339"/><stop offset=".869" stop-color="#21A038"/></linearGradient><linearGradient id="f" x1="9.403" x2="15.614" y1=".774" y2="2.714" gradientUnits="userSpaceOnUse"><stop offset=".057" stop-color="#0291EB"/><stop offset=".79" stop-color="#0C8ACB"/></linearGradient><linearGradient id="g" x1="3.126" x2="9.886" y1="16.428" y2="18.985" gradientUnits="userSpaceOnUse"><stop offset=".132" stop-color="#F2E913"/><stop offset=".298" stop-color="#EBE716"/><stop offset=".531" stop-color="#D9E01F"/><stop offset=".802" stop-color="#BBD62D"/><stop offset=".983" stop-color="#A3CD39"/></linearGradient><linearGradient id="h" x1=".85" x2="3.563" y1="10.28" y2="3.136" gradientUnits="userSpaceOnUse"><stop offset=".07" stop-color="#A3CD39"/><stop offset=".26" stop-color="#81C55F"/><stop offset=".922" stop-color="#0FA8E0"/></linearGradient><clipPath id="a"><path fill="#fff" fill-opacity="0" d="M0 0h136v20H0z"/></clipPath></defs><g clip-path="url(#a)"><path fill="#21A038" d="M135.25 15.14v-1.68c-.42.82-1.37 1.48-2.79 1.48-1.81 0-2.83-1.02-2.83-3.22v-.05c0-2.12 1-3.2 2.79-3.2 1.16 0 2.16.65 2.74 1.61V8.05c-.56-.42-1.59-.82-2.74-.82-2.41 0-4.23 1.47-4.23 4.44 0 3.01 1.56 4.51 4.27 4.51 1.46.01 2.4-.51 2.79-1.04Zm-12.27-6.66c1.35 0 2.37.86 2.37 2.52v.02h-5.13c.19-1.68 1.16-2.54 2.76-2.54Zm0-1.24c-2.41 0-4.23 1.47-4.23 4.44 0 3.01 1.56 4.51 4.27 4.51 1.68 0 2.72-.52 3.15-1.05v-1.68c-.46.82-1.5 1.48-3.15 1.48-1.67 0-2.67-.86-2.81-2.73h6.56v-.93c0-2.52-1.42-4.04-3.79-4.04Zm-7.73 8.78h1.42V7.41h-1.42v3.6h-4.53v-3.6h-1.42v8.61h1.42V12.3h4.53v3.72Zm-14.69-.88c.45.53 1.54 1.05 3.14 1.05 1.9 0 3.46-.85 3.46-2.79 0-1.14-.63-1.73-1.75-1.96.84-.39 1.32-.88 1.32-1.96 0-1.36-.74-2.24-2.91-2.24h-.02c-1.33 0-2.49.4-3.14.82v2.03c.67-.96 1.8-1.61 3.14-1.61 1.09.03 1.5.45 1.5 1.26 0 .96-.77 1.37-1.85 1.37h-1.02v1.14h1.28c1.34 0 2.04.33 2.04 1.24 0 .96-.86 1.45-2.04 1.47-1.56 0-2.65-.66-3.14-1.48l-.01 1.66Zm-8.45.88.16-.21 4.66-6.25v6.46h1.42V7.41h-1.26l-4.82 6.4v-6.4h-1.42v8.61h1.26Zm-8.74-6.55c2.46 0 3.55.62 3.55 2.43 0 2.01-1.23 2.73-3.5 2.73h-2.3V9.47h2.25Zm-3.79 6.55h3.89c3.27 0 5.06-1.36 5.06-4.01 0-2.71-1.71-3.91-5.06-3.91h-2.35V5.35h6.66V3.97h-8.2v12.05Z"/><path fill="#21A038" fill-rule="evenodd" d="M32.32 13.97c.79 0 1.55-.19 2.21-.56l.57-.31s.82.6 1.66 1.23c-1.09 1.19-2.71 1.85-4.56 1.85-1.77 0-3.38-.64-4.54-1.78-1.16-1.15-1.79-2.74-1.79-4.47 0-1.73.63-3.29 1.8-4.4 1.15-1.11 2.77-1.72 4.55-1.72 1.64 0 3.07.51 4.15 1.47l.12.1-1.84 1.38c-.67-.49-1.46-.74-2.33-.74-2.32 0-4 1.67-4 3.97 0 2.31 1.68 3.98 4 3.98Zm12.31-5.3H41.5V5.98h4.99l2.69-2.01H38.94v12.05h5.35c3.01 0 4.73-1.38 4.73-3.79 0-2.3-1.56-3.56-4.39-3.56Zm-.45 5.34H41.5v-3.34h2.68c1.63 0 2.39.56 2.39 1.67 0 1.14-.81 1.67-2.39 1.67ZM60.41 3.97l-2.69 2.01h-3.74v2.94h5.48v2.01h-5.48v3.08h6.43v2.01h-9V3.97h9Zm2.38 0h4.9c3.13 0 5.07 1.65 5.07 4.31 0 2.66-1.95 4.33-5.07 4.33h-2.33v3.41h-2.57V3.97Zm2.57 6.63h2.28c1.64 0 2.55-.82 2.55-2.31 0-1.49-.91-2.31-2.55-2.31h-2.28v4.62Z"/><mask id="b" width="19.762" height="20" x="0" y="0" mask-type="alpha" maskUnits="userSpaceOnUse"><path fill="#000" d="M0 0h19.762v20H0z"/></mask><g mask="url(#b)"><path fill="url(#c)" d="M2.28 9.99c0-.12 0-.25.01-.38L.01 9.5C0 9.66 0 9.83 0 9.99c0 2.77 1.1 5.27 2.89 7.08l1.62-1.64a7.687 7.687 0 0 1-2.23-5.44Z"/><path fill="url(#d)" d="M9.88 2.31c.12 0 .25 0 .38.01l.11-2.31C10.21 0 10.04 0 9.88 0a9.79 9.79 0 0 0-6.99 2.92L4.5 4.56a7.556 7.556 0 0 1 5.38-2.25Z"/><path fill="url(#e)" d="M9.88 17.69c-.13 0-.26-.01-.38-.01l-.12 2.3c.17.01.33.02.5.02 2.72 0 5.19-1.12 6.98-2.93l-1.61-1.64c-1.38 1.39-3.28 2.26-5.37 2.26Z"/><path fill="url(#f)" d="m14.16 3.65 1.92-1.44A9.795 9.795 0 0 0 9.88 0v2.31c1.58 0 3.06.49 4.28 1.34Z"/><path fill="#21A038" d="M19.76 10c0-.62-.06-1.22-.16-1.8l-2.13 1.59V10c0 2.25-.96 4.29-2.5 5.69l1.53 1.72c2-1.83 3.26-4.47 3.26-7.41Z"/><path fill="url(#g)" d="M9.88 17.69a7.53 7.53 0 0 1-5.64-2.54L2.55 16.7C4.36 18.73 6.97 20 9.88 20v-2.31Z"/><path fill="url(#h)" d="M4.78 4.3 3.25 2.58C1.25 4.41 0 7.05 0 10h2.28c0-2.26.96-4.3 2.5-5.7Z"/><path fill="#21A038" d="M17.69 3.88c.47.61.87 1.28 1.19 1.99l-9 6.71-3.77-2.38V7.33l3.77 2.38 7.81-5.83Z"/></g></g></svg>