<svg xmlns="http://www.w3.org/2000/svg" width="274" height="56" fill="none"><path fill="#333" d="m264.602 11.365-9.349 10.466V11.365h-6.765v26.421h6.765v-11.12l10.007 11.12H274l-12.309-13.843 11.418-12.578h-8.507ZM236.559 21.219h-9.349v-9.854h-6.769v26.421h6.769V27.37h9.349v10.417h6.766V11.365h-6.766v9.854ZM147.289 29.668v-8.87c0-6.477-4.133-10.56-11.086-10.56-6.954 0-10.993 4.32-11.324 8.825h6.86c.233-.985 1.267-2.675 4.464-2.675 2.632 0 4.321 1.22 4.321 4.41h-6.721c-6.013 0-9.585 3.145-9.585 8.4 0 5.256 3.907 9.246 9.537 9.246 4.129 0 6.423-1.95 7.423-3.426.891 1.784 2.866 2.769 5.449 2.769h2.351v-6.101c-1.223 0-1.693-.564-1.693-2.018m-6.765-1.736c0 3.051-2.162 4.787-4.979 4.787-2.445 0-4.37-.89-4.37-3.52s2.113-3.002 3.945-3.002h5.404v1.735ZM176.28 15.118h-7.563V7.657h17.525V.943h-24.617v36.843h14.659c8.126 0 12.778-4.034 12.778-11.45 0-6.992-4.652-11.218-12.778-11.218m-.328 16.004h-7.235v-9.576h7.235c3.757 0 5.875 1.735 5.875 4.786 0 3.05-2.114 4.786-5.875 4.786M214.947 29.668v-8.87c0-6.477-4.133-10.56-11.087-10.56-6.953 0-10.992 4.32-11.323 8.825h6.86c.233-.985 1.267-2.675 4.463-2.675 2.633 0 4.321 1.22 4.321 4.41h-6.72c-6.013 0-9.586 3.145-9.586 8.4 0 5.256 3.908 9.246 9.537 9.246 4.129 0 6.423-1.95 7.424-3.426.891 1.784 2.865 2.769 5.449 2.769h2.35v-6.101c-1.222 0-1.692-.564-1.692-2.018m-6.765-1.736c0 3.051-2.163 4.787-4.979 4.787-2.445 0-4.37-.89-4.37-3.52s2.113-3.002 3.945-3.002h5.404v1.735ZM108.949 10.752V.943h-6.765v9.81c-7.75.657-12.967 6.15-12.967 13.798 0 7.65 5.216 13.19 12.967 13.848v9.952h6.765v-9.952c7.751-.609 12.967-6.15 12.967-13.848 0-7.697-5.216-13.19-12.967-13.799Zm-6.765 21.264c-3.757-.515-6.107-3.332-6.107-7.461 0-4.129 2.35-6.946 6.107-7.461V32.02v-.004Zm6.765 0V17.09c3.757.519 6.108 3.332 6.108 7.461 0 4.129-2.351 6.947-6.108 7.461M76.815 19.39H71.93V11.36h-6.766v26.426H76.91c7.378 0 10.007-4.787 10.007-9.295 0-5.82-3.667-9.106-10.101-9.106M76.3 31.964h-4.37v-6.71h4.37c2.35 0 3.756 1.033 3.756 3.238 0 2.393-1.36 3.471-3.756 3.471ZM40.171 25.678c-.162 4.93-.797 5.913-3.572 5.913v6.195h1.034c6.915 0 8.578-3.569 8.833-11.5l.282-8.775h6.484v20.275h6.765V11.365H40.641l-.47 14.313ZM36.177 47.99H0v7.51h36.177v-7.51ZM24.666 6C23.632 2.927 22.443.5 18.371.5c-4.073 0-5.34 2.416-6.423 5.5L.752 37.786h7.424l2.583-7.554h14.283l2.396 7.554h7.893L24.666 6ZM12.922 23.849l5.073-15.065h.188l4.79 15.065H12.919h.004Z"/></svg>