<svg xmlns="http://www.w3.org/2000/svg" width="240" height="56" fill="none"><path fill="#333" d="M45 25.203c-.21.17-.421.34-.674.551-1.516 1.187-3.875 2.119-7.161 3.009-6.824 1.864-11.794 2.118-17.439 3.517a20.392 20.392 0 0 0-3.328 1.101c1.053.551 2.19 1.017 3.37 1.483 2.275-.678 3.412-.974 6.698-1.525 1.264-.212 5.18-.89 7.961-1.525 5.097-1.102 12.553-3.475 10.573-6.61Zm-3.286-6.44c-1.095-.509-2.443-.975-3.875-1.356-.632.508-1.39.974-2.443 1.398 1.811.339 3.117.805 4.633 1.271.253.127 1.475-1.06 1.685-1.313ZM16.82 25.627c6.655-1.949 13.605-2.585 20.682-4.45-2.78-.762-4.297-1.1-7.203-.762-4.255.509-8.888 1.441-12.89 2.627-1.558.466-9.772 2.84-7.413 6.144 0 .043 1.39-1.949 6.824-3.559Zm-4.592 11.314c0 .593.337 1.144 1.18 1.822.084-.34.252-.593.505-.89-.59-.254-1.18-.593-1.685-.932Zm3.117-.297a17.224 17.224 0 0 1 1.77-.89c-.927-.381-1.896-.847-2.907-1.271a6.683 6.683 0 0 0-1.137.89l2.274 1.271Zm25.527-14.28c-1.348.636-3.244 1.272-6.024 1.992-2.232.55-7.75 1.356-13.648 2.67-1.895.423-6.95 1.61-9.435 3.77.674.551 1.137.72 1.895 1.145 1.053-.678 2.444-1.314 4.508-1.865 3.622-.974 6.318-1.398 9.604-1.907 3.243-.55 9.309-1.822 12.679-3.05 1.095-.382 2.106-.933 2.864-1.526-.21-.254-2.359-1.313-2.443-1.229Zm1.938-1.186c.673.339 1.263.593 1.81.974.422-.805.17-1.313-.715-2.076-.295.424-.674.763-1.095 1.102ZM11.89 33.297c-.59-.34-1.01-.551-1.474-.933-.253.594.253 1.23.758 1.526.253-.212.506-.382.716-.593Zm28.265-18.56c-.127.466-.59.975-.927 1.356 1.011.255 2.022.636 2.99 1.017-.126-.89-1.179-1.78-2.063-2.373ZM8.9 20.457c6.95-4.618 14.66-7.288 27.717-5.042.717-.423 1.096-.805 1.306-1.695-3.243-1.186-6.782-1.61-11.373-1.525-4.086.127-11.5 1.652-15.417 4.025l1.222-1.525c2.78-1.61 9.94-3.814 15.332-3.898 3.791-.085 5.771.127 10.278 1.355-.379-.804-1.348-1.186-2.696-1.78-4.38-1.99-12.552-2.16-19.25.806.843-.55 1.685-1.102 2.738-1.568 2.19-1.017 5.813-1.991 10.32-1.949 3.623.042 7.877 1.314 10.531 3.94a4.12 4.12 0 0 1 .8 1.526c2.064 1.06 3.286 2.076 3.96 3.22.295.594.38 1.272.253 1.992.884.509 1.264.975 1.685 1.525.295.467.547 1.017.59 1.526.084.678.168 1.398-.506 2.246.716.339 1.264 1.355 1.348 1.78.337 1.567-.674 3.135-2.022 4.321-1.516 1.356-4.886 2.966-7.624 3.687-5.476 1.398-10.278 1.991-14.111 2.67 1.727.423 4.043.974 7.877.974 8.13 0 15.332-3.898 15.332-3.898s-.168.508-.337.974c-5.18 3.136-13.395 4.492-16.891 4.322-3.58-.17-6.571-.72-9.52-1.61-.884.254-1.769.508-2.654.89 4.55 2.16 7.92 2.627 11.753 2.923 3.875.297 10.32-.677 15.796-2.669-.253.254-.38.636-.632.89-2.78 1.483-8.677 2.966-11.626 3.093-2.949.127-6.529 0-9.646-.593-2.696-.509-4.886-1.398-7.161-2.415-.421.296-.632.72-.716 1.144 8.888 4.745 17.312 4.873 26.832 1.864l-.884.848c-10.531 4.322-18.745 2.627-25.106-.467-.21-.084-.463-.211-.631-.296.59 1.06 5.433 4.618 10.867 5.085 3.75.296 8.298-.34 11.037-1.441l-1.601.847c-1.306.636-4.802 2.119-9.646 1.822-6.487-.423-10.11-3.347-11.753-4.873-.758-.72-1.137-1.525-1.348-2.542-1.474-.763-2.4-1.568-3.159-2.797-.463-.72-.379-1.483-.253-2.16.043-.212.085-.424.169-.594-.716-.508-1.432-1.06-1.727-1.61-.632-1.186-.253-2.16.21-2.966-.379-.424-.758-.89-.884-1.314-.169-.55-.21-1.059-.169-1.61.127-.974.632-1.864 1.306-2.67 1.432-1.652 3.623-2.923 7.456-4.194 3.749-1.229 5.223-1.44 8.046-2.076 3.285-.763 7.202-1.017 10.53-2.162-9.14-1.737-18.702-.254-26.453 5.17l.505-1.525ZM1.36 28c0-14.661 11.795-26.568 26.285-26.568S53.93 13.382 53.93 28c0 14.661-11.794 26.568-26.285 26.568C13.155 54.568 1.36 42.66 1.36 28Zm-.926 0c0 15.17 12.215 27.5 27.211 27.5 14.996 0 27.212-12.33 27.212-27.5S42.64.5 27.645.5.434 12.83.434 28Z"/><path fill="#333" fill-rule="evenodd" d="m198.749 11.305.927 6.483h-1.896l.969-6.483Zm-7.371 14.873h5.054l.591-3.687h3.495l.59 3.687h5.056l-4.255-21.356h-6.234l-4.297 21.356ZM158.564 4.822h4.213l3.706 5.042 3.749-5.042h4.213v21.356h-4.971V13.127l-2.991 3.729-2.99-3.73v13.01h-4.971V4.821h.042Zm-88.332.042h10.194v5.297h-5.14v15.932h-5.054V4.864Zm154.507-.042h4.844v7.67h1.053l2.781-7.67h5.308l-3.792 10.084 4.338 11.187h-5.728l-2.779-8.56h-1.181v8.56h-4.844V4.822Zm-16.469 0h4.844v7.67h3.454v-7.67h4.885v21.313h-4.885v-8.559h-3.454v8.517h-4.844V4.822Zm-25.613 16.991v-4.83h.718c.588 0 2.147 0 2.147 2.203 0 2.204-1.559 2.67-2.147 2.67l-.718-.043Zm-4.843 4.238h5.94a6.404 6.404 0 0 0 2.654-.466 6.203 6.203 0 0 0 2.233-1.526c.63-.636 1.094-1.44 1.431-2.288a6.4 6.4 0 0 0 .337-2.67c0-5.423-4.171-6.355-6.866-6.355h-.842V9.948h6.613V4.864h-11.458v21.229h-.042v-.042Zm-29.528-4.873c-1.769 0-2.654-1.992-2.654-5.678 0-3.687.885-5.678 2.654-5.678s2.654 1.991 2.654 5.678c0 3.686-.885 5.678-2.654 5.678Zm0 5.042c5.897 0 7.877-5.339 7.877-10.678s-1.98-10.678-7.877-10.678c-5.855 0-7.877 5.34-7.877 10.678 0 5.339 1.979 10.678 7.877 10.678ZM130.931 9.525h1.179c1.138 0 1.854.678 1.854 2.415 0 2.33-1.179 2.458-1.854 2.458h-1.179V9.525Zm-4.886 16.61h4.929v-7.034h1.685c4.928 0 6.444-4.406 6.444-7.203 0-2.797-1.727-7.119-6.444-7.119h-6.614v21.356ZM109.617 4.822h13.564v21.356h-4.971V9.948h-3.623v16.23h-4.97V4.822Zm-10.152 8.347c.295.043.59 0 .843-.085.252-.084.505-.254.758-.423.21-.17.379-.424.505-.678a1.9 1.9 0 0 0 .211-.805c0-.255-.084-.551-.169-.805a1.864 1.864 0 0 0-.505-.636 2.338 2.338 0 0 0-.716-.381c-.253-.085-.548-.085-.8-.085-.927 0-1.854.212-2.739.593V5.33a16.694 16.694 0 0 1 4.339-.55c4.044 0 5.897 2.754 5.897 5.38.042 1.018-.252 2.035-.842 2.925a5.008 5.008 0 0 1-2.359 1.906v.212c1.053.297 1.938.975 2.57 1.865.631.89.926 1.991.842 3.093 0 3.898-2.822 6.017-6.445 6.017a8.938 8.938 0 0 1-4.675-1.06l.084-4.28a7.341 7.341 0 0 0 3.285.636c.295.043.548 0 .801-.084.252-.085.505-.212.716-.424.21-.17.379-.424.505-.678a1.72 1.72 0 0 0 .169-.805c0-1.144-.758-1.95-2.486-1.95h-1.937V13.17h2.148Zm-12.174-1.907.97 6.484h-1.896l.927-6.483ZM79.92 26.136h5.055l.59-3.686h3.454l.59 3.686h5.054L90.409 4.78h-6.235L79.92 26.135ZM76.508 42.746h1.811l-.926-6.399-.885 6.399Zm3.96-12.712 4.128 20.975h-4.929l-.59-3.602h-3.37l-.589 3.602H70.19l4.128-20.975h6.15Zm41.996 4.957c-1.685 0-2.569 1.992-2.569 5.679 0 3.686.884 5.678 2.569 5.678 1.727 0 2.57-1.992 2.57-5.678 0-3.687-.885-5.679-2.57-5.679Zm0-5.084c5.729 0 7.667 5.38 7.667 10.763 0 5.381-1.938 10.762-7.667 10.762-5.728 0-7.666-5.381-7.666-10.762 0-5.382 1.938-10.763 7.666-10.763Zm-22.367.127v5.212h4.044v15.72h4.886v-15.72h4.044v-5.212h-12.974Zm-8.888 16.44V42.28h.843c.42 0 .758.17 1.052.55.295.34.422.89.422 1.568s-.127 1.186-.421 1.568c-.295.339-.632.55-1.053.55h-.843v-.041Zm0-8.262v-3.729h.716c.38 0 .674.17.885.466.21.297.337.763.337 1.398 0 .636-.127 1.102-.337 1.441-.211.297-.506.466-.885.466h-.716v-.042Zm-4.76 12.754h5.729c.969 0 1.853-.17 2.611-.466.759-.297 1.433-.72 1.938-1.23a5.497 5.497 0 0 0 1.222-1.863c.294-.72.42-1.483.42-2.33 0-.552-.041-1.103-.168-1.653a8.087 8.087 0 0 0-.505-1.526 5.366 5.366 0 0 0-.885-1.228c-.379-.34-.8-.636-1.348-.806.085 0 .211-.127.464-.254.252-.17.505-.423.8-.72.295-.34.506-.763.758-1.313.211-.551.337-1.23.337-1.992 0-.763-.126-1.526-.42-2.204a4.95 4.95 0 0 0-1.138-1.78c-.506-.508-1.095-.889-1.811-1.186-.717-.297-1.517-.424-2.401-.424h-5.603v20.975Zm109.477.339h4.845V42.83h3.455v8.518h4.885V30.034h-4.885v7.67h-3.455v-7.67h-4.845v21.27Zm16.598 0h5.055V35.373h5.138v-5.339h-10.193v21.27Zm-46.126-12.966v4.491h2.023c1.685 0 2.443.763 2.443 1.95 0 .296-.084.55-.211.804a2.584 2.584 0 0 1-.505.679c-.211.169-.464.339-.716.424a1.734 1.734 0 0 1-.801.084 7.236 7.236 0 0 1-3.286-.635l-.084 4.28a9.095 9.095 0 0 0 4.718 1.059c3.581 0 6.446-2.161 6.446-6.06a4.618 4.618 0 0 0-.844-3.05c-.632-.89-1.515-1.569-2.57-1.865v-.212c.969-.381 1.771-1.101 2.317-1.949.548-.89.802-1.907.76-2.966 0-2.67-1.813-5.424-5.898-5.424a16.67 16.67 0 0 0-4.339.551v4.45a6.172 6.172 0 0 1 2.738-.51c.253-.042.548 0 .8.086.253.084.506.211.717.38.21.17.379.425.505.636.127.255.169.508.169.805a2.256 2.256 0 0 1-.716 1.483c-.422.382-.969.551-1.559.551h-2.107v-.042Zm-32.265-8.432v11.695c0 3.77-.506 4.66-1.559 4.66-.379-.042-.758-.084-1.137-.17v5a5.347 5.347 0 0 0 2.021.383c5.308 0 5.308-5.127 5.308-8.01v-8.431h1.938v16.144h4.633V29.907h-11.204Zm14.827.17v21.27h4.507l4.507-11.483v11.484h4.508V30.076h-4.508l-4.465 11.483V30.076h-4.549Zm34.415 0v11.482l4.464-11.483h4.55v21.272h-4.508V39.864l-4.506 11.484h-4.508V30.076h4.508Z" clip-rule="evenodd"/></svg>