<svg xmlns="http://www.w3.org/2000/svg" version="1.0" viewBox="0 0 1006 1006"><path d="M439.8 19.7c1.2.2 3 .2 4 0 .9-.3-.1-.5-2.3-.4-2.2 0-3 .2-1.7.4zM490.8 21.7c1.2.2 3.2.2 4.5 0 1.2-.2.2-.4-2.3-.4s-3.5.2-2.2.4zM456.5 23c2.8.5 8.2.8 12 .8l7-.1-5.5-.7c-3-.5-8.4-.8-12-.8l-6.5.1 5 .7zM415.8 23.7c2.9.2 7.4.2 10 0 2.6-.2.2-.3-5.3-.3s-7.6.1-4.7.3zM499 24.4c0 .2 2.4.9 5.3 1.5 7.3 1.5 20.7 2.8 20.2 2-.6-.9-25.5-4.4-25.5-3.5zM422.5 26.9c-2.3.9 8.3 2.1 19.5 2.1 5.6 0 7.1-.3 6.2-1.2-1.3-1.3-22.6-2.1-25.7-.9zM372.8 27.7c1.2.2 3 .2 4 0 .9-.3-.1-.5-2.3-.4-2.2 0-3 .2-1.7.4zM469 27.9c1.8 1.1 10.9 2.7 20.6 3.6 8.8.8 10.8-.8 3.2-2.5-7-1.5-25.8-2.5-23.8-1.1zM364.8 28.7c.6.2 1.8.2 2.5 0 .6-.3.1-.5-1.3-.5-1.4 0-1.9.2-1.2.5zM378 30c-3.3 1.1 10.4 1.1 18 0 4.7-.6 4.1-.7-5-.8-5.8 0-11.6.4-13 .8zM543.1 30.5c.7.6 27.2 6.5 27.7 6.1.6-.7-9.1-3.6-17.2-5.1-7.9-1.5-11.3-1.9-10.5-1zM516 32c3.7 1.7 17.7 4.7 24.5 5.4 5.4.6 5.8.5 4.1-.8-2.5-2-14.5-4.7-23.6-5.2-6-.4-7-.2-5 .6zM437.2 32.8c-2.1 1.4 6.7 3.3 18.4 3.9 11.5.6 14.8-.8 6.2-2.7-7.3-1.5-23-2.3-24.6-1.2zM393.6 33.9c-1 1.6 18.2 2.8 23.2 1.4 1.8-.4 2-.8 1-1.4-1.7-1.1-23.5-1.2-24.2 0zM346.3 34.7c.9.2 2.3.2 3 0 .6-.3-.1-.5-1.8-.5-1.6 0-2.2.2-1.2.5zM339.3 35.7c.9.2 2.5.2 3.5 0 .9-.3.1-.5-1.8-.5-1.9 0-2.7.2-1.7.5zM483 35.6c0 1 7.5 3.6 14.7 5 18.6 3.5 24.5-.3 6.3-4.1-6.9-1.4-21-2.1-21-.9zM352.5 37c-3 .5-1.8.7 5 .8 5 0 10.1-.4 11.5-.8 3.2-1-10.8-1-16.5 0zM563.5 39.9c5.2 2.6 19.7 6.7 26 7.6 4.8.6 4.9.5 2.5-.9-4-2.5-21-7.6-27-8.1l-5.5-.5 4 1.9zM405.8 39.6c-1 .3-1.8.9-1.8 1.4 0 1.6 3.6 2.2 15.1 2.7 12.1.6 15.9-.5 9.6-2.6-3.5-1.3-20.1-2.3-22.9-1.5zM529 40.7c0 2.4 21.7 9.3 29.3 9.3 7.8 0 1.8-4.4-10.2-7.5-8.2-2.1-19.1-3.1-19.1-1.8zM362.2 41.9c-1.9 1.2 3.4 2.1 11.7 2.1 7.4 0 11.3-.8 10.5-2.1-.7-1.1-20.5-1.2-22.2 0zM449.1 41.9c-1.1.7-1 1.1.6 1.9 6.6 3.6 29.3 5.8 29.3 2.8 0-1.7-3.8-3.3-10.9-4.6-6.6-1.2-17.1-1.3-19-.1zM313.5 43c-4.2 1.1-.1 1.1 5 .1 3.4-.7 3.5-.9 1-.9-1.6 0-4.3.4-6 .8zM597 43.2c3.6 1.5 21.1 6.8 22.4 6.8 2.4-.1-2.4-2-12.5-4.9-10.8-3.1-14.5-3.8-9.9-1.9zM326 44.7c-1.9.3-3.9.9-4.5 1.4-1.2 1.2 16.2.1 18.5-1.2 1.5-.9-7.2-1-14-.2zM495.8 45.7c-2.8.7-2.1 2 2.5 4.2 8.8 4.3 28.4 6.7 28.9 3.6.2-1.5-5.4-4.5-11.1-6-5.7-1.5-17.8-2.6-20.3-1.8zM370.3 48.6c-4.4 2 4.2 4.4 15.6 4.4 8.3 0 10.2-.8 7.5-3.1-1.7-1.4-20.6-2.4-23.1-1.3zM332.3 49.7c-1.3.2-2.3.8-2.3 1.3 0 1.5 6.7 2.3 13.7 1.7 6.5-.5 8.2-1.1 6.9-2.4-.9-.9-15-1.4-18.3-.6zM413.3 49.7c-4.8 1.9 7.2 6.4 17.9 6.6 12.3.3 13.3-3.7 1.6-6.2-5-1.1-17.3-1.4-19.5-.4zM577.4 51.3C582 55.2 601.2 62 607.7 62c3.1 0 2.9-2.2-.4-4.2-4.9-2.8-21.4-8-27.2-8.5l-5.6-.4 2.9 2.4zM606.4 49.9c1.4 2.2 31 13.1 32.2 11.8 1.3-1.2-10.6-6.6-24.1-10.8-6.6-2.1-8.9-2.4-8.1-1zM290.5 51c-1.4.7-.8.8 2 .3 2.2-.3 4.2-.7 4.4-.9.9-.8-4.5-.2-6.4.6zM459.3 52.7c-3 .6-2.9 2.8 0 4.8 3.2 2 17.1 5.5 22.2 5.5 2.3 0 5-.6 6-1.4 1.6-1.2 1.7-1.6.6-3-2.8-3.4-22.2-7.4-28.8-5.9zM542.7 52.7c-4.5 1.2 1.1 5.4 12.3 9.3 14.5 5.1 26.9 3.6 17.8-2-6.5-4-25.4-8.6-30.1-7.3zM295.5 54c-1.4.6 0 .9 4.5.9 3.6 0 7.4-.4 8.5-.9 1.4-.6 0-.9-4.5-.9-3.6 0-7.4.4-8.5.9zM337.6 58.3c-1.9 1.4-1.9 1.5.5 2.7 3.7 2 17 2.5 19.3.7 1.9-1.4 1.9-1.5-.5-2.7-3.7-2-17-2.5-19.3-.7zM266.5 59c-2.7.7-2.8.8-.5.8 1.4 0 3.4-.3 4.5-.8 2.5-1.1.2-1.1-4 0zM304 58.6c-.8.3-2.2.8-3 1.1-2.7.9 2.1 2.2 8.5 2.2 6.7 0 10.6-1.1 8.6-2.3-1.6-1-12.1-1.7-14.1-1zM378.3 58.7c-3.5.7-2.7 3.2 1.4 4.9 5.1 2.2 17.3 3 20.3 1.4l2.4-1.3-2.2-1.8c-3.8-3-14.7-4.6-21.9-3.2zM503.4 60.5c-.9 2.2 1.1 4.1 7 6.9 16.8 7.8 36.4 4.7 20.6-3.4-8.9-4.5-26.4-6.7-27.6-3.5zM272.3 61.7c-3.7.5-4.5 2.3-1 2.3 4.8 0 9.9-1.3 8.5-2.1-1.3-.9-1.8-.9-7.5-.2zM421.2 61.7c-2.8.6-3.8 2.8-2.2 4.8 3.5 4.2 23.4 7.1 27.5 4.1 1.9-1.4 1.9-1.5.2-3.4-3.3-3.6-18.7-7-25.5-5.5zM622 62.1c0 2.3 10.4 8.3 21.5 12.4 8.4 3.1 12.5 3.8 12.5 2.1 0-2.8-13-9.7-25.4-13.5-7.9-2.4-8.6-2.5-8.6-1zM652.5 63.1c.4.5.1.9-.5.9-2.6 0 .8 2.4 10.1 7.1 11.2 5.6 19.9 9.2 20.6 8.5.3-.2-2.6-2.2-6.4-4.4-10.4-6-24.4-13.2-23.8-12.1zM588.5 64.1C586.1 68 609 79 619.5 79c5.5 0 6-1.8 1.3-5.3-5.2-3.9-11.4-6.7-19.5-8.8-8.6-2.2-11.9-2.4-12.8-.8zM245.8 66.7c.7.3 1.6.2 1.9-.1.4-.3-.2-.6-1.3-.5-1.1 0-1.4.3-.6.6zM241.8 67.7c.7.3 1.6.2 1.9-.1.4-.3-.2-.6-1.3-.5-1.1 0-1.4.3-.6.6zM273.8 67.6c-4.3 1.3-.4 3.4 6.2 3.4 3.7 0 6.9-1.4 5.7-2.6-.8-.9-9.6-1.4-11.9-.8zM304.4 68.1c-1.1 1.8 1.3 3.2 6.8 3.9 8.5 1.1 14.3-1.7 8.3-4-3.5-1.3-14.2-1.3-15.1.1zM463.5 68.3c-1.6 1.3-1.8 1.9-.9 3.4 2.7 4.5 18.3 10 25.7 9 13.8-1.9 1.6-12.1-15.8-13.4-5.3-.4-7.5-.1-9 1zM342.1 68.8c-6.6 2-1.2 6.2 8.8 7 7.3.5 11.4-.8 10.5-3.3-1.1-2.7-14.2-5.2-19.3-3.7zM549.3 69.5c-.8 2.2 4 6.6 10.4 9.6 10.7 4.9 24.4 6.3 25.1 2.6.6-2.8-2.1-5.1-11-9.2-6.7-3.2-9.6-3.9-15.9-4.3-6.9-.4-8-.2-8.6 1.3zM248 70c-2.6.4-3 .7-1.5 1.1 2.5.6 8.6-.4 6.5-1.2-.8-.3-3.1-.2-5 .1zM380 72.7c-9.1 3.5 9.7 12.1 20.2 9.2 4-1 4.4-1.8 2.8-4.9-1.9-3.5-17.4-6.4-23-4.3zM508.8 76c-2.7 1.7-2.1 4.6 1.5 7.3 10.9 8.2 27.6 11.1 31.1 5.3.9-1.5.5-2.3-2.7-5-2-1.9-6.2-4.3-9.3-5.5-6.6-2.5-18.1-3.7-20.6-2.1zM247.2 77.2c.5 1.5 8.7 1.8 9.1.3.1-.6-2-1.1-4.7-1.3-3.6-.2-4.7 0-4.4 1zM274.5 77.4c-1.7 1.3-1.8 1.7-.5 2.6 4.6 3 16.2 1.7 12.9-1.5-2.3-2.2-10.1-2.9-12.4-1.1zM227.3 77.7c.9.2 2.3.2 3 0 .6-.3-.1-.5-1.8-.5-1.6 0-2.2.2-1.2.5zM421.1 78.7c-3.3 2.7-1.7 5.4 5.6 9 4.8 2.3 7.1 2.8 13.1 2.8 6.1 0 7.6-.3 8.8-1.9 1.2-1.7 1.2-2.3.1-4-2.3-3.6-9.9-6.7-17.9-7.3-6.2-.5-7.6-.3-9.7 1.4zM634.5 78.1c-2.1 3.2 17.5 15.4 28.8 17.9 5.1 1.1 6.7.7 6.7-1.5 0-6-32.6-21.1-35.5-16.4zM667 79.5c3.4 4.1 23.8 15.2 31.3 17.1 7.9 1.9-5.1-8.2-19.3-15-7.8-3.8-14.3-4.9-12-2.1zM304.2 80.2c-2.2 2.8 2.1 5.2 9.9 5.6 5.8.4 7 .2 7.5-1.3 1.2-3-2.1-4.9-9.4-5.3-5.1-.3-7.1 0-8 1zM596.7 80.7c-2.9 2.9 3.2 9 14 14 12.6 5.8 22.3 6.8 22.3 2.4 0-4.3-9.7-11-21.9-15.2-5.3-1.9-13.1-2.5-14.4-1.2zM225.2 84.2c.5 1.5 5.8 2.4 5.8 1 0-1.1-2.4-2.2-4.7-2.2-.8 0-1.3.6-1.1 1.2zM339.5 84.4c-4.4 3.2 1.7 7.7 11.3 8.3 10.9.8 13.7-3.6 5.1-7.9-4.1-2.2-13.7-2.4-16.4-.4zM695 85c9 6.1 36.1 21.4 32 18.1-4-3.2-30.8-19.1-32.2-19.1-.9 0-.8.3.2 1zM246.7 85.7c-2.7.7-1.6 3.6 1.8 4.5 5.8 1.5 9.3-2.2 3.9-4.2-2.7-1-2.8-1.1-5.7-.3zM464.9 86.9c-2 1.6-2.2 2.2-1.2 4.4 4.5 9.8 32.3 14.5 32.3 5.5 0-7.6-24.4-15.4-31.1-9.9zM554.6 87.6c-2.4 2.3-2 3.3 2.6 7.7s11.4 7.7 19.6 9.7c13.7 3.2 18-3.8 7-11.3-9.8-6.7-25.4-9.9-29.2-6.1zM380 89.3c-4.7 1.6-5.1 4.6-1 8 7.5 6.4 24 6.2 24-.2 0-5.4-15.1-10.5-23-7.8zM207 90c0 .5.7 1 1.6 1 .8 0 1.2-.5.9-1-.3-.6-1-1-1.6-1-.5 0-.9.4-.9 1zM271.4 90.5c-1 2.5.3 4.3 3.9 5.3 7.2 2 12.3-1.3 7.8-5-2.9-2.3-10.9-2.5-11.7-.3zM221.2 94.2c-1.3 1.3.2 3.8 2.3 3.8 2.1 0 3.6-2.5 2.3-3.8-.7-.7-1.7-1.2-2.3-1.2-.6 0-1.6.5-2.3 1.2zM302.2 95.6c-3.1 2.1-2.8 4.1 1.1 6.4 3.6 2.3 12.6 2.7 14.5.8 2.3-2.3 1.3-4.7-2.8-6.8-4.7-2.4-9.7-2.6-12.8-.4zM511.3 96.4c-2.4 1.1-3.3 2.2-3.3 3.9 0 2.3 4.1 6.9 9.1 10 7.8 4.8 22.7 6 25.6 2.1 1.9-2.5 1.6-3.8-1.3-7.3-6.1-7.3-22.7-12-30.1-8.7zM642.9 96.6c-1.1 1.3-1.1 2 .2 4.2 3.9 7 22.6 17.2 31.4 17.2 4.2 0 4.5-.2 4.5-2.7 0-8.3-31.2-24.5-36.1-18.7zM679 95.9c0 5.1 25.4 21.1 33.5 21.1 7.9 0-4.6-11.4-21-19.2-5.8-2.7-12.5-3.8-12.5-1.9zM421.3 97.1c-6.7 2-4.7 8.3 4.1 12.8 8.5 4.4 22.6 2.8 22.6-2.5 0-2.9-6.4-8.1-12-9.8-5.9-1.8-9.9-1.9-14.7-.5zM709 98c0 1.6 12.2 11.2 20.7 16.2 14.6 8.6 16.7 7.3 4.1-2.7-6.9-5.4-22-14.5-24.2-14.5-.3 0-.6.4-.6 1zM241.8 98.7c-2.2.6-3.2 3.4-1.6 4.9 2.5 2.3 5.4 2.5 7.9.5 2.1-1.7 2.2-2.1.9-3.4-1.8-1.8-4.9-2.6-7.2-2zM200 101.6c0 .9.5 1.4 1.2 1.2 1.8-.6 2.1-2.8.4-2.8-.9 0-1.6.7-1.6 1.6zM601.6 101.3c-6.4 4.8 11.5 19.4 26 21.3 10.9 1.3 13.6-3.1 6.3-10.6-8.1-8.3-27.1-14.6-32.3-10.7zM335.8 102.1c-4.9 2.8.7 10.3 8.6 11.4 4.5.7 11-.7 12.2-2.6 1.5-2.4-.8-6.1-4.9-7.9-4.5-2.1-13.1-2.6-15.9-.9zM265.2 106.2c-2.5 2.5-1.4 5.8 2.4 7.4 4.1 1.7 9.8.5 10.9-2.4 1.6-4.2-9.8-8.5-13.3-5zM730 105.4c0 .7 8.7 6.6 9.6 6.6.4 0-.8-1.2-2.7-2.6-4-3-6.9-4.7-6.9-4zM465 106.6c-2.7 1.1-5 3.7-5 5.5 0 2.8 4.8 7.8 10 10.4 11.8 6 25.9 3.1 23.4-4.8-1.7-5.8-10.4-10.6-20.2-11.3-3.7-.2-7.4-.1-8.2.2zM212.4 108.5c-.9 2.3.3 4.5 2.4 4.5 2.9 0 4.8-2.6 3.2-4.5-.7-.8-2.1-1.5-3.2-1.5-1 0-2.1.7-2.4 1.5zM377.1 109.1c-8.9 1.9-5.8 12 4.7 14.9 7.4 2 15.4.2 16.7-4 2-6.2-11.5-13.1-21.4-10.9zM557.3 109.2c-3.7 1.8-3.1 6.9 1.1 11.2 8.3 8.2 26.7 13.5 31.6 9.1 5.1-4.6.3-12-11.5-18-6.5-3.3-17.1-4.4-21.2-2.3zM294.1 114.9c-2.7 2.7-2.6 3.4.2 6.7 3.1 3.5 11.7 4.6 14.7 1.9 4.8-4.3 1-9.6-7.4-10.3-4.5-.4-5.7-.1-7.5 1.7zM190 116.1c0 2.4 2.3 2.1 2.8-.4.2-1-.3-1.7-1.2-1.7-1 0-1.6.9-1.6 2.1zM688.1 114.9c-5.6 3.6 16.4 22.1 29.8 25.2 4.3 1 6.1.2 6.1-2.6 0-9-28.7-27.1-35.9-22.6zM230.6 117.2c-1.3 1.9-1.4 2.5-.2 4.3 2.5 3.7 9.6 2.6 9.6-1.5 0-4.7-6.7-6.7-9.4-2.8zM722 117.2c0 2.2 13.5 14.3 21.1 19.1 11.6 7.2 17.4 6.6 10.4-1.1-10.2-11.3-31.5-23.5-31.5-18zM647.1 118.4c-2.2 2.6-.3 6.7 5.5 12.2 9.1 8.6 21.7 13.8 28.8 12 2.2-.5 2.6-1.2 2.6-4.1 0-7.6-18-20.4-30-21.3-4.3-.3-5.9 0-6.9 1.2zM510 118.6c-12.8 5.3 2.2 22.4 19.6 22.4 15.3 0 15.2-11.9 0-19.3-5.6-2.8-16.3-4.4-19.6-3.1zM414.2 120.6c-1.5 1-2.2 2.5-2.2 4.8 0 8.9 17.9 16 26.8 10.6 5.9-3.6 3.5-10.7-5.1-14.9-5.4-2.6-16.1-2.9-19.5-.5zM331.8 121.9c-3.6.8-6.8 3.6-6.8 5.9 0 2.5 2.7 6 6 7.7 3.8 2 11.4 1.9 14.5-.1 3-2 3.4-7.3.7-9.7-3.2-2.9-10.1-4.8-14.4-3.8zM749 121.3c0 2.4 22.2 20.7 30 24.7l2.5 1.3-2.4-2.7c-2.7-2.9-1.9-3.5 1.3-.9 1.2 1 .8.3-.8-1.5-1.7-1.7-3.6-3.2-4.3-3.2-.7 0-5.6-3.4-10.9-7.5-8.5-6.7-15.4-11.2-15.4-10.2zM605.3 124.1c-3.9 1.1-5.1 4.5-3.3 8.9 3.1 7.4 19.2 17 28.5 17 6.7 0 10-2.7 9.1-7.4-.9-4.5-8.1-11.2-16.1-15.1-7.8-3.7-13.4-4.8-18.2-3.4zM202.3 124.8c-.6.4-1.2 1.4-1.3 2.2-.5 3.4 0 4.1 2.8 3.8 2.3-.2 2.7-.8 2.7-3.3 0-3-1.9-4.2-4.2-2.7zM255.3 125.5c-4.9 3.4-1.4 10.5 5.2 10.5 3.7 0 7.5-3.1 7.5-6 0-4.4-8.7-7.4-12.7-4.5zM457.7 131.6c-5.1 2.7-5.4 8.7-.9 13.8 2.9 3.2 13.3 7.6 18 7.6 5.4 0 10.5-2.3 12.2-5.6 1.2-2.1 1.1-2.9-.3-5.8-4.2-8.8-20.7-14.5-29-10zM177.7 131.7c-1 1-.8 4.3.2 4.3.9 0 2.1-2.4 2.1-4.1 0-1.1-1.4-1.2-2.3-.2zM365.8 133.6c-8.1 4.3-1.4 15.7 9.9 17.1 11.4 1.3 17.9-7.3 10.6-13.9-5-4.6-15.2-6.1-20.5-3.2zM556.2 133.1c-4.4 1.3-5.9 4.6-4.3 9.9 2.4 7.9 17.5 16.7 27.3 15.7 6.4-.6 9.8-2.9 9.8-6.8 0-8.4-9.5-16.4-22.5-18.8-6.6-1.2-5.9-1.2-10.3 0zM286.3 135.1c-9.2 2.6-5.4 14.4 4.7 14.4 4.5 0 9-3.5 9-7 0-2.6-4.6-7.1-8-7.8-1.4-.2-4-.1-5.7.4zM219.9 136.4c-1.8.9-2.4 2-2.4 4.5 0 4.3 2.3 5.9 6.2 4.5 2.3-.7 2.9-1.6 3.1-4.5.2-2.9-.1-3.7-2.1-4.6-1.8-.8-3-.8-4.8.1zM732.3 136.7c-6 2.3 9.6 20 23.2 26.4 7.9 3.8 10.5 3.8 10.5.1 0-8.5-26.5-29.3-33.7-26.5zM692.4 138.4c-3.3 8.6 14.8 25.5 29.8 27.9 2.7.4 4.3.1 5.9-1.2 2-1.6 2.1-2 .9-5.6-2.9-8.9-19.8-21.3-30.2-22.3-4.8-.4-5.9-.2-6.4 1.2zM763 141.6c0 .3 1.3 2.5 2.9 4.8C773 156.6 796 174 796 169.1c0-3.3-14.4-18-23.9-24.5-4.7-3.2-9.1-4.7-9.1-3zM648.6 143.3c-1.5 1.1-1.8 2.2-1.3 5.5 1.6 12.7 27.5 27.9 36.5 21.6 6.5-4.5-1.6-17.7-15.3-24.6-7.1-3.6-16.8-4.9-19.9-2.5zM189.4 144.8c-.6.4-1.7 1.8-2.3 3.1-1.1 1.9-1 2.6.3 3.9 1.4 1.5 1.8 1.5 3.1.1 3.1-3 2.1-9.2-1.1-7.1zM408 144.6c-3.3 1.4-6 4.8-6 7.8 0 9.6 15.4 16.8 25.5 12 11.1-5.2 2.6-19-12.3-20-3.1-.2-6.4-.1-7.2.2zM504 144.6c-3.7 1.6-6 4.8-6 8.6 0 7.7 12.3 16.8 22.9 16.8 9.1 0 13-2.7 13.1-9.2 0-7.7-11.1-15.6-22.9-16.4-3.1-.2-6.3-.1-7.1.2zM317.5 147.2c-6.9 3.7-5.6 12.9 2.2 15.9 10.2 3.9 20.1-4.2 14.7-12-3.1-4.4-12.2-6.5-16.9-3.9zM241.6 149.1c-5.2 4.1-2.1 11.9 4.7 11.9 3.8 0 6.2-2.1 7.2-6.2.5-2.1.1-3.3-1.9-5.2-3-3.1-6.4-3.3-10-.5zM786.8 149.5c2 2.9 13.6 14.4 28.6 28.5l7 6.5-7.1-8c-6.8-7.6-14.6-15.3-25.7-25.5-3.9-3.6-4.5-3.9-2.8-1.5zM603 150.1c-8.8 3.5-8.1 11.2 1.9 20.1 5.9 5.4 14.3 8.8 21.5 8.8 11.8 0 13.7-10 3.8-19.6-7-6.8-21.3-11.7-27.2-9.3zM162.2 152.2c-1.5 1.5-1.6 3.8-.2 3.8 1.2 0 2.3-2.5 1.8-4-.2-.7-.7-.7-1.6.2zM203.1 160.6c-2.3 3-2.6 4.6-1.1 7.5 2 3.7 8 1.8 9.5-3.2.8-2.6-1.9-6.9-4.5-6.9-1 0-2.8 1.2-3.9 2.6zM355.4 159.4c-9.3 4.1-8.1 15.3 2 19.1 7.6 2.9 15.8.6 18.5-5.3 1.7-3.6 1.3-4.9-2.4-9-5-5.6-12-7.4-18.1-4.8zM448.8 159.6c-3.4 1.8-4.8 4.3-4.8 8.7 0 9.5 13.2 17.1 25.2 14.5 13.6-2.8 10.8-18-4.3-23.3-5.3-1.9-12.6-1.9-16.1.1zM270.4 161.4c-3.4 1.5-4.4 3.2-4.4 7.7 0 7.6 10.3 10.7 16.1 5 4.6-4.7 3.5-10.1-2.6-12.7-4.2-1.7-5.1-1.7-9.1 0zM549.1 161c-3.5 1.5-5 4-5.1 8.3 0 4.8 1.9 8.5 6.6 12.7 7.7 6.7 17.6 9.3 24.9 6.5 11.7-4.4 8.2-17.6-6.8-25.1-5.7-2.9-15.5-4.1-19.6-2.4zM736.3 161.1c-4.6 4.7 6.3 20.1 20.1 28.3 8.4 5.1 15.6 4.8 15.6-.6 0-5.8-11.3-19-21.1-24.6-6.4-3.6-12.8-5-14.6-3.1zM772.4 163.4c-1.1 2.8 3.9 11 11.2 18.3 10.7 10.7 19.7 15.8 21.9 12.3 2-3.2-13.4-22.1-23-28.3-5.4-3.5-9.3-4.4-10.1-2.3zM693.6 165.2c-2.1 3-2 5.3.5 10.4 5 9.8 19.7 20.4 28.6 20.4 6.3 0 8.3-1.3 8.3-5.6 0-5.2-2.4-9.6-8.8-15.9-10.3-10.2-24.7-14.9-28.6-9.3zM171.1 168.4c-1.7 2.1-1 7 1.1 7.4 2.2.4 4.1-3.3 3.4-6.4-.7-2.7-2.7-3.1-4.5-1zM647.3 169.9c-2.8 1.2-4.3 4.1-4.3 8.1 0 12.5 22.2 28 34.5 24 8.3-2.7 7.4-12.7-2-22.3-7.6-7.6-21.7-12.5-28.2-9.8zM801 169.8c0 4.3 25 31.2 29.1 31.2 1.6 0 1-2.5-1.6-6.1-6.7-9.1-27.5-28.1-27.5-25.1zM225.2 175c-3 2.8-3.8 6.8-2.1 9.9 2.7 4.8 10.6 3.7 12.9-1.8 2.9-7.1-5.3-13.2-10.8-8.1zM393.5 174.2c-8.6 4.7-6.8 16.6 3.2 21 7 3.1 15.3 2.2 19.5-2 8.2-8.2-.8-20.2-15.1-20.2-3.1 0-6.5.6-7.6 1.2zM499.5 173.5c-.5.2-2.3.6-3.8 1-4.2.9-7.7 5.1-7.7 9.2 0 10.1 10.4 18.4 23 18.4 6.3.1 11.3-1.9 13-5 3.5-6.7-1.3-16.2-10.3-20.5-4.9-2.3-11.9-3.8-14.2-3.1zM301.4 176.2c-4 3.1-4.4 3.8-4.4 8.1 0 3 .7 4.5 3 6.7 4.3 4 9.1 4.6 14.5 2 5.6-2.7 7.7-7.8 5.2-12.7-3.1-6-13-8.2-18.3-4.1zM144 177.1c0 1.1.5 1.7 1 1.4.6-.3 1-1.3 1-2.1s-.4-1.4-1-1.4c-.5 0-1 .9-1 2.1zM596.4 179c-6.9 2.1-9 9.7-4.9 17.4 2.7 5 12.4 12.2 19.1 14.2 17.5 5.1 25.7-9.3 12.8-22.3-7.4-7.4-19.5-11.5-27-9.3zM185.7 185.7c-2.2 2.6-3.1 6.8-1.7 9.2 2.4 4.6 9 .8 9-5.2 0-5.4-4-7.6-7.3-4zM739 187.7c-2.3.9-3 2.4-3 6.6 0 5.5 3.4 11.3 11 19 7.5 7.4 13.4 10.6 19.6 10.7 4.5 0 5.9-1 6.9-5.3 1.1-4.4-4.3-14.4-11.3-20.9-8.4-7.7-18.4-12.1-23.2-10.1zM776.4 189.4c-2 7.9 16.8 30.6 27.6 33.4 12.1 3 7.8-11.3-7.8-26-10.2-9.6-18.4-12.7-19.8-7.4zM253.3 189.5c-3.9 1.7-6.9 7.1-5.9 10.9 1.7 6.9 10 8.9 15.8 3.7 7.9-7-.1-18.8-9.9-14.6zM438.5 189c-4 1.2-8.3 5.8-9 9.5-.8 4 3 11.3 7.3 14.2 8.3 5.5 21.3 4.5 25.2-2 1.1-1.8 2-4.9 2-6.9 0-9.2-15.2-18-25.5-14.8zM336.4 192.4c-3.9 3.9-4.5 8.6-1.9 13.6 4.6 8.9 20.7 8.4 25.1-.8 3.8-8.1-3.5-16.2-14.7-16.2-4.5 0-5.5.4-8.5 3.4zM541.3 192c-4.4 1.4-8.3 6.3-8.3 10.6 0 4.2 2.8 9.9 6.7 13.6 6.5 6.2 20.4 9.2 26.7 5.8 6.4-3.4 7.3-13.8 1.8-20.7-5.7-7.2-18.8-11.7-26.9-9.3zM694.3 191.7c-3.1.6-6.3 5-6.3 8.5 0 4.7 4.6 13.2 9.9 18.1 9 8.5 20 12.4 25.9 9.3 5.9-3.1 6.6-7.3 2.5-15.4-6.4-12.7-21.9-22.6-32-20.5zM811 194.1c0 7.2 19.6 30.8 27.8 33.3 3.5 1.1 2.9-2.9-1.5-10.2-7.8-12.8-17.8-23.3-23.6-24.7-2.3-.6-2.7-.4-2.7 1.6zM152.7 194.8c-1.8 2-2.3 6.7-.7 7.7 1.7 1 5.1-3.4 4.8-6.2-.4-3.3-2-3.9-4.1-1.5zM642.3 200.1c-9.7 2.9-9.8 15.6 0 25.8 10.9 11.3 28.8 13.6 32.7 4.1 5.6-13.6-17.3-34.6-32.7-29.9zM124.5 202c-.3.5-.1 1 .4 1 .6 0 1.1-.5 1.1-1 0-.6-.2-1-.4-1-.3 0-.8.4-1.1 1zM208.4 202c-5.2 2.1-7.2 10.2-3.4 14 2.8 2.8 5.7 2.5 9.1-.9 3.9-3.9 4-9.1.3-12-3-2.3-3-2.3-6-1.1zM836 203c0 4.1 24 34 27.3 34 .7 0 4.2 5.3 16.7 25 6.1 9.6 10.3 17 9.7 17-.2 0-2.8-3.4-5.6-7.5-5.2-7.5-6.8-9.1-7.8-8.2-1 1 7.8 19.5 13.6 28.3 9.4 14.5 12.3 15.4 7.1 2.2-1.7-4.6-3.8-9-4.6-9.9-.8-.9-1.4-2-1.2-2.5.8-2.6-9.1-20-23-40.3-9.3-13.7-12.2-17.5-22.6-29.6-6.9-8.1-9.6-10.5-9.6-8.5zM283.2 206.3c-3.1 1.8-6.2 6.6-6.2 9.7 0 3.6 3.5 8.9 6.8 10.1 7.5 2.9 17.2-3 17.2-10.6 0-5.5-4.3-9.7-10.6-10.2-3-.2-5.8.2-7.2 1zM377.4 206c-6.6 2.6-8.7 13.1-3.8 19 1.5 1.7 3.9 3.7 5.5 4.5 3.6 1.9 12.2 1.9 15.9 0 9.8-5.1 9.2-17.7-1.1-23-3-1.6-13.1-1.9-16.5-.5zM480.4 207c-3 1.2-6.2 5.6-7 9.4-.7 3.8 1.5 9.8 4.9 13.5 5.5 6 17.7 8.8 25 5.7 12.1-5.1 10-20.9-3.8-27.6-4.4-2.1-15-2.7-19.1-1zM585.3 213c-3.5 1.8-4.5 3-5.9 7.2-1.5 4.6-1.5 5.3 0 9.1 2.5 6.5 7 11.3 14.1 14.8 5.6 2.7 7.2 3.1 12.7 2.7 4.2-.2 7.2-1 9-2.3 16-11.8-11.6-40.8-29.9-31.5zM166.1 214.4c-3.4 4.1-2.9 11.6.8 11.6 4 0 7.3-6.8 5.5-11.4-.8-2-4.7-2.1-6.3-.2zM779.2 216.6c-7.5 5.2 6.6 29.8 21.4 37 12.3 6 16.3-3.1 7.6-17.5-8.8-14.6-22.7-23.9-29-19.5z"/><path d="M734 219c-2.7 2.7-3.3 6-2 11.1 1.5 5.7 4.1 10 10.7 17.6l5.4 6.2-4.8-2.1c-9.5-4.2-17.2-2.1-19.4 5.1-2 6.8 1.2 15.8 9 25.6 2.2 2.7 3.8 5.1 3.6 5.3-.1.2-2.7-.4-5.6-1.2-3.1-.9-6.7-1.4-8.6-1-3.1.6-8.3 4.7-8.3 6.6 0 .5-.4.7-.9.4-.4-.3-1.1-3.1-1.5-6.2-.9-7.9-3.5-13.3-9.1-18.9-10-9.9-23-12.4-29.8-5.7-6.6 6.7-4.1 20.5 5.6 30.3 9.7 9.7 24.5 11.9 30.6 4.5 2.3-2.7 3.1-1.8 3.1 3.6 0 5.7 3.7 14.9 8.6 21.3l2.6 3.4-6.9-.6c-10.4-.8-16.3 2.6-19.4 11.4-1.8 5.2.5 13 6.6 22.7 2.9 4.7 5.1 8.6 4.7 8.6-.4 0-2.9-.7-5.7-1.6-7.5-2.3-13.1-1.1-17.6 3.6-10.6 11.1-5.7 32.6 9.5 41.5 21.2 12.4 37-11.1 22.5-33.5-2.1-3.3-3.9-6.3-3.9-6.5 0-.2 1.2.3 2.8 1.1 3.9 2 7.3 1.7 14.8-1.2 3.7-1.5 6.9-2.3 7.3-1.8.5.5 2.1 6.1 3.6 12.4 1.5 6.3 2.9 12.3 3.2 13.2.4 1.6-.3 1.8-5.4 1.8-7.7 0-12.1 2.3-15.3 8-2.1 3.8-2.5 5.7-2.4 12 .1 8.6 2 14.5 6.7 20.6 6.9 9.1 15.9 11.7 25.4 7.5 2.3-1.1 4.4-1.7 4.7-1.3.3.3.6 3.1.6 6.2 0 10.3 4.4 20.8 11 26.3 3.6 3.1 6.4 3.3 16 1.2 3.5-.7 6.8-1.1 7.2-.9.4.3.7 4.2.7 8.9 0 13.6 2.9 21.3 9.9 26 7.4 5.1 16.1 2.4 20.3-6.2 3-6.1 3-17 .1-25.6-1-3.1-1.7-5.9-1.4-6.2.2-.2 2 .2 3.9 1 4.6 2 6.1 1.9 10.4-.4l3.6-2 .7 8.2c.4 4.5 1.3 10.9 2 14.2.7 3.3 1.2 6.3 1 6.6-.2.4-2.3 0-4.7-.9-4.1-1.5-4.6-1.5-7.8.4-8 4.5-11.2 20.1-6.9 33.4 1.9 5.8 3.1 7.8 6.8 11.1 7.8 6.8 12.8 6.2 15.9-2 1.4-3.7 1.8-7.6 1.8-19.8V507l7.3.2c9.4.3 10.9-1.1 12.4-11 1.2-8-.6-19.3-4-26.3-1.1-2.2-1.5-3.9-1-3.9s3.9 1 7.5 2.1l6.6 2.2 1.9-2.3c3.9-4.9 4.2-11.2.8-24.5-1.1-4.7-1.3-11.8-.2-11.3.4.2 1.9 1 3.5 1.7 3.8 2 7.4.2 9.4-4.7 2.3-5.5 1.2-17.1-2.7-26.9-1.6-4.3-3-8.2-3-8.7 0-.4 1.8.8 4.1 2.8 7.6 6.9 11.1 3 9.8-10.9-.8-8.2-3.3-15.6-8-24-5.2-9.3-11.1-12.1-14.5-7-3.1 4.7-1.6 15.3 4.2 29.5 1.3 3.3 2.4 6.2 2.4 6.5 0 .3-1.6-.6-3.5-2.1-3.3-2.5-5.3-2.8-10.4-1.3-1 .3-1.8-1.4-2.7-6.1-.7-3.6-2.4-9.7-3.7-13.7l-2.5-7.1 5.2.5c4.8.5 5.5.3 7-1.8 4.9-7-2-28.3-12.7-39.4-5.9-6.1-9.8-7.6-12.7-5-2.4 2.2-3.6 1.4-4.5-3.2-1-5.4-5.1-15.1-8.5-20.3-3.4-5.1-3.2-6.1.6-3.1 3.4 2.6 7.6 2.7 9.9.1 4.1-4.5-2.1-20.8-12.2-32-6.1-6.7-9.9-9.1-14.5-9.2-4-.1-5 1.7-4.3 8 .6 5.8 4.3 13.8 9.9 21.6 1.9 2.8 3.4 5.1 3.2 5.3-.1.1-2-.6-4.1-1.7-4.7-2.4-7-2.5-10.9-.5-3.4 1.8-3.9 1.5-5.5-4.5-3.1-11-13.5-24.1-21.8-27.6-5.4-2.3-10.8-1.8-13.1 1.1-2.3 2.9-2.7 2.6-3.7-3.2-1.4-8.7-12.3-21.6-22-26.2-5.8-2.7-11.8-2.8-14.5-.1zm38.9 38.6c1.4 5.4 5.1 13 9.3 19.2l2.9 4.3-2.8-.8c-3.4-.9-6.2-.9-12.9.1l-5.1.8-.7-3.3c-1.1-5.9-5.3-13.7-10.2-18.9l-4.7-5 5.8 2c7.6 2.6 9.8 2.5 13.2-.5 1.5-1.3 3.1-2.5 3.4-2.5.4 0 1.2 2.1 1.8 4.6zm44.6 47.2c1.9 4 3.5 7.4 3.5 7.5 0 .1-3 .2-6.7.2-3.8 0-7.5.4-8.5.8-1.3.7-1.7.1-2.3-3.2-.7-4-6-15.6-9.2-20-1.8-2.4-1.8-2.5.7-1.7 1.4.5 4.3 1 6.5 1.3 3.4.4 4.4 0 6.5-2.2l2.5-2.7 1.8 6.4c.9 3.5 3.3 9.6 5.2 13.6zm-53-10.2c.3 2.5 2.6 8.5 5.1 13.2 2.4 4.7 4.4 8.6 4.4 8.7h-6.7c-3.8 0-7.9.4-9.3.8-2.4.8-2.6.5-4.9-6.4-1.4-3.9-4.2-9.6-6.4-12.6-2.1-3-3.7-5.7-3.3-6 .3-.3 2.7-.2 5.3.2 5.7 1 7.9.8 11.3-1.1 3.6-1.9 3.7-1.9 4.5 3.2zm88.4 49.1c1.7 3.6 3.1 6.7 3.1 6.9 0 .2-1.7-.3-3.7-1.2-2.5-1-5.2-1.3-7.9-.9l-4.1.6-1.2-5.8c-.7-3.2-2.8-9.1-4.7-13.2-3.3-7.1-3.3-7.3-1.1-6.6 6.1 2 8.6 1.8 10.9-.8l2.3-2.6 1.7 8.5c.9 4.7 3 11.4 4.7 15.1zm-48.7-14.6c.8 5.3 3.2 12.2 5.8 16.6l1.9 3.3h-5.2c-2.9 0-6.8.3-8.8.6l-3.5.6-1.2-5.4c-.7-2.9-2.8-8.4-4.7-12.2l-3.6-6.8 5.3.6c3.6.4 6.3.1 8.3-.8 4.2-2 4.9-1.5 5.7 3.5zm-50.8 5.7c.4 3.2 2 8.6 3.6 12.1 1.7 3.5 3 6.6 3 7.1s-1.2.7-2.7.4c-4.8-.6-10.3.7-13.3 3.3-3.4 2.8-3.6 2.6-4.3-5.8-.4-4.2-1.7-7.8-4.7-13.2l-4.1-7.6 6.8.6c4.9.4 7.8.1 10.3-1 1.9-.8 3.8-1.6 4.1-1.6.4-.1.9 2.5 1.3 5.7zm85.9 30.5c.3 2.9 1.9 8.9 3.6 13.2 1.7 4.3 2.9 8 2.7 8.2-.1.2-1.7-.2-3.5-.8-1.8-.6-5.2-.9-7.6-.6l-4.3.6-.6-4.9c-.4-2.6-2-8.1-3.6-12.1-1.7-3.9-3-7.3-3-7.5 0-.2 2-.1 4.4.2 2.5.4 5.2.2 6.2-.5 4-2.2 5.1-1.4 5.7 4.2zm-47.3 2.4c0 3.2 2.7 12.3 5.4 18.5.7 1.6.2 1.8-4.3 1.8-2.9 0-6.7.6-8.6 1.4-3.8 1.6-4.5.9-4.5-4.5 0-2.4-1.8-8-5.5-17.2-.6-1.5 0-1.7 5.6-1.7 3.5 0 7.1-.5 7.9-1 2.9-1.9 4-1.1 4 2.7zm81 50.2c1.1 2.8 2 5.6 2 6.1s-1.8 0-4-1.1c-3.3-1.8-4.5-1.9-7.1-1-1.8.6-3.3 1.1-3.4 1.1-.2 0-.6-2.5-1-5.5-.3-3-1.7-8.8-3-13l-2.3-7.5 4.8.6c3.6.5 5.4.2 7.2-1l2.3-1.7 1.2 8.9c.7 4.9 2.1 11.2 3.3 14.1zm-46.4-13.2c.3 2.7 1.7 7.5 3 10.9 3.1 7.9 3.1 9.8.2 8.7-2.2-.8-8.1-.8-12.3-.1-1.7.3-2-.5-2.7-5.7-.4-3.3-1.5-8-2.3-10.4-2.3-6.8-2.1-7.4 2.3-6.8 2 .2 4.8.1 6.2-.3 4.4-1.4 4.9-1.1 5.6 3.7zm-49.7 4.1c.1 3.9 2.7 13.4 4.8 17.5l1.4 2.8-5.8-.3c-5.6-.2-11.2 1.7-12.8 4.2-1.5 2.5-2.3.4-2.7-7.3-.3-6.7-.9-9.4-3.6-15.1-1.7-3.7-3.2-7-3.2-7.2 0-.1 1.6.4 3.5 1.2 4.7 1.9 9.3 1.8 13.5-.5 3.2-1.7 3.6-1.7 4.2-.2.4.9.7 3.1.7 4.9zm80.4 32.6c.4 3.3 1.7 9.8 3 14.3 1.4 4.6 2.3 8.3 2 8.3-.3 0-1.6-.9-3-2-3.2-2.5-7.9-2.6-11.8-.2l-3 1.9-.1-8.1c0-4.5-.8-10.5-1.7-13.5-1-3-1.7-5.7-1.7-6 0-.3 3.5-.7 7.9-.7l7.8-.2.6 6.2zm-45.6 5.2c.6 4.9 2.1 10.9 3.2 13.4 1.1 2.4 1.8 4.6 1.6 4.8-.2.2-2-.1-3.9-.8-3.9-1.3-8.9-.6-12.1 1.6-3.5 2.5-4 1.7-3.7-5.2.3-5.2-.2-8.2-2.2-13.9-3.1-8.8-3.1-8.8-.7-7.5 3.1 1.6 11.6 1.3 13.1-.5 2.4-2.9 3.5-.9 4.7 8.1zM816 218.6c-4.2 5 12 30.4 23.3 36.4 5.4 2.9 7.7 2.2 7.7-2.2 0-7.6-12.2-25.3-22.2-32.2-5.9-4-7-4.3-8.8-2zM233.4 220.6c-6.1 3-8.2 10.8-4.3 15.8 1.6 2.1 2.9 2.6 6.3 2.6 4.8 0 7.8-2.4 9.6-7.7 1.5-4.1-.9-9.9-4.5-11.3-3.3-1.3-3.4-1.3-7.1.6zM131.3 224.5c-1.2 2.6-1.4 3.8-.6 4.6 2.6 2.6 6.5-2.6 4.9-6.6-.9-2.5-2.5-1.7-4.3 2zM321.5 222.5c-7.1 2.5-10.7 9.3-8.5 16 3.1 9.2 16 11.4 23.5 3.9 3-3 3.5-4.1 3.5-8.2 0-5.3-1.8-8.5-5.8-10.6-4.5-2.3-8.5-2.6-12.7-1.1zM418.9 224c-7.5 4-9.5 12.4-4.7 19.7 9.2 14 34 9 32.5-6.5-1.2-11.5-16.9-18.9-27.8-13.2z"/><path d="M684.4 224.8c-12.9 10.4 5.5 38.2 25.3 38.2 15.1 0 16.3-17.3 2.3-30.4-9.2-8.6-22.1-12.3-27.6-7.8zM525.5 226.9c-5.6 3.4-7 5.8-7 12 0 7.2 3.4 12.8 10 16.7 9.3 5.4 19 5.5 25 .3 6.8-6 6.7-14.4-.3-22.1-7.2-8-20.6-11.3-27.7-6.9zM845.5 226c-1.8 2.9 12.1 25.6 20.5 33.4 6.6 6.2 8.3 5.2 4.7-2.8-6.8-14.8-22.9-34.3-25.2-30.6zM185.1 235.4c-3.4 3.6-3.8 8.7-.9 12.1 2 2.3 3 2.7 5.2 2.1 3.1-.8 6.6-5.9 6.6-9.6 0-6.5-6.5-9.3-10.9-4.6zM631.4 234.9c-5.6 2.6-7.4 5.4-7.4 11.9 0 12.5 12.2 24.7 26 25.9 10.3 1 16-3.9 16-13.4 0-15.5-21.2-30.5-34.6-24.4zM259.9 241.9c-3.3 3.3-3.9 4.5-3.9 8.3 0 5 1.8 8.2 6 10.3 3.7 1.9 5.4 1.9 9.6-.1 3.9-1.9 7.4-7 7.4-10.8 0-6.4-5.5-11.6-12.1-11.6-2.3 0-4.1 1-7 3.9zM360.8 240.6c-11.8 3.6-14.3 17.4-4.5 24.6 3.9 2.7 4.7 2.9 11.1 2.6 6.5-.4 7-.6 10.7-4.6 8.4-8.9 3.4-21.2-9.6-23.5-1.6-.3-5.1.1-7.7.9zM463 242.8c-9.8 5.4-10.4 16.8-1.3 25.4 8.5 8.1 23.5 7.7 29.3-.9 5-7.3 2.4-17-6.1-22.9-5.5-3.8-16.4-4.6-21.9-1.6zM145.8 244c-.9.6-2.2 2.6-2.8 4.5-2.2 6.6 1.3 10.3 5.6 6 3-3 3.6-9.1 1.1-10.7-1.5-1-1.8-.9-3.9.2zM573.6 247c-3.5 1.1-7.3 4.5-9.3 8.4-3.3 6.4 1 17.7 8.9 23.5 12.2 9 26.6 7 31.2-4.2 1.9-4.5 1.9-4.9.3-10.1-2-6.2-7.4-12.4-13.8-15.6-4.7-2.4-13-3.4-17.3-2zM110 253.9c-1.5 2.8-1.2 5.1.5 5.1s3.9-4.6 2.9-6.1c-.9-1.5-2.3-1-3.4 1zM850.6 253.6c-.8 2 3.3 13.9 6.7 19.7 6.7 11.3 15.4 20.7 19.3 20.7 2.4 0 2.3-3.4 0-10.2-6.3-17.9-23.2-37.6-26-30.2zM210.9 254.5c-3 1.6-5.9 7-5.9 10.8 0 3.5 3.8 7.6 7.7 8.3 2.8.6 3.8.1 6.8-2.9 2.8-2.8 3.5-4.3 3.5-7.5 0-5.4-.7-7-4.1-8.7-3.4-1.8-4.7-1.8-8 0zM298.5 258c-3.1 1.2-7.4 6.3-8.4 9.8-1.4 4.7.6 10.8 4.2 13.4 4 2.8 12.2 3 16.1.5 6.3-4.1 8.3-12.3 4.6-18.4-3.2-5.4-10.7-7.8-16.5-5.3zM400.5 260.4c-8.4 3.8-11.8 13.2-7.6 21.3 3.1 6.2 8.1 8.8 16.6 8.8 5.9 0 7.5-.4 10.3-2.4 4.8-3.7 6.6-7 6.6-12.3 0-11.9-14.5-20.5-25.9-15.4zM510.7 262.6c-9.4 3-13.3 13.1-8.8 23 4.7 10.4 19.3 15.4 29.9 10.3 10.2-5 11.8-16.8 3.5-26-6.8-7.5-15.7-10.2-24.6-7.3zM164.7 266.1c-3.9 2.3-5.9 9.8-3.7 14 1.3 2.4 6.2 2.5 8.5.2 4-3.9 4.3-12.3.5-14.3-2.3-1.2-3-1.2-5.3.1zM620.5 269.7c-6 1.6-11.5 9-11.5 15.5 0 8.6 8.9 20.4 18.5 24.4 4.3 1.8 11.7 2 15.6.6 3.7-1.4 8.7-7.6 9.4-11.6 1.8-9.3-5.4-21-16.1-26.5-4.2-2.2-12.3-3.4-15.9-2.4zM239.4 275.9c-5.6 3.4-7.9 11.3-4.9 17.1 1.8 3.5 4.3 5 8.5 5 7.1 0 12-5.3 12-13.1 0-3.3-.6-4.7-3.4-7.5-3.9-3.9-7.5-4.4-12.2-1.5zM123.8 276.1c-2.1 1.2-4.1 7.2-3.3 9.9 1.5 4.9 7.5.4 7.5-5.6 0-3.8-1.8-5.6-4.2-4.3zM335.3 279.1c-10.6 5.2-11.5 20.3-1.5 26.1 6.7 4 18 1.1 22.1-5.5 3.2-5.2 2.9-12.6-.6-16.8-5.1-6-12.6-7.5-20-3.8zM444.4 280.9c-13.6 6.2-13.1 24.1.9 31.2 6 3.1 16.1 2.4 21.1-1.4 5.2-4 6.9-7.9 6.4-14.4-1.1-12.9-16-21-28.4-15.4zM852.7 282.7c-1.1 1-.8 9.4.4 13.8 3.1 11.2 13.1 26 19.8 29.6 3.2 1.7 3.6 1.7 5.3.2 2.3-2.1 2.3-6.5-.2-14.4-2-6.5-7.8-17.6-11.5-22-5.2-6.2-11.5-9.5-13.8-7.2zM556.2 284.7c-1.3.3-4.1 2.2-6.2 4.3-8.2 8.2-5.8 22.1 5.2 30.3 9.8 7.3 24.4 5.9 29.8-2.8 3.2-5.2 3.7-11.2 1.3-16.6-5.5-12.2-16.5-17.8-30.1-15.2zM88.2 286.2c-1.5 1.5-1.6 3.8-.2 3.8 1.2 0 2.3-2.5 1.8-4-.2-.7-.7-.7-1.6.2zM185.9 291.1c-6.4 6.9-4.2 17.9 3.7 17.9 5.4 0 8.6-3.6 9.2-10.3.4-5 .2-5.8-2.1-8.1-3.5-3.5-7.2-3.4-10.8.5zM882 292.8c0 10.5 15.8 40.2 21.4 40.2 3.8 0 .5-12.7-7.1-27.2-7-13.3-14.3-19.9-14.3-13zM273.4 296.4c-8.6 3.8-10 18.6-2.2 24 3.1 2.2 10.6 2 14.4-.3 5.7-3.5 8.1-12.8 4.9-19.1-2.8-5.5-10.4-7.5-17.1-4.6zM662.2 296.7c-5.1 2.5-7.6 6.8-8 13.9-1.5 22.9 28.7 39.9 41.2 23.1 3-4 2.7-13.2-.7-20.7-5.7-13.1-22.2-21.4-32.5-16.3zM377.5 299.4c-1.6.8-4.5 3-6.4 5-3 3.1-3.5 4.4-3.8 9.3-.5 6.7 1.3 10.4 7.1 14.8 3.3 2.5 4.2 2.7 10.6 2.3 9.6-.5 15.1-4.8 17-13.4 3-12.7-11.9-23.6-24.5-18zM139.6 303.1c-4.4 5.2-2.8 13.9 2.6 13.9 4.8 0 8.9-11.8 5.3-15.3-2.5-2.5-5-2.1-7.9 1.4zM491.5 302.2c-7.6 2.8-12.5 9.4-12.5 16.8 0 11.3 12.7 22 24.3 20.6 5.9-.6 11.9-4.3 14.8-8.9 2.9-4.7 2.3-14-1.4-19.5-5-7.7-17.2-12-25.2-9zM903 304.4c0 3.2 14.6 36.4 17.4 39.5 3 3.4 13.3 32.1 11.5 32.1-.5 0-.9-.5-.9-1 0-.6-.5-1-1.1-1-2.6 0 4.6 29.4 9.3 38.2l2.3 4.3.3-3.2c.2-1.8-.8-8.1-2.3-14-1.4-5.9-2.8-12.3-3-14.2-.8-6.1-12.5-39.3-18.7-53.1-6.8-15-12.7-26.8-13.7-27.4-.6-.4-1.1-.5-1.1-.2zM602.6 309c-4 1.2-9.3 6.6-10.7 10.8-2.3 7 .7 17.5 6.7 23.6 7.1 7 15.8 9.6 24.3 7 5.3-1.6 8.3-4.3 10.6-9.6 7-16.8-12.8-37.2-30.9-31.8zM99.5 313c-1.8 3.5-1.9 6.2-.3 7.8 3.1 3.1 7.7-5.8 4.8-9.3-1.8-2.2-2.8-1.9-4.5 1.5zM213.2 315.4c-7.4 8.5-4 20.1 6 20.1 3.3 0 4.5-.6 7.4-3.8 3-3.2 3.4-4.3 3.4-8.9 0-7-3.4-10.8-9.6-10.8-3.5 0-4.7.5-7.2 3.4zM310 318.8c-7.2 3.9-10.3 15-6 21.9 5.3 8.7 19.6 8.3 25.8-.7 4.1-6.1 2.4-16.1-3.5-20.4-3.8-2.8-11.9-3.2-16.3-.8zM420.5 321.8c-4.2 2.6-8.1 7.4-9.5 11.7-.9 2.8-.8 4.5.4 8.8 5.9 20.3 37.6 16.6 37.6-4.5 0-5.5-2.5-10.3-7.3-14.2-3.4-2.7-4.8-3.1-11-3.4-5.7-.2-7.8.1-10.2 1.6zM883.6 321.6c-3 7.9 5.2 32.2 13.9 40.9 3.8 3.7 5.4 4.2 7.3 2.3 4.3-4.3-3.9-29.9-12.9-40.2-4.2-4.7-7.2-5.8-8.3-3zM161.9 327.9c-2.4 2.5-2.9 3.8-2.9 7.8 0 6.4 2.1 9.3 6.5 9.3 4.9 0 8.5-4.6 8.5-10.9 0-8.5-6.5-11.8-12.1-6.2zM535.5 326.9c-4.8 2.2-7.9 5.4-10 10.3-2 5-1.9 9.4.6 14.8 2.7 5.9 5.3 8.6 11.4 11.8 15.6 8 32.7-3.2 29.3-19.2-3.1-14.6-18.8-23.5-31.3-17.7z"/><path d="M908.4 331.4c-2.1 5.4 12.6 42.6 16.7 42.6 4.4 0-8-37-14.2-42.6-1.7-1.6-1.9-1.6-2.5 0zM249.4 336c-3.2 1.3-7.2 6.7-8 10.6-.9 4.8 1 10.8 4.3 13.3 1.8 1.5 4 2.1 7.4 2.1 4.3 0 5.3-.4 8.8-3.9 6.4-6.4 6.4-15.2 0-20.6-3.2-2.6-8.3-3.2-12.5-1.5zM645.3 336.9c-13.3 6.1-12.1 28.5 2.2 39.3 9.9 7.5 20.6 7.3 27.7-.5 8.1-8.7 5.7-23.2-5.4-33.2-8-7.3-16.4-9.2-24.5-5.6zM116.1 339.6c-3.7 4.7-2.1 13.4 2.4 13.4 2.5 0 5.5-5.1 5.5-9.4 0-6.8-4.1-8.8-7.9-4zM353.6 340.4c-13.3 4.9-16.7 19.7-6.7 29.1 2.8 2.5 4.1 3 9.9 3.3 5.3.2 7.3-.1 9.8-1.7 9.6-6 12.4-18.8 5.6-25.6-5.4-5.5-12.3-7.3-18.6-5.1zM467 344.6c-12.8 5.5-16 21.2-6.3 31.2 4.4 4.6 8.5 6.2 15.5 6.2 7.5 0 11.9-2 16.3-7.4 2.7-3.4 3-4.5 3-11 0-6.3-.4-7.8-2.8-11.5-5.1-7.7-17.1-11.2-25.7-7.5zM77.1 347.4c-1.5 1.7-1.1 6.8.5 7.3 1.5.5 3.4-4.1 2.7-6.6-.6-2.5-1.6-2.7-3.2-.7zM193.9 350.8c-3.9.5-8 5.3-8.6 10-1.1 8 2.1 13.2 8.1 13.2 7.2 0 12.7-8.4 10.6-16.1-1.5-5.4-4.9-7.8-10.1-7.1zM585 350.9c-5.6 1.7-9.1 4.3-11.6 8.7-7.3 12.4.6 29.7 15.4 34 9.3 2.7 17.6.4 22.1-6.1 8.9-13.1.1-32.9-16.2-36.5-5.4-1.1-6.2-1.1-9.7-.1zM284 361.3c-4.9 3.2-7.4 8.1-7.4 14.2 0 15.9 21 19.6 27.6 4.8 2.3-5.2 2-10.8-.7-14.9-4.1-6.3-13.4-8.3-19.5-4.1zM908.4 362.5c-1.8 7.1 6.6 34 12.5 40.2 2.8 2.9 3.9 2.9 5.3-.2 2.4-5.2-4-27.7-11-38.3-3-4.8-5.8-5.4-6.8-1.7zM394.5 364.7c-4.6 2.4-6.6 4.5-8.6 8.8-2.4 5.1-2.4 9.9 0 15 5.5 12.2 20.5 14.6 30.9 5.1 6.9-6.2 7.7-17.9 1.8-24.5-5-5.6-17.5-7.9-24.1-4.4zM138.7 365.2c-2.1 1.7-3.7 6-3.7 10.1 0 7.8 6.6 10.3 11.5 4.5 6.3-7.5-.5-20.1-7.8-14.6zM512.5 369.4c-4.4 2-9.2 7.2-10.6 11.3-1.8 5.6-.7 14.4 2.4 19.2 5.2 7.8 15.9 11.7 25.2 9.1 5.5-1.5 11.8-8 13.6-13.8 2.3-7.8-2.1-18.1-10.1-23.7-3.5-2.4-5.4-3-10.9-3.2-4.1-.2-7.7.2-9.6 1.1zM92.6 377.2c-3 4.3-1.8 10.8 2.1 10.8 3.1 0 6-6.1 4.6-10-1.1-3.3-4.6-3.8-6.7-.8zM224 376.8c-5.4 2.7-7.5 6.4-7.5 13.3 0 5.3.3 6.2 3.2 9.1 5.8 5.8 14.4 3.8 18.5-4.3 5.6-10.9-4-23.3-14.2-18.1zM628.9 379c-8.2 2.4-13.1 9.8-13.1 19.5 0 23.6 28.7 36.8 40.7 18.6 6.2-9.2 4-21.8-5.4-31.2-7-7-14.4-9.3-22.2-6.9zM328.5 383.9c-4.7 1.2-7.2 2.8-10.2 6.8-2.4 3.1-2.8 4.6-2.8 9.8 0 5.2.4 6.7 2.8 9.8 5.4 7.1 12.5 8.6 20.6 4.2 6.7-3.7 9.1-7.7 9.1-15.3 0-5.7-.3-6.5-3.5-10.1-2.4-2.6-4.9-4.2-8-5-2.4-.6-4.5-1.1-4.7-1-.2.1-1.6.4-3.3.8zM54.6 385.5c-.3.8-.1 1.5.4 1.5.6 0 1-.7 1-1.5s-.2-1.5-.4-1.5-.6.7-1 1.5zM440.5 388.6c-13.1 6.8-15.7 23.9-5.1 33.2 10.8 9.4 29.1 4.3 33.6-9.4 2.9-8.5-1.5-18.6-9.9-23.1-5.3-2.8-14-3.1-18.6-.7zM163 394.2c-2.4 4-3.4 8.8-2.5 12 1.2 3.8 4.6 6.8 7.7 6.8 4.3 0 6.5-1.6 8.9-6.2 3.9-7.7-.3-15.8-8.3-15.8-3.3 0-4.1.5-5.8 3.2zM904.9 395.7c-3.2 9.7 2.5 32.2 10.4 41 6.7 7.5 10-5.4 5.7-22.3-4.7-18.5-13-28.1-16.1-18.7zM558.5 395.8c-6.6 3.1-11.5 11.1-11.5 18.5.1 8.7 4.9 16.8 12.5 21.3 8.8 5.1 17.6 4.1 25.1-2.8 5.7-5.3 7-9.5 5.5-17.9-1.3-7.5-4.8-13-10.9-17.3-5.5-3.9-14.6-4.7-20.7-1.8zM259.5 403c-5.8 3-7.9 6.3-8.3 13.7-.4 6.2-.4 6.4 3.6 10.3 3.5 3.5 4.5 4 8.7 4 11.4 0 18.4-11.1 13.3-20.9-4.2-8.1-10.5-10.6-17.3-7.1zM929.3 403.6c-1.9 4.9 3.9 33.5 8.1 39.8 7.3 11.2 4.9-19.1-2.8-36.1-2.5-5.4-4.2-6.6-5.3-3.7zM115.1 404.7c-4.3 3.5-4.3 14-.1 16.3 2.9 1.6 5.5-.2 7.4-5.1 2-5 1.4-9.3-1.7-11.4-2.7-1.9-3-1.9-5.6.2zM367.9 410c-4.3 2.3-8.6 7.1-9.5 10.6-1.1 4.4.2 13.3 2.3 16.2 4.9 6.6 15.9 9.2 23.2 5.4 13.3-6.7 13.9-25.7 1.1-32.2-5-2.5-12.3-2.5-17.1 0zM670.4 409.4c-4.2 1.8-8.9 7.9-10.4 13.2-3.5 12.4 5.6 30.1 17.2 33.5 10.2 2.9 18.4-.5 23-9.5 3-5.9 2.2-18.5-1.5-24.9-6.4-10.9-18.9-16.3-28.3-12.3zM70.5 414c-1.5 2.5-2.2 6.8-1.3 8.3 2 3.7 5.8.7 5.8-4.5 0-3.6-3.1-6.1-4.5-3.8zM486.5 414.4c-3.8 1.7-9 7.2-10.4 10.9-1.2 3.2-1.4 9.8-.4 14.7.4 2 2.5 5.3 5.2 8.1 18.1 18.7 47-4.5 32.7-26.1-5.1-7.7-18.5-11.4-27.1-7.6zM198.1 418.3c-6 3-8.5 10.9-5.7 18.1 2.8 7.2 10 8.8 16 3.5 6.3-5.5 5.9-16.9-.8-21-3.6-2.2-6.1-2.4-9.5-.6zM944.6 422.5c.9 8.9 5.4 31.7 6.5 33.5 1.5 2.3.3-8.3-2.8-24-2.8-14.4-4.8-19.6-3.7-9.5zM609.5 422.7c-5.4 1-6.6 1.5-9.6 4-4.6 3.9-6.9 9.6-6.9 17.4 0 21.1 23.9 33.5 37.1 19.2 8.9-9.5 8.3-23.8-1.3-33.5-5.3-5.2-13.3-8.2-19.3-7.1zM897.4 427.6c-2.8 4.2-3 16.4-.5 26.4 3.3 13 8.7 20.5 13.6 18.6 6.4-2.4 5.8-27.5-1-40.6-3.7-7.1-9.1-9.1-12.1-4.4zM297.5 428.9c-2.8 1.2-5.1 4-7 8.4-3.2 7.7-1 16.2 5.5 20.5 2.9 2 4.5 2.3 9 2 8.9-.6 14.1-5.7 14.8-14.5.5-6.5-.9-10.3-5.5-14.3-2.9-2.6-4.1-3-9.1-2.9-3.1 0-6.6.4-7.7.8zM140.8 433.7c-4 4.7-4.9 10.3-2.3 15.2 4.2 8.3 14.5 3.5 14.5-6.8 0-6.3-2.8-10.1-7.4-10.1-1.9 0-3.9.8-4.8 1.7zM418 434c-9.5 1.8-15.2 8.5-15.8 18.6-.4 5.4-.1 7 2.1 10.6 7.4 12.6 26.7 12.2 34.3-.7 8.2-14-4.5-31.6-20.6-28.5z"/><path d="M926.1 434.4c-5.2 6.3 1.5 43.2 8.1 44.4 6.5 1.2 3.4-36-3.8-43.9-2-2.3-2.8-2.4-4.3-.5zM536.2 440.3c-12.6 4.6-17.9 18.9-11.7 31.4 3.7 7.3 11.5 12.3 19.3 12.3 13 0 21.1-8.3 21.2-21.5 0-9.8-6.4-18.6-16-22-5-1.8-8.3-1.8-12.8-.2zM712.4 440.5c-6.5 2.9-11.4 11.8-11.4 20.6 0 13.9 11.4 27.8 22.8 27.9 3.7 0 9.8-2.8 12.4-5.7 8.7-9.6 7.1-28-3.4-38-6.1-5.9-13.8-7.7-20.4-4.8zM91 445.2c-2.2 2.4-2.7 8.6-1 11.9 1.4 2.6 5.5 2.4 7.4-.3 2.3-3.2 2-9.4-.4-11.8-2.5-2.5-3.4-2.5-6 .2zM230.9 447.3c-6.6 4.5-7.6 15.6-1.9 22.1 9.4 10.6 25.3-.5 21-14.7-2.7-9-11.6-12.5-19.1-7.4zM944.4 446.3c-1.1 2.8.2 21.2 2.1 30.2 1.9 9 3.1 11.9 4.7 10.9 2.5-1.6-1.3-33.9-4.7-40.4-1.2-2.3-1.4-2.3-2.1-.7zM647.5 454.9c-1.6 1-4 2.8-5.2 4-13.7 13.1-2.5 41.1 16.3 41.1 6.4 0 10-1.3 13.8-4.8 4.3-4.1 6.6-9.8 6.6-16.8 0-14.6-9.9-25.4-23.3-25.4-3.3 0-6.3.7-8.2 1.9zM48.4 455.5c-.4.8-.3 2.3.1 3.2.6 1.7.7 1.7 2 0 1.4-1.9 1-4.7-.6-4.7-.5 0-1.2.7-1.5 1.5zM340.3 455.5c-4.6 2-9.3 9.7-9.3 15.1 0 10.4 7.5 18.4 17.2 18.4 13.1 0 21.4-15.1 14.8-26.9-1.5-2.6-3.9-5-6.2-6.2-4.4-2.2-11.9-2.4-16.5-.4zM172.4 461.9c-9.1 5.5-5.9 23.1 4.2 23.1 10.5 0 14-17.7 4.5-23.3-3.7-2.2-4.9-2.1-8.7.2zM459.6 462c-8.1 4-12 10.2-12 19-.1 13.3 11.9 23 25 20.2 6.6-1.3 10.8-4.4 14.2-10.2 3.5-5.9 3.7-14.9.4-20.2-5.9-9.5-18.3-13.4-27.6-8.8zM886.1 462.6c-6.3 8-4.4 31.7 3.4 41.9 3.1 4.2 5.8 4.8 9.1 2.2 4-3.1 5.4-7.6 5.4-17.4 0-20.3-10.6-36-17.9-26.7zM953.3 467.5c0 2.2.2 3 .4 1.7.2-1.2.2-3 0-4-.3-.9-.5.1-.4 2.3zM918.8 466.1c-5.9 3.4-4.9 31.8 1.5 42.6 2.3 4 5 4.2 7.4.6 1.5-2.2 1.8-5 1.8-15.8 0-13.8-1.5-20.7-5.6-25.9-2.3-2.9-2.6-3-5.1-1.5zM582.5 469.5c-9.5 2.5-16.6 13.7-15 23.7 1.8 11.1 10 19.5 20 20.5 13.2 1.4 23.5-8.5 23.5-22.6 0-5.3-1.9-9.7-6-14.5-6.1-6.9-14-9.4-22.5-7.1zM271.3 473.9c-5 2.3-7.1 5.3-7.9 11.4-1.4 10.2 4.8 18.2 14.1 18.2 15.4 0 20.4-22.2 6.5-29.3-5.4-2.7-7.3-2.7-12.7-.3zM749.5 473.4c-6.8 2.9-10.5 10.3-10.5 20.7 0 19.8 15.9 32.9 29.1 23.9 2.4-1.6 4.7-3 5-3 .4 0 .2 1.9-.3 4.2-1.4 6.1-.3 16.1 2.6 22.3 6.5 14.3 21.9 15 28.1 1.1 3.4-7.5 3.9-12.5 2.1-19.6-2.2-8.6-5.6-14.1-10.2-16.7-6.1-3.5-10.3-3.1-15.8 1.9l-4.8 4.1.8-4.9c2.3-14.7-1.5-26.9-10.2-32.4-5.3-3.3-10.7-3.9-15.9-1.6zM116.5 476.2c-2.3 2.7-2.6 3.9-2.2 7.7.4 3.3 1.2 5.2 3.2 6.8 3.4 3 4.1 2.9 7.6-.6 4.6-4.6 3.6-13.5-1.8-16-3.4-1.6-3.8-1.5-6.8 2.1zM954.2 475.5c0 1.6.2 2.2.5 1.2.2-.9.2-2.3 0-3-.3-.6-.5.1-.5 1.8zM940.1 477.7c-3.5 6.7-1.3 34.5 3.3 40.8 1.3 1.8 1.4 1.8 2.7-.6 1.8-3.5 2.3-17.4.9-27.1-1.8-12.6-4.5-17.6-6.9-13.1zM387.8 481.2c-9 2.4-15.3 13.5-12.9 22.5 2.6 9.6 10.6 15.8 19.3 14.9 11.9-1.2 18.7-9.7 17.5-21.9-1-11-12.8-18.6-23.9-15.5zM691 484.5c-5 2.3-7.9 5.3-10.6 11-5.7 12.1 0 28.1 11.9 33.6 10.4 4.6 20.3-.1 24.7-11.8 2.4-6.4 2.5-10.3.6-16.7-4-13.3-16.3-20.7-26.6-16.1zM69.1 486.4c-1.8 2.1-1 8.7 1.2 10 1.5.9 2.1.7 3.3-.8 3.8-5.2-.5-14-4.5-9.2zM507.5 489.6c-14.8 7.7-16.8 26.9-3.8 36.9 5.4 4.1 11.7 5.3 18.3 3.6 19.3-5.1 21.7-31 3.8-40.2-4.6-2.4-14.1-2.5-18.3-.3zM206.6 491.1c-8.1 6.4-7.3 19.9 1.5 24.4 10.3 5.4 20-8.2 14.1-19.5-1.9-3.6-7.1-7-10.8-7-1.2 0-3.3.9-4.8 2.1zM953.8 491.6c-1.9 1.8.1 37.1 2.1 38.3.5.4 1.2 3.8 1.4 7.6.2 4.5.4 2.5.5-5.5.3-16.3-2.3-42.1-4-40.4zM873.2 498.6c-4.8 3.3-6.6 9-6.7 20.4 0 9.9.2 10.9 3.3 17.1 3.9 8.2 7.9 10.8 12.3 8.2 6.4-3.8 9.5-18.8 6.5-31.4-3.1-13.4-9-18.8-15.4-14.3zM623.1 500.3c-12 6.1-15.4 23.6-6.8 34.9 10.6 13.8 29.5 10.5 35.8-6.1 6.9-18.4-12.2-37.4-29-28.8zM315.7 500.4c-7.4 2.7-10.7 7.6-10.7 15.8 0 9.4 4.7 15.3 13.6 16.9 4.1.8 5.5.6 9.3-1.3 2.5-1.3 5.4-3.5 6.4-5 2.4-3.3 3.3-11.4 1.8-16-1.4-4.2-6.5-9.2-11-10.7-4.2-1.4-4.7-1.3-9.4.3zM906.7 500.8c-7.3 8.1-6.8 36.1.8 43.2 3.4 3.1 5.7 2.2 8.5-3.5 2.2-4.4 2.5-6.3 2.5-16 0-11.8-1.8-19.3-5.6-23.3-2.4-2.7-4.1-2.8-6.2-.4zM149.2 504.5c-4.2 1.8-5.5 4.8-5 11.3.4 4.5 1 6 3.2 7.9 6 5.2 13.6.4 13.6-8.6 0-8.6-5.3-13.3-11.8-10.6zM932.2 508.2c-4.9 6.1-5 32.7-.1 40.8 1.9 3.1 2.1 3.1 3.9 1.5 2.5-2.2 4-9.7 4-19.4 0-15.5-4-27.4-7.8-22.9zM431 510.3c-2.4 1.2-5.7 4-7.4 6-6.3 7.9-4 21.5 4.8 27.9 5.7 4.1 10.9 5.3 16.4 3.7 18.5-5.2 20.5-31 3-38.4-5.4-2.2-11.7-1.9-16.8.8z"/><path d="M729.3 515.1c-7.4 2.1-13.2 11.6-13.3 21.4 0 7.9 1.4 12.5 5.3 17.7 4.4 5.8 8.9 8 15.2 7.5 6.6-.4 10.8-3.6 14.3-10.7 6.8-13.9.4-32.3-12.5-35.9-4.4-1.2-4.7-1.2-9 0zM94.6 517.2c-2.3 3.3-2.1 9.9.4 12.6 1.2 1.2 2.7 2.2 3.5 2.2 2.2 0 5.5-5 5.5-8.5 0-3.8-3.3-8.5-6-8.5-1 0-2.6 1-3.4 2.2zM555.8 517.4c-9.1 3.3-14.3 10.7-14.3 20.6 0 8.1 3 14 9.3 18.5 3.9 2.7 5.2 3 11.7 3 6.5 0 7.8-.3 11.6-3 11.9-8.3 12.5-28 1.1-35.8-7-4.9-12.4-5.8-19.4-3.3zM247 518.7c-2.8 1-7 5.6-8.1 9-3 9.1 4.1 20.3 12.9 20.3 14.1 0 18.4-20.4 6-28-3.2-1.9-7.6-2.4-10.8-1.3zM949 520.9c-1.5 2.9-2.5 26.8-1.3 34 1 6.6 2.9 7.7 4 2.4 1.2-6.1 1-34.5-.3-36.7-1.1-1.9-1.2-1.8-2.4.3zM49 529.4c0 2.9 1.9 4.4 3.1 2.5 1.3-2 .6-4.3-1.4-4.7-1.2-.3-1.7.3-1.7 2.2zM359.7 528.4c-5 1.8-7.2 3.9-9.8 9.3-2.7 5.7-2.1 12.9 1.6 18.4 10.3 15.7 35.5 5.2 31.4-13.1-2.6-11.6-13.2-18.3-23.2-14.6zM666 528.7c-3.7 1.5-7.8 5.6-10 10-5.1 10.2-2.3 23.7 6.3 30.7 3.6 2.8 4.5 3.1 11.2 3.1 6.7 0 7.6-.3 11.1-3.1 5.9-4.8 8.4-10.3 8.4-18.9 0-8.5-2.5-14.1-8.3-18.9-3.3-2.6-4.7-3.1-10.5-3.3-3.7-.1-7.4 0-8.2.4zM182.3 535.2c-2.6 1.2-5.3 6.5-5.3 10.2 0 4.4 2.7 9.4 6.2 11.6 3.9 2.4 5.9 2.5 9.7.5 3.8-1.9 5.5-6.3 4.9-12.6-.9-8.9-8-13.3-15.5-9.7zM856.1 536.1c-5.1 3.1-7.4 9-7.9 19.9-.5 12.1.8 17.3 5.8 22.2 4.3 4.3 6.6 4.7 10.4 1.7 4.8-3.7 6.9-9.4 7.4-19.5.9-18.5-6.5-29.9-15.7-24.3zM892.1 536.9c-7.1 7.1-9.1 26.3-3.9 38.3 2.6 6 5 7.6 8.4 5.4 4.8-3.2 6.8-9 7.2-21.7.4-10.3.2-12.1-1.8-16.8-3.1-7.1-6.3-8.8-9.9-5.2zM479.8 537.4c-4.1 1.8-8.8 6.6-10.9 11.1-7.3 15.7 8.6 32.9 25.2 27.4 8.8-3 14.2-10.8 14-20.6-.1-11.4-8.4-19.4-20.1-19.2-3 0-6.7.6-8.2 1.3zM810.4 541.2c-5.6 4.9-7.8 10.7-7.7 20.3 0 14.1 5.9 23.5 14.8 23.5 3.5 0 4.8-.6 7.4-3.2 8.5-8.7 9.6-29 2-38.6-4.8-6.2-10.9-6.9-16.5-2zM919.1 543.1c-4.2 6.9-5.2 29-1.6 37.5 3 7.2 8.3 2.2 10.6-10.2 1.4-7.5.6-21.7-1.4-26.7-2-4.7-5-5-7.6-.6zM599.8 546c-4.5 1.3-8.6 4.9-11.5 9.7-2.2 3.7-2.7 5.9-2.7 11.2-.1 8.2 2.8 13.8 9.2 18.1 5.8 3.8 10.6 4.5 16.8 2.5 9.3-3.2 14.7-10.8 14.7-21 0-14.9-12.6-24.7-26.5-20.5zM124.9 549c-2.8 2.8-3.1 3.6-2.6 7.6 1.1 10.3 11.3 13 14.1 3.7 1.6-5.1-1.7-12.4-6.2-13.8-1.7-.5-3 .1-5.3 2.5zM285.6 549.2c-8 6-7.1 21.2 1.6 26.6 5.2 3.2 8.4 3.6 13.4 1.7 11.7-4.4 12.8-21.3 1.8-28.5-4.1-2.8-12.9-2.7-16.8.2zM758.1 550.5c-5.8 5.2-8.4 12.2-7.9 20.9.7 13.1 7.3 21.6 16.5 21.6 5.6 0 9.3-2.1 12.6-7.2 7.6-11.7 5.2-30.9-4.6-36.9-2-1.2-5-1.9-7.9-1.9-4.1 0-5.4.5-8.7 3.5zM956.4 557c0 5.8.1 8.1.3 5.2.2-2.8.2-7.6 0-10.5-.2-2.8-.3-.5-.3 5.3zM940.7 551.1c-2.4 3.6-4 14.3-4.1 25.9 0 11.3 1.3 16.1 3.9 14 3-2.5 5.7-23 4.4-33.2-1-8.4-2.1-10-4.2-6.7zM403.2 557.7c-9.4 4.6-12.4 15.8-7 26.5 5.8 11.6 23.8 12.6 31.4 1.7 5.3-7.6 4.1-18.2-2.8-24.6-5.5-5.1-15.2-6.8-21.6-3.6zM75.2 559.2c-1.9 1.9-1.5 8.2.7 10.2 3.5 3.2 7-.7 5.6-6.2-1.2-4.9-3.8-6.5-6.3-4zM702.7 560.1c-5 2.6-9.3 8.9-10.7 15.3-2.6 12.6 5 26.2 15.4 27.3 6 .7 8.9-.1 13.1-3.9 4.9-4.3 7.7-10.1 8.2-17.3.4-5.3.1-6.7-2.9-12.5-2.5-4.9-4.3-7-7.3-8.7-5-2.8-10.8-2.9-15.8-.2zM222.4 564c-2.8 1.1-6.1 5.4-6.9 9-1 4.4 1.1 10.2 5 14 3.2 3.1 4.3 3.5 8.6 3.5s5.4-.4 7.4-2.8c5.1-5.8 4.5-15-1.5-20.9-3.9-3.9-7.7-4.8-12.6-2.8zM525.5 565.4c-4.4 1.9-10.2 8.9-11.5 13.8-2.2 8.1 1.2 17.9 7.8 22.3 13.6 9 32.2-1.2 32.2-17.7 0-5.7-2.5-12.2-5.6-15-5.1-4.5-16.5-6.2-22.9-3.4zM951.1 570.9c-1.6 8.4-3.2 27-2.4 29.9.9 3.6 2.2.7 3-6.8.3-3.4 1.2-6.8 2-7.5 1.5-1.6 1.8-5.5.3-5.5-.6 0-.7-3.1-.3-8 .7-9.6-.9-10.9-2.6-2.1zM874.7 573.1c-.9.6-2.9 3.3-4.4 6.2-2.2 4.3-2.8 6.9-3.1 14.7-.6 14.1 2.4 22.2 8.2 22.2 6.5 0 11.6-10.8 11.6-24.6-.1-14.9-5.2-22.6-12.3-18.5zM643.1 574c-4.4 1.1-7.9 3.8-11.6 8.9-2.7 3.9-3 5-3 12.5 0 7.3.3 8.7 2.8 12.4 3.4 5.3 9 8.2 15.7 8.2 6.2 0 9.7-1.7 14.3-7 13.2-15.4.6-39.6-18.2-35zM834.6 576.1c-7.1 6.2-10.1 23.8-5.7 33.4 2.5 5.7 7.6 9.8 11 9 7.1-1.7 12.3-11.6 12.3-23.4 0-9.2-1.5-14.9-5.3-19-3.7-4.1-7.7-4.1-12.3 0zM332 577.2c-5.8 3-8.3 7.3-8.2 14.3.1 13.5 12.3 22 23.7 16.5 6.1-3 8.9-8.2 8.3-15.6-1.1-12.8-13.3-20.6-23.8-15.2zM904.2 578.2c-4.9 8-7 27.5-3.9 35.1 3.5 8.2 8.3 6 11.8-5.4 1.7-5.8 2-8.8 1.7-17.7-.4-11.6-1.7-15.2-5.5-15.2-1.3 0-2.9 1.2-4.1 3.2zM161.4 578c-3.5 1.4-5.4 5-5.4 10.3 0 4.2.5 5.4 3.4 8.3 4.5 4.5 8.4 4.6 12 .3 4.7-5.6 2.1-16.5-4.5-18.8-1.8-.6-3.2-1.1-3.3-1-.1 0-1.1.4-2.2.9zM790.3 581c-15.3 9.3-12.4 43 3.7 43 8.7 0 15.2-9.2 15.8-22.2.4-6.6 0-8.5-2.1-13.2-4.1-8.8-10.7-11.7-17.4-7.6zM928.2 583.4c-2.9 3.7-4.7 13.8-4.7 26.3 0 12.7 1.2 15.6 4.6 11.5 3.2-4 5.1-12.1 5.6-24.3.7-14.8-1-19.1-5.5-13.5zM450.5 586.1c-4.7 2.2-9.1 8.3-10 13.9-2.5 15 13.7 26.7 27.5 19.7 8.3-4.1 12.7-14 10-22.2-1.6-4.7-6.6-10.4-10.7-12.1-4.6-2-12.1-1.6-16.8.7zM739.5 589.2c-4.4 1.5-10.2 7.5-12.1 12.4-2.5 6.7-1.6 17.9 1.9 23.2 3.7 5.7 7.1 7.7 12.8 7.6 8-.1 14.4-6.9 17-18.1 2.2-9.5-2.7-20.8-10.6-24.4-4.5-2.1-4.9-2.1-9-.7zM104.4 592.5c-3.1 4.8.2 13.5 5.1 13.5 4.6 0 7-6.3 4.3-11.3-2.7-5.1-6.9-6.1-9.4-2.2zM572.8 592.4c-5.7 2.1-8.5 4.2-11.6 8.8-2.3 3.6-2.7 5.2-2.7 11.3 0 6.3.4 7.7 2.9 11.3 7.1 10.4 22.1 11.1 30.5 1.5 4.7-5.3 6.6-10.9 5.7-17.2-1.6-11.9-14-19.8-24.8-15.7zM263.4 594c-2.8 1.1-6.1 5.4-6.9 9-1.6 7.4 4.6 17.2 12.1 18.8 8.2 1.8 14.2-2.6 15.1-11.1.7-5.9-2.5-12.8-7.1-15.7-3.5-2.1-9.4-2.6-13.2-1zM942.9 595.7c-2.3 6.2-4 15.4-4.6 25.5-.8 14.9 1.2 14.6 5.2-.7 2.1-7.8 3.2-27.5 1.6-27.5-.6 0-1.6 1.2-2.2 2.7zM57.8 601.8c-.6 2.7.2 5.2 1.8 5.2.9 0 1.4-1.1 1.4-2.9 0-3.2-2.6-5-3.2-2.3zM674.8 605.3c-11.4 8.6-12 27.1-1 35.5 2.9 2.2 4.6 2.7 9.2 2.7 7.7 0 12.8-3.4 16.5-10.9 2.3-4.8 2.7-6.5 2.3-12.5-.6-11.4-7-18.1-17.2-18.1-4.6 0-6.1.5-9.8 3.3zM379.8 605.2c-7.6 2.1-12.9 11.8-10.8 19.8 3.1 11.4 15.7 17.3 25.4 11.7 6.3-3.6 8.1-6.8 8.1-14.6 0-5.9-.4-7.2-2.8-10.4-4.7-6.2-12.3-8.7-19.9-6.5zM196.9 610.6c-2 2.1-2.4 3.6-2.4 8.5.1 5.4.4 6.2 3.6 9.4 4.8 4.9 9.5 5.6 13.6 2.1 4.3-3.6 5.2-9.1 2.4-14.9-3.7-7.6-12.4-10.2-17.2-5.1zM855.2 609.5c-5.9 4.2-9.8 16.6-8.8 27.7.9 9.9 3.9 14.8 9.1 14.8 2.9 0 8.5-7.1 10.2-13 1.9-6.4 2.1-19.2.4-23.5-1.6-3.8-5-7.5-7.1-7.5-.8 0-2.5.7-3.8 1.5zM887.8 611.5c-3.7 3.4-6.8 12.5-7.5 22-.7 10.1.8 16.1 4.4 17.8 2.3 1 2.8.8 5.4-2 7.9-9 9.6-36.9 2.4-39.7-.9-.3-1.7-.6-1.8-.6-.1 0-1.4 1.1-2.9 2.5zM949.7 610.7c-3 10.3-7 37.5-4.7 32.4 1.2-2.7 6.2-33.2 5.6-33.8-.2-.3-.7.4-.9 1.4zM499.7 612.3c-11.5 3.6-17.1 16.2-11.7 26.7 3.2 6.2 8.1 9.3 15.6 9.8 5.5.4 6.9.1 10.8-2.2 10.5-6.1 13.3-19.9 5.9-28.7-5.1-6-12.6-8-20.6-5.6zM813 615.6c-5.8 4.9-7.5 9.7-7.5 20.9 0 11.4 1.5 15.4 6.6 18 5.7 3 12-.8 15.8-9.5 8.1-18.7-2.5-39.7-14.9-29.4zM913.6 616.2c-5.4 8.3-8.9 26.5-6.7 34.6.9 3.2 1.7 4.2 2.9 4 2.4-.5 6-6.3 7.9-12.7 2.1-7.2 2.4-24.1.4-26.4-1.8-2.3-2.8-2.1-4.5.5zM616.2 618.9c-4.8 1.2-10.3 6-13 11.2-4.5 8.5-1.5 21.1 6.1 25.8 7.7 4.7 16.4 3.5 23.1-3.2 14.4-14.5 2.9-38.5-16.2-33.8zM766.4 621.9c-9.5 5.8-13.2 21.7-7.5 32.8 2.5 4.9 5.9 7.3 10.7 7.3 14.8 0 22.2-26.5 10.8-38.6-2.5-2.7-3.9-3.4-7-3.4-2.2 0-5.3.9-7 1.9zM139 624c-5.1 5.1-.1 17 7.2 17 5.3 0 7.5-8.5 3.8-14.5-2.9-4.7-7.7-5.8-11-2.5zM307.4 624c-7.8 3.9-9.8 14.9-4 22.5 3.6 4.7 7.4 6.5 13.7 6.5 4.5 0 5.5-.4 8.4-3.3 4-4 5-7.1 4.1-13-1.1-7.5-8.9-14.7-15.8-14.7-1.3 0-4.2.9-6.4 2zM931.7 623.7c-3.4 3.8-7.7 21.9-7.7 32.5 0 5.9 1.3 6.7 3.8 2.6 4.1-6.7 8.4-29.7 6.5-34.6-.9-2.2-.9-2.3-2.6-.5zM712.5 632.5c-7.8 4.2-11.4 10.6-11.5 20.3 0 7.3 1.7 11.5 6.1 15.8 2.6 2.5 3.8 2.9 8.9 2.9 7 0 10.1-1.9 14.5-9 2.6-4.2 3-5.8 3-11.9-.1-11.6-5-18.4-13.9-19.3-2.6-.2-5.2.2-7.1 1.2zM423.2 634c-8.7 5.3-10.7 17.9-4 25.6 4.2 4.8 7.7 6.4 13.9 6.4 8.5 0 15.9-5.7 17.5-13.6 1.3-6.6-3.3-15.7-9.7-18.9-4.2-2.2-13.7-1.9-17.7.5zM86.9 635.3c-1.6 3.6.7 8.1 4.3 8.5 2.2.3 2.9-.2 3.4-2.2 1.5-6-5.3-11.6-7.7-6.3zM939.3 642c-2.7 7.7-6.6 26.3-6.1 28.8 1.1 4.9 9.2-25.1 8.6-31.8-.3-3.4-.4-3.3-2.5 3zM545.2 638.2c-5.8 1.3-12.6 7.8-14.1 13.5-2.1 7.8.7 15.9 7.2 20.7 2.3 1.7 4.3 2.1 10.1 2.1 9.4 0 14.6-3.1 18.2-10.8 2.8-6.1 3-9.4.9-14.5-3.9-9.1-12.2-13.3-22.3-11zM238.9 640.8c-8.6 7.7-1.3 24.2 10.8 24.2 2.2 0 4.4-1 6.5-2.9 3-2.6 3.3-3.5 3.3-8.4 0-6.2-1.9-9.7-7.5-13.5-4.6-3.1-9.2-2.9-13.1.6zM870.8 645.1c-2.9 1.6-7.8 9.9-9.3 15.7-2.9 11.1-1 23.1 3.8 24 8.3 1.6 17.2-28.2 11.3-37.6-1.3-2.1-4.1-3.1-5.8-2.1zM651.5 647.6c-4.7 2.4-6.6 4.5-9.1 9.9-3.1 6.4-3.1 12.7-.1 18.5 2.8 5.6 6.3 8.1 12.1 8.7 11.3 1.3 20.8-8.2 20.8-20.7 0-6.1-1.6-10.2-5.4-13.7-4.7-4.4-12.8-5.6-18.3-2.7zM835.5 647c-7.8 3-13.5 20.1-10.6 31.7 1.6 6.1 3.6 8.3 7.6 8.3 7 0 13.5-11.9 13.5-24.9 0-11-4.4-17.4-10.5-15.1zM896.3 649.2c-5 5.3-8.7 18.8-8.1 29.7.2 4.9.7 6.7 2.1 7.5 4.5 2.7 11.1-11.6 12.2-26.2.8-10.9-1.9-15.7-6.2-11zM355.8 651c-9.5 2.7-13.3 12.1-8.8 21.4 5.3 10.9 21.3 12.7 27.1 3.2 2.1-3.5 2.5-11.5.8-14.9-3.8-7.3-12.3-11.6-19.1-9.7zM790.3 654.1c-6.5 4.1-10.6 17.4-8.3 26.9 3.5 14.6 15.3 14.9 22.1.6 4.6-9.6 4-21.7-1.3-27.4-2.7-2.8-8.2-2.9-12.5-.1zM179.3 654.2c-7.6 3.8-3 18.5 6.4 20.4 2.6.5 3.7.1 5.7-1.9 2.9-3 3.4-7 1.2-12-2.5-6-8.5-8.9-13.3-6.5zM915.5 656.6c-4.3 6.7-9.6 29.3-8 34.4 2.5 7.8 11.5-14.2 11.8-28.8.2-8.3-.9-10-3.8-5.6zM470.4 659.9c-16.3 7.4-11.3 31 7 32.8 7 .7 13.1-2.6 16.3-8.7 8.2-15.4-7.2-31.4-23.3-24.1zM742.5 661.8c-7.2 4.6-10.5 11-10.5 20.2 0 15.5 11.9 23 21.8 13.7 8.5-7.9 9.4-25.4 1.8-32.6-3.3-3.1-9.3-3.7-13.1-1.3zM590.5 663.5c-.5.2-2.2.6-3.7.9-3.7.8-8.5 5.1-11 9.9-2.6 5.2-2.2 14.3.9 18.5 3.5 4.7 8.1 7.2 13.5 7.2 17.2 0 26.6-19 15.7-31.5-3.7-4.2-10.9-6.5-15.4-5zM122.2 666.2c-2 2-1.4 8.2 1.1 11 2.9 3.3 5.3 4 7.2 2.2 3.1-3.2 1.2-11.3-3.2-13.3-3-1.4-3.6-1.4-5.1.1zM927.2 667.7c-4.4 11.6-8.2 25.5-8.2 29.7 0 2.7.2 2.8 1.4 1.6 2.1-2.1 7.2-16.5 9-25.4 1.9-9.1 1.9-8.6.2-8.6-.7 0-1.8 1.2-2.4 2.7zM283.4 669.7c-9.6 8-2.8 25.3 9.9 25.3 7.5 0 11.7-4.4 11.7-12.1 0-4.6-1.7-8.4-5.4-11.8-3.5-3.3-13-4.1-16.2-1.4zM686.5 675.4c-1.7.7-4.4 2.9-6.1 4.8-8.6 9.8-5.9 25.8 5.2 30.4 9.9 4.2 21.7-6.5 21.7-19.6 0-13-9.8-20.4-20.8-15.6zM74.2 677.6c.1.9.9 1.9 1.6 2.2.9.3 1.3-.2 1-1.4-.1-.9-.9-1.9-1.6-2.2-.9-.3-1.3.2-1 1.4zM398.5 678.9c-6.9 4.2-9.2 12.7-5.3 20 2.8 5.5 6.2 8.1 11.8 9.1 12.2 2.2 22-8.8 17.5-19.6-1.9-4.5-4.9-8-8.7-10-3.9-2-11.7-1.8-15.3.5zM934.4 679.4c-.7.7-1.9 2.6-2.7 4.2-1.7 3.3-8.8 25.6-8.3 26.1.3.4 5.9-12.7 7.1-16.7.4-1.4 1.8-5.1 3.2-8.4 2.5-6 2.7-7.3.7-5.2zM846 684c-1.6 1.7-3.9 5.7-5.1 8.8-4.2 10.8-2.6 26.2 2.7 26.2 6.1 0 12.6-12 13.1-24.5.5-9.4-.8-12.8-5-13.3-2.1-.3-3.5.5-5.7 2.8zM875.7 684c-7.1 8.4-10.9 30.1-6 34.2 2.3 1.9 8.6-5.6 11.2-13.5 5.6-16.8 2.3-29.7-5.2-20.7zM516.7 684.4c-7.6 2.8-11.7 8.6-11.7 16.3.1 16.9 21.3 23.3 31.7 9.6 2.4-3.1 2.8-4.6 2.8-10.2 0-5.2-.5-7.3-2.2-9.7-4.1-5.8-13.7-8.5-20.6-6zM219.2 686.3c-3.4 3.6-3.1 10.7.8 15 5.3 6.1 11.6 7.1 16 2.7 2.1-2.1 2.6-7.2 1.1-11.2-.5-1.3-2.4-3.8-4.2-5.6-4.2-4.1-10.3-4.5-13.7-.9zM809.1 686.9c-8.4 7.8-10.5 26-4 33 6.8 7.3 17.9-6.4 17.9-22.1 0-3-.5-6.9-1.1-8.7-2-5.8-7.9-6.8-12.8-2.2zM897.5 688.3c-6 9.3-11.2 33.7-7.2 33.7 4.8 0 12.7-19.6 12.7-31.5 0-3.8-.3-4.5-2-4.5-1.1 0-2.6 1.1-3.5 2.3zM622.8 691.9c-11.3 7.2-12 24.7-1.2 30.8 12 6.9 27.4-4 26.2-18.4-1.1-13-13.9-19.4-25-12.4zM767.3 692c-4.4 2.7-8.1 8.5-9.3 15-3.8 20.1 13.1 28.2 22.2 10.5 3.2-6.1 3.6-15.3.9-20.8-3.2-6.6-8-8.3-13.8-4.7zM912.2 697c-1.2 1.9-3.2 6-4.3 9-2.8 7.2-6.4 21.8-5.6 22.6 1.2 1.3 3.1-1.1 6.2-8 4.3-9.3 6.7-18.2 6.3-23.1l-.3-4-2.3 3.5zM330.3 696.6c-3.2 1.6-6.3 6.6-6.3 10.3 0 4.3 3.2 9.9 7.2 12.7 7.6 5.3 17.3 3.2 20.5-4.3 5-12.1-9.3-24.6-21.4-18.7zM160.5 699.3c-3 4.6 1 12.8 7.1 14.3 4 1 5.9-.7 6.2-5.5.4-6-3.4-11.1-8.3-11.1-2.5 0-3.9.6-5 2.3zM717.1 703.1c-7.2 4.4-10.7 11.7-9.8 20.4 1.9 18.9 23.5 17.5 27.7-1.8 3.1-14.7-7-25.3-17.9-18.6zM442.9 705.4c-3.9 2.6-6.9 7.9-6.9 11.8 0 3.4 4 10.9 7.1 13.1 1.5 1.1 4.6 2.3 6.9 2.7 6.3 1.2 11-.3 15.3-4.9 3.4-3.7 3.7-4.5 3.7-9.6 0-5.3-.3-5.9-4.4-10.3-4.3-4.5-4.6-4.6-11.2-5-6.1-.3-7.3 0-10.5 2.2zM920.2 707.2c-2.4 3-12.7 30.6-11.8 31.6 1.1 1.1 10.7-21 12.4-28.6 1.1-4.5 1-4.9-.6-3zM108.7 707.7c-1.4 1.3-.7 6 1.1 7.6 3 2.7 5.2 2.2 5.2-1.3 0-3.8-4.4-8.3-6.3-6.3zM557.5 709c-10.3 5.1-13 19.3-5.1 26.9 8.6 8.3 23.9 4.8 28.2-6.5 5.6-14.7-8.9-27.5-23.1-20.4zM266.3 713.1c-3.5 1-6.3 5.1-6.3 9.1 0 3.7 4.2 9.9 8 11.9 10.5 5.6 19.3-2.7 14.1-13.3-3.1-6.4-9.4-9.5-15.8-7.7zM660.5 716.2c-9.2 5.1-13.1 16.8-8.6 25.6 2.4 4.6 6.7 7.2 12.1 7.2 5.4 0 9.4-2.2 13-7.1 5.6-7.8 5-18.1-1.5-23.8-2.9-2.5-4.4-3.1-8.3-3.1-2.6 0-5.6.6-6.7 1.2zM825 717.6c-5 4.3-8.1 11.6-8.7 20.3-.5 8.5.9 12.4 4.4 12.9 3.6.5 7.1-2.6 10.3-9.2 5-10.3 5-22.9 0-25.6-2.5-1.3-2.4-1.4-6 1.6zM854.1 718.7c-3.9 4.7-7 12.8-7.8 20.3-.7 6.9.1 10.5 2.3 11.4 3.3 1.3 9.7-7.2 12-15.9 1.4-5.2 1.8-15.2.8-17.9-1-2.7-4.1-1.8-7.3 2.1zM879 719c-3.7 3.7-8 14.3-9.9 24.3-1.8 9.6.9 11.4 6.2 4.1 5-6.8 9.8-23.4 8.2-28.4-.8-2.5-2-2.5-4.5 0zM787.8 721.8c-6.1 4-9.8 11.9-9.8 20.9 0 12.2 7.4 16.4 15 8.4 7.2-7.5 9-23.2 3.5-28.7-2.9-2.9-5.1-3-8.7-.6zM376.5 722.4c-5.9 2.6-8.4 9.3-5.9 15.5 3.3 8.4 11.8 12.6 19.8 9.9 5.4-1.8 8.1-5.7 8.1-11.8 0-5.2-1.9-8.7-6.7-12.3-3.3-2.5-11.3-3.2-15.3-1.3zM895.2 725.2c-4.7 5.9-11.6 25.2-11 30.7.3 2.5.4 2.5 3.5-1.7 3.8-5.2 9.2-18.9 10-25.5.6-4.7-.4-6-2.5-3.5zM918.5 725.1c-.4.6-.5 1.2-.2 1.5.2.3.7-.2 1-1.1.7-1.7.1-2-.8-.4zM205 727.2c-3 1.1-4 2.5-4 6.1 0 6 5 11.7 10.3 11.7 4.1 0 6.5-1.6 7.2-4.9 1.5-6.9-7.2-15.3-13.5-12.9zM489.2 728.6c-8.9 4.6-10.8 16.4-3.9 23.8 6.5 6.8 16.1 6.9 23.4.2 3.1-2.8 3.7-4 4.1-8.8.5-6.4-1.2-10.5-5.8-13.8-4.2-3-13.3-3.7-17.8-1.4zM740.2 732.9c-4.5 4.4-6.2 8.9-6.2 16.4 0 13.3 9.9 18 18.3 8.8 4.5-4.9 6-9.9 5.5-17.2-.3-4.8-1-6.5-3.3-8.9-4.3-4.5-9-4.2-14.3.9zM599.7 732.4c-9.9 3.6-14.4 14.1-10.1 23.2 3.3 6.8 13.8 9.8 21.3 6 10.6-5.5 12.2-21.9 2.7-28.1-3.5-2.3-9.4-2.8-13.9-1.1zM902.4 738.5c-1.6 2.7-4.6 9.2-6.6 14.3-6.3 15.5-4.3 16.6 3 1.7 7-14.3 9.8-26.5 3.6-16zM146.8 740.4c-2.3 5.3 6 13.2 9.8 9.4 2.1-2.1 1.2-6.1-2.1-9.4-3.1-3.1-6.2-3.1-7.7 0zM313.3 738.9c-3.2.9-7.2 4.7-7.9 7.6-.9 3.6 3.3 11.5 7.3 13.8 1.8 1 5.4 1.9 7.9 1.9 11.8.2 13.9-15.1 2.8-21.3-3.7-2.1-7.3-2.8-10.1-2zM692.1 741.7c-5.2 2.6-9.1 9.5-9.1 16.1 0 17.6 16.9 20.8 25.2 4.8 1.6-3.1 1.9-5.3 1.6-9.9-.4-5.4-.8-6.3-4.1-9.3-4.2-3.9-8.2-4.4-13.6-1.7zM423 746.3c-9.3 3.2-10.8 16.1-2.5 22.9 5.2 4.2 15 4.3 19.7.1 7.1-6.3 4.6-18.2-4.6-22.4-4.7-2.1-7.7-2.3-12.6-.6zM831.6 752.2c-7.4 8.6-10.2 28.8-4 28.8 4 0 10.7-11.2 12.5-21.1 2.1-11.8-1.9-15.4-8.5-7.7zM857.8 751.5c-7.1 7.1-13.5 30.5-8.4 30.5 4.9 0 14.3-20.5 13.4-29.3-.4-4-1.9-4.3-5-1.2zM533.5 750.9c-5 2.3-9.5 9.1-9.5 14.6 0 3.8 2.5 8 6.6 11.2 7.6 5.7 19.1 2.7 23.4-6.2 2.8-5.8 1.9-10.6-3-15.9-3.4-3.6-4.2-4-9.6-4.3-3.2-.1-6.8.1-7.9.6zM803.3 751c-4.7 1.9-10.3 14-10.3 22.2 0 4.8 2.4 9.8 4.8 9.8 6.3 0 12.9-10 13.8-21 .8-9.8-2.1-13.6-8.3-11zM899.5 761.8c-6.9 13.8-7.2 14.3-5 11.7 2-2.4 11.8-22.5 11.3-23.1-.3-.2-3.1 4.9-6.3 11.4zM876.4 754.6C870 761 860.9 785 864.8 785c3.9 0 14.8-23 14-29.6l-.3-2.9-2.1 2.1zM248.2 755c-8.2 3.4-3.1 17 7 18.7 4.2.6 8.8-2.7 8.8-6.3 0-8.5-8.7-15.3-15.8-12.4zM636 755.7c-9.2 3.5-13.9 16-9 24 2.2 3.6 6.6 6.3 10.5 6.3 3.1 0 9.3-2.5 11.8-4.8 7.3-6.6 6.2-21.4-1.8-25-2.7-1.2-8.8-1.5-11.5-.5zM765.4 757.4c-6.2 2.7-10.4 10.9-10.4 20.2 0 4.5.5 5.9 2.8 8.5 2.4 2.7 3.3 3.1 5.7 2.5 10.3-2.6 16.3-22.9 9-30.2-2.8-2.8-2.9-2.8-7.1-1zM884.9 765.2c-3.2 5.2-10.6 21-11.4 24.2-.6 2.6-.5 2.8 1 1.6 3-2.5 11.7-19.1 14-26.8 1-3.3-1.2-2.7-3.6 1zM358.4 764.2c-8.8 2.3-9.5 14-1.3 20.1 5.7 4.1 16.1 2.9 18.9-2.2 1.4-2.8 1.2-7.7-.4-11-2.8-5.4-10.8-8.6-17.2-6.9zM717.9 768.3c-6.7 4.4-9.6 14.6-6.5 22.2 1.7 4 4.2 5.5 9.2 5.5 3 0 4.4-.7 7.3-3.8 12.3-12.9 3.8-33.1-10-23.9zM189.8 768.1c-5.7 3.3 2.8 15.4 9.3 13.4 4.4-1.4 2.4-10.2-3-12.9-3.5-1.9-4-1.9-6.3-.5zM467.3 769.5c-3.8 1.6-7.3 6.8-7.3 10.8 0 11.6 15 18.5 24.3 11.4 13.2-10-1.4-29-17-22.2zM573.5 774c-1.1.4-3.2 2.1-4.8 3.7-9.9 10.5-.9 25.6 13.7 22.9 12-2.3 15.7-17.9 6-25.5-2.8-2.2-10.9-2.8-14.9-1.1zM887.7 778.2c-6.6 11.3-11.7 21.1-11.3 21.6.7.6 7-9.4 11.2-17.9 3.9-7.8 4-10.5.1-3.7zM669 779.1c-5.9 2.4-10 8.5-10 14.9 0 5.2 2.2 9.6 6 11.5 9.2 4.7 19.5-2.7 19.5-14 0-6.1-1.9-10.1-5.7-12.1-3.1-1.6-6.2-1.7-9.8-.3zM293.3 781c-2.8 1.7-3.3 2.5-3.3 5.7.1 7.5 5.3 12.3 13.2 12.3 3.7 0 5-.5 6.2-2.2 3.7-5.2.9-12.1-6.5-15.8-4.8-2.5-5.6-2.5-9.6 0zM139.2 782.2c.2 1.5 1.1 2.4 2.6 2.6 2.6.4 2.9-1 .6-3.2-2.2-2.3-3.6-2-3.2.6zM810.2 783.2c-4.1 4.4-7.3 11.8-7.9 18.7-.4 4.7-.2 5.9 1.4 7.3 1.7 1.6 2.1 1.6 4.1.2 6.8-4.7 13-24.2 9-28.2-1.9-1.9-3.2-1.5-6.6 2zM835.8 782.7c-3.9 4.1-8.8 15.4-9.5 21.7-.5 5.2-.4 5.6 1.5 5.6 4.6 0 12.6-15.1 12.7-23.9 0-3-.5-5.6-1-5.8-.6-.2-2.3.9-3.7 2.4zM854.6 785.7c-5.1 5.3-13.3 25-11.3 26.9 2.1 2.1 12-14.1 14.5-23.7 1.4-5.4 0-6.7-3.2-3.2zM779.9 785.9c-8 4.3-12.2 23.7-5.9 27.1 4.6 2.5 12.1-5.5 14.1-15.1 2.2-10.4-1.4-15.6-8.2-12zM404 787.1c-6.3 1.3-9.7 8.8-6.6 14.7 4.8 9.3 19.7 11 24.1 2.8 5-9.2-5.8-20-17.5-17.5zM865.1 793c-3.4 4.7-10.5 18.6-11.7 23l-.6 2.5 3-2.8c3.6-3.5 13.5-22.7 13-25.4-.3-1.4-1.1-.9-3.7 2.7zM510.4 791c-4.1 1.6-7.4 6.8-7.4 11.7 0 3.9.5 5.1 3.8 8.3 5.1 5.1 11.1 6.2 17.5 3.1 2.4-1.2 4.9-3.3 5.5-4.7 3.1-6.6 0-15.3-6.3-18-3.8-1.5-9.8-1.8-13.1-.4zM741.3 792.5c-1.7.7-4.4 3.3-6 5.6-2.3 3.5-2.8 5.3-2.8 10.5s.4 6.6 2.4 8.8c1.4 1.4 3.5 2.6 4.7 2.6 3.4 0 9-5.4 11-10.5 2.3-6.1 1.5-14.2-1.6-16.7-2.6-2.1-3.5-2.2-7.7-.3zM233 795.8c-5.7 4.7 4.4 15.8 11.8 13.1 1.7-.7 2.2-1.6 2.2-4.7 0-4.2-2.5-7.7-6.7-9.3-3.5-1.3-4.8-1.1-7.3.9zM609.3 796.1c-6.6 4.2-8.8 11.3-5.9 18.4 3.7 8.8 17.8 8.7 23.7-.1 2.3-3.6 2.5-10.6.3-14.4-3.6-6-12-7.8-18.1-3.9zM870.8 801.7c-1.9 2.1-12.1 19-13.1 21.6-1.4 3.7 1.6.3 6.7-7.7 6-9.2 8.9-14.6 8.3-15.2-.2-.2-1.1.4-1.9 1.3zM695.1 803.2c-4.9 3.3-7.2 6.9-7.8 12-.6 5 1.4 10.1 4.6 11.8 5.6 3 13-.4 16.2-7.4 2.8-6.1 2.5-10.9-.8-14.6-3.8-4.2-7.9-4.8-12.2-1.8zM339.5 804.2c-6.9 3.8-5.6 12.1 2.8 16.8 10.5 6 20.4-3.2 13-12.1-4.4-5.1-11.3-7.2-15.8-4.7zM180.2 808.3c-1.6 1.9.8 6 4.1 7.1 5 1.8 5.5-3.5.8-7.1-2.1-1.6-3.6-1.6-4.9 0zM447.5 809.2c-6.3 3.4-7.3 10.6-2.4 16.3 5.7 6.5 15.5 7.2 20.3 1.4 6.6-7.8-.6-19-12.1-18.9-2.1 0-4.7.6-5.8 1.2zM813.5 812.7c-5.5 6-10 19-8.1 23.9 1.5 3.9 10.1-7.6 12.9-17.3 2.6-8.7.2-11.9-4.8-6.6zM550.2 812.4c-5.5 3-8.1 12.5-4.7 17 5.5 7.3 18 7.5 22.9.4 2-2.8 2-10.7.1-13.2-4-5.2-12.8-7.3-18.3-4.2zM788.7 814.1c-5.6 4.3-9.9 16.7-7.8 22.2 1.4 3.6 3.7 3.4 7.5-.6 4.1-4.4 6.8-12.1 6.4-18.3-.4-5.7-2-6.6-6.1-3.3zM832.4 814.7c-5.2 5.6-12.6 24.3-9.6 24.3 3.1 0 12.3-15.6 13.7-23.3.9-4.5-.5-4.9-4.1-1zM862.6 824.1c-3.7 5.6-6.3 9.8-5.7 9.5.6-.4 3.2-3.9 5.7-7.9 2.6-4 5.3-8.2 6.2-9.5.8-1.2 1.2-2.2 1-2.2-.3 0-3.5 4.5-7.2 10.1zM646.5 815.7c-3.9 1-7.4 4.4-9 8.7-3.2 8.5 1.6 15.6 10.5 15.6 5.6 0 9.5-2.6 11.6-7.6 4.4-10.6-2.4-19.3-13.1-16.7zM756.5 818.2c-3.5 2.7-7.5 11.2-7.5 15.8 0 6.5 4.1 9.6 9 7 3-1.6 7-9.3 7.7-14.8.5-4.5.3-5.3-2-7.6-3.2-3.2-3.7-3.2-7.2-.4zM845.4 819.2c-4 4.5-13.4 20.8-13.4 23.3 0 3.3 8.7-7.9 13.4-17.3 3.2-6.4 3.2-9.6 0-6zM279.4 818.9c-6.4 2.8-1.2 13 7.5 14.7 4.6.9 7.1-1 7.1-5.4 0-6.7-8.3-11.9-14.6-9.3zM720 824.7c-2.3.9-6 4.5-7.6 7.5-2.2 4.1-1.8 12 .6 14.6 5.9 6.3 16-1.7 16-12.6 0-4.3-.5-5.8-2.5-7.7-2.4-2.5-3.7-2.8-6.5-1.8zM383.6 827.1c-3.8 3-3.6 7.9.7 12.5 2.8 3.1 4.2 3.7 8.5 4.2 4.7.4 5.4.2 8.3-2.7 3.3-3.4 3.4-6 .4-10.7-3.3-5.1-13.2-7-17.9-3.3zM848.8 829.7c-4.8 6.9-8.5 12.8-10.4 16.5-1.5 2.8-1.5 3.1-.1 2 1.9-1.6 10.8-14.5 13.1-19 2.7-5.2 1.2-4.9-2.6.5zM493.1 828c-10 2.4-11.2 13.9-1.9 19.4 1.5.9 4.8 1.6 7.8 1.6 4.5 0 5.6-.4 8.1-3.1 4-4.2 3.9-8.7-.2-13.3-3.9-4.5-8.1-5.9-13.8-4.6zM587.3 833c-4 2.4-5.3 4.8-5.3 9.8 0 5.1 3 8.8 8.1 10.2 8.7 2.4 15.9-2.7 15.9-11.4 0-3-.7-4.5-3.4-7.2-2.8-2.8-4.1-3.4-7.7-3.4-2.6 0-5.7.8-7.6 2zM224.3 832.7c-1.5.6-1.7 3.7-.3 6.2 1.1 2.2 6.4 4.5 8.5 3.7 2.6-.9 1.7-5.2-1.6-8-3-2.6-4.2-2.9-6.6-1.9zM673.1 837.3c-3.7 1.9-6.3 6-6.8 11-.5 4.1-.2 4.9 2.5 7.7 6.8 6.8 18.2.6 18.2-10 0-8.1-6.9-12.4-13.9-8.7zM845.4 844.7c-3.1 4.3-6.2 8.4-6.8 9.2-.8 1.1-.8 1.3.1.8 2-1.2 14-17.7 12.9-17.7-.3 0-3.1 3.5-6.2 7.7zM792.3 841.4c-3.8 3.2-7.5 10.9-8.1 16.8-.4 3.9-.2 4.8 1.1 4.8 5.1 0 14.8-21 10.8-23.4-.5-.4-2.2.5-3.8 1.8zM810.4 842.2c-3.2 3.8-8.1 13.9-9 18.6-.6 2.7-.4 3.1 1 2.6 3.4-1.3 12.6-17.3 12.6-21.9 0-3.4-1.3-3.2-4.6.7zM325.9 840.7c-.9.2-2.2 1.5-2.9 2.9-2.8 5.2 4 12.4 11.7 12.4 8.8 0 8.7-10.2 0-14.4-3.4-1.6-5.6-1.8-8.8-.9zM767.9 842.5c-4.8 2.6-9.8 15-7.9 19.9 2.9 7.7 13-4.2 13-15.4 0-5.4-1.2-6.5-5.1-4.5zM822.6 847.2c-5.8 6.7-12.8 19.8-10.7 19.8 2.5 0 16.3-22.1 14.9-23.6-.3-.3-2.2 1.4-4.2 3.8zM428.5 847.5c-3.5 3.4-3.3 7.5.7 11.4 3.5 3.4 8 4.7 13.6 3.7 4.3-.7 6.2-2.8 6.2-7.1 0-6.2-5.6-10.5-13.5-10.5-3.5 0-5.2.6-7 2.5zM532.3 847.1c-4.1 1.2-6.3 4.4-6.3 8.9 0 4.4 1.9 7.3 6.4 9.4 5 2.4 9.9 2.1 13.4-.9 9.5-8-.8-21.2-13.5-17.4zM733.8 849.7c-3.7 4-4.8 6.6-4.8 11.3 0 5.7 1.4 8 4.9 8 6.9 0 13.3-15.8 8.3-20.3-2.7-2.4-5.5-2.1-8.4 1zM623 850.7c-4.3 2.2-7.6 7.9-6.7 11.5.4 1.3 1.9 3.7 3.3 5.2 4.8 4.7 9.8 4.7 15.4-.1 3-2.5 3.2-3 2.7-7.6-.8-8.5-7.6-12.6-14.7-9zM830.5 851.4c-.6.7-3.5 4.6-6.6 8.7-6.6 8.7-8.6 12.1-6.7 11.3 1.4-.5 11.7-14.2 13.7-18.2 1.4-2.6 1.1-3.8-.4-1.8zM269.3 855.7c-2.5 1-1.4 5.1 2 7.7 3.8 2.9 7.8 3.4 9.7 1.1 3.5-4.2-5.8-11.3-11.7-8.8zM694.5 859.4c-4 4.3-4.9 8.9-2.7 13.6 4.4 9.2 17.8.3 15.8-10.5-1.3-7-7.9-8.5-13.1-3.1zM373.5 860.7c-3.1.8-5.5 3.4-5.5 6 0 3.1 5.4 8.1 9.7 8.9 10.1 1.9 14-6.6 5.5-12-4.3-2.8-6.9-3.5-9.7-2.9zM824.4 868.2c-8.6 10.5-8.8 10.8-8.1 10.8.3 0 3.6-3.7 7.3-8.3 8.6-10.4 8.8-10.7 8.1-10.7-.3 0-3.6 3.7-7.3 8.2zM474.3 864c-4.7 1.9-5.7 8.2-1.8 12.4 4.8 5.2 12.9 6.2 17 2.1 7.7-7.6-4.2-18.9-15.2-14.5zM569.8 865.6c-8 4.3-5.7 15.2 3.6 16.9 7.3 1.4 12.6-2 12.6-8.1 0-4.8-1.5-7.3-5.5-9-4.3-1.8-7.3-1.7-10.7.2zM771 868c-4.7 4.7-9.2 19-6 19 2 0 6.1-5 8.6-10.5 3.8-8.2 2.2-13.3-2.6-8.5zM789.8 868.1c-4.2 4.2-11.2 18.9-8.9 18.9 3.4 0 12.6-14.7 11.9-19.2l-.3-2.3-2.7 2.6zM218 868.2c0 1.8 2 3.8 3.8 3.8 1.9 0 1-2-1.6-3.8-1.9-1.2-2.2-1.2-2.2 0zM653.4 868.4c-4.2 1.8-6.4 5.2-6.4 9.7 0 5.6 2.8 8.4 8.5 8.4 3.9 0 5.1-.5 7.1-2.8 1.3-1.5 2.7-3.9 3-5.3.9-3.4-1.4-8.2-4.7-9.9-3.4-1.8-3.6-1.8-7.5-.1zM802.4 870.2c-5.2 6-12.1 17.4-11.1 18.4.7.7 9.1-9.5 11.7-14.2 2.7-5 2.4-7.5-.6-4.2zM745.1 872.5c-5.7 6.5-6.7 16.5-1.7 16.5 4 0 8.5-7.1 8.8-13.8.2-7.1-2.3-8.1-7.1-2.7zM807.9 876.7C804 881 796 891.5 796 892.4c0 1.4 3-1.6 7.4-7.4 4.9-6.3 8-11 7.4-11-.2 0-1.6 1.2-2.9 2.7zM314.7 876.7c-2.6 2.6 1.4 8.5 6.6 9.8 7.5 1.9 10.4-3.1 4.6-7.9-2.9-2.5-9.5-3.6-11.2-1.9zM715.2 877.5c-5.1 3.6-6.8 11.9-3.2 15.5 2.6 2.6 3.2 2.5 6.9-.6 8-6.7 4.5-20.6-3.7-14.9zM418 878.7c-5.7 2.3-4.8 9.9 1.7 13.2 3.6 1.8 10 1.4 12.3-.9 2.6-2.6 2.5-4.2-.6-7.9-3.2-3.8-9.5-5.9-13.4-4.4zM514.9 881.5c-7.4 4-1.7 14.5 7.9 14.7 7.7.1 11.5-5.1 8.1-11.4-2.2-4.2-11-6-16-3.3zM602.6 883.5c-5.6 5.2-1.7 14.5 6.1 14.5 9.3 0 13.5-8 7.4-14.1-3.9-3.8-9.6-4-13.5-.4zM805.4 887.7c-2.1 2.7-2.8 3.9-1.5 2.8 2.4-2.1 6.6-7.5 5.8-7.5-.3 0-2.2 2.1-4.3 4.7zM679 885.7c-5.1 1.9-8.1 8.3-5.9 12.5 1.6 3.1 2.8 3.8 6.6 3.8 2.3 0 3.8-.8 5.7-3.1 3.3-3.9 3.4-8.2.1-11.4-2.4-2.5-3.7-2.8-6.5-1.8zM263.5 889.9c-.8 1.3 4.3 5.1 6.1 4.4 1.9-.7 1.8-2.3-.3-3.9s-4.9-1.8-5.8-.5zM768.5 893.1c-3.4 4.2-6.5 10.3-6.5 13v2.2l2.6-2.4c4.7-4.4 10.2-15.9 7.6-15.9-.6 0-2.2 1.4-3.7 3.1zM750.7 893.8c-5.3 5.5-7 15.7-2.3 13.9 2.2-.9 6.8-9.3 7-12.9.1-4.1-1.4-4.5-4.7-1zM780.3 895.3c-3.5 3.6-9.8 13.6-9.1 14.3.7.7 7.6-7.4 10.5-12.4 3.2-5.4 2.6-6.2-1.4-1.9zM361.8 895.1c-4.5 2.6.3 8.8 7.4 9.6 8 .9 9.1-5.4 1.5-9-4-1.9-6.4-2.1-8.9-.6zM461 896.3c-4.8 2.4-3.4 8.8 2.5 11.3 10 4.1 17.7-2.1 11-8.8-3.6-3.7-9.2-4.7-13.5-2.5zM556.5 895.7c-5.2 1.3-7.3 7.4-3.8 10.9 6.4 6.3 17.3 4.6 17.3-2.8 0-2.9-4-7.8-6.4-7.8-.6 0-2-.2-3.1-.4s-2.9-.2-4 .1zM728.4 896.2c-4.7 2.2-7.3 11.3-4.1 14.5 1.5 1.5 1.8 1.5 3.8-.3 3.1-2.8 4.9-6.8 4.9-10.7 0-3.8-1.4-4.9-4.6-3.5zM796.9 897.7l-2.4 2.8 2.8-2.4c1.5-1.4 2.7-2.6 2.7-2.8 0-.8-.8-.1-3.1 2.4zM637.5 896.8c-6.1 1.2-8.6 9.1-4.3 13.2 5 4.6 13.8 1.2 13.8-5.3-.1-5.2-4.5-9-9.5-7.9zM783.4 902.7c-6.9 8.2-8.1 9.7-6.8 9.2 1.6-.6 12.8-13.8 12.2-14.4-.3-.3-2.7 2.1-5.4 5.2zM695.6 905.1c-3.1 3.6-3.3 7.9-.6 10.4 2.6 2.3 6.1 1.4 8.3-2.4 4.9-8.4-1.6-15.3-7.7-8zM784.9 907.7l-2.4 2.8 2.8-2.4c1.5-1.4 2.7-2.6 2.7-2.8 0-.8-.8-.1-3.1 2.4zM310.3 907.7c-1.8.7-1.6 2.7.5 4.6 2.3 2.1 8.2 2.3 8.2.4 0-2.8-5.7-6-8.7-5zM406 911.5c-2.9 3.5 3.6 9.5 10.3 9.5 3.5 0 6.2-3.3 4.8-5.9-2.5-4.5-12.4-6.8-15.1-3.6zM501.5 912c-3.6 3.9.2 9.2 7.5 10.4 5 .9 8.5-1.2 8.5-4.9 0-6-11.8-10.1-16-5.5zM588 912.2c-2.3 2.5-2.5 4.6-.7 6.9 4.8 6.3 15.7 4.7 15.7-2.3 0-6.1-10.5-9.4-15-4.6zM661.1 912.8c-5.1 2.4-5.4 8.6-.7 11.2 3.7 1.9 7.4.5 9.3-3.5 1.5-3.1 1.5-3.6 0-5.8-2.1-3.2-4.8-3.8-8.6-1.9zM750.3 914.2c-2.8 3-6.7 10.7-5.9 11.5 1 1.1 5.4-3.7 7.5-8.3 1.2-2.4 2.1-4.6 2.1-4.9 0-1.2-1.8-.3-3.7 1.7zM734.2 914.7c-1.6.6-5.2 7.6-5.2 10.2 0 4.7 4 2.1 7.5-4.7 2.3-4.6 1.3-7-2.3-5.5zM759.3 917.4c-3.8 4.7-6.6 9.6-5.5 9.6.8 0 7.7-8.5 9.6-11.8 1.5-2.6-1.4-1-4.1 2.2zM764.4 921.2c-2.2 2.4-4.8 5.4-5.9 6.8-1.6 2.1-1.4 2 1.4-.5 3.2-2.9 9.6-10.5 8.9-10.5-.2 0-2.2 1.9-4.4 4.2zM710.2 920c-3.8 3.6-4.2 9.3-.7 10.6 3.5 1.4 7.5-5.8 6-10.6-.8-2.5-2.5-2.5-5.3 0zM542.2 924.6c-1.2.8-2.2 2.3-2.2 3.3 0 5.6 13.4 8.9 16.1 4 3.2-6-7.6-11.7-13.9-7.3zM620 924.8c-3.1 2.5-2.1 6.6 2 8.7 3.7 1.9 7.6 1.1 9.6-2.1 3.8-5.7-5.9-11.2-11.6-6.6zM356.3 924.7c-3.9 1.5 1.1 6.3 6.4 6.3 2.6 0 3.3-.4 3.3-2 0-2.7-6.5-5.6-9.7-4.3zM452.3 925c-5.6 2.3-.2 9 7.2 9 7.6 0 8.3-5.5 1-8.6-3.9-1.6-5.1-1.6-8.2-.4zM681.2 926.6c-2.9 2-3.1 7.9-.2 9.4 2.1 1.1 5.7-.1 7.2-2.4 1.5-2.2.8-6.5-1.1-7.6-2.6-1.3-3.3-1.3-5.9.6zM732.7 935c-2.7 3.1-4.3 6.8-3.4 7.7.7.7 6.7-7.7 6.7-9.4 0-1.9-.5-1.6-3.3 1.7zM740.1 937.7c-4.2 4.9-4.7 7.2-.8 3.5 2.2-2.1 6.2-8.2 5.3-8.2-.2 0-2.3 2.1-4.5 4.7zM718.4 934.8c-2.5 1.7-4.7 9.2-2.6 9.2 2.3-.1 5.2-4.5 5.2-7.9 0-2.2-.8-2.6-2.6-1.3zM578.8 935.7c-4.6 1.2-2.1 7.7 3.5 8.7 8.3 1.6 12-4.6 5-8.3-2.2-1.1-5.3-1.3-8.5-.4zM647.2 936.2c-1.6 1.6-1.5 5.3.2 6.7.8.7 3.2 1.1 5.3.9 3.4-.3 3.8-.6 4.1-3.3.3-1.9-.2-3.3-1.4-4.2-2.2-1.6-6.6-1.7-8.2-.1zM493.7 937.7c-2.6 2.5.9 6.8 6.6 7.8 6.6 1.3 9.4-4 3.7-7-3-1.5-9.1-2-10.3-.8zM402.3 939.5c-1.3 3.6 8.2 7.7 10.3 4.4 1-1.6-2.6-4.8-6.3-5.5-2.6-.5-3.4-.3-4 1.1zM695.6 940.2c-2 2.8-2 5.2-.2 6.7 3.2 2.6 7.6-3.4 5.4-7.3-1.3-2.2-3.4-2-5.2.6zM611.2 946.1c-5.6 2.2 1 9.3 6.7 7.3 2.9-1 3.9-4.5 1.9-6.1-2.1-1.6-6.1-2.2-8.6-1.2zM669.3 946.6c-2.3 1-1.5 5.4 1.2 6.6 3.2 1.4 5.7-.5 5.3-4.1-.2-2-.9-2.6-2.8-2.8-1.4-.1-3.1.1-3.7.3zM534.8 948c-4.5 2.8.4 7.3 7.4 6.8 3.1-.2 4.4-.8 4.6-2 .6-3.3-8.5-6.9-12-4.8zM717.5 952.1c-.9 1.7-1.4 3.3-1.2 3.5.6.6 4.7-4.5 4.7-5.7 0-2-2.1-.7-3.5 2.2zM727.5 949.8c-.5.4-1.7 1.6-2.5 2.7-1.1 1.5-.7 1.4 1.3-.4 2.4-2.2 3.2-3.1 2.5-3.1-.2 0-.7.4-1.3.8zM446.5 951.9c-.9 1.5 4.5 5.1 7.6 5.1 3.6 0 4.6-1.6 2.3-4.1-1.8-2-8.8-2.7-9.9-1zM704.1 953.2c-.5 1.3-.6 2.9-.3 3.6.6 1.8 4.2-1.5 4.2-4 0-2.6-2.9-2.3-3.9.4zM638.5 955.4c-1.9 1.4-1.9 1.4 0 3.6 2.6 2.9 7.9 2.4 8.3-.7.3-1.7-.3-2.6-2.3-3.3-3.4-1.3-3.7-1.3-6 .4zM685.5 956.6c-1.9 1.9-1.9 2.8 0 4.4 1.8 1.5 4.5-.2 4.5-3 0-2.4-2.6-3.2-4.5-1.4zM570.3 958.6c-.9 2.4 2.3 4.4 6.9 4.4 4.5 0 6.3-2.5 3.3-4.6-2.7-2-9.4-1.8-10.2.2zM490 962.3c0 2.3 2.3 3.7 6.1 3.7 4.6 0 5.7-1.3 2.7-3.4-2.8-2-8.8-2.1-8.8-.3zM661.4 963.5c-.8 2.1.4 3.5 3.1 3.5 2.9 0 4.1-1.6 2.5-3.5-1.6-1.9-4.9-1.9-5.6 0zM707 963.5c-.7.9-1 1.8-.7 2.1.3.3 1-.4 1.7-1.5 1.3-2.5.8-2.7-1-.6zM402.5 965c.3.5 1.6 1 2.8 1 1.8 0 1.9-.2.7-1-2-1.3-4.3-1.3-3.5 0zM695.3 965.5c-.3.9-.3 1.8 0 2.1.9.9 2.7-.6 2.7-2.2 0-1.9-1.9-1.8-2.7.1zM604 966.5c0 1.9 4.5 3.8 7.2 2.9 1.1-.3 1.8-1.3 1.6-2.2-.4-2.4-8.8-3-8.8-.7zM531.2 970.7c.2 1.3 1.5 1.9 4.6 2.1 2.3.2 4.2-.1 4.2-.5 0-1.9-2.5-3.3-5.8-3.3-2.6 0-3.3.4-3 1.7zM678.2 970.2c.5 1.5 3.7 1.8 4.1.3.1-.6-.9-1.2-2.2-1.3-1.6-.3-2.2.1-1.9 1zM633.4 971.1c-.3.6 0 1.5.7 2 2.2 1.4 5.9 1.1 5.9-.5 0-2.4-5.3-3.6-6.6-1.5zM447.5 975c.3.5 1.5 1 2.6 1s1.7-.5 1.4-1c-.3-.6-1.5-1-2.6-1s-1.7.4-1.4 1zM657 976c0 .5 1.2 1 2.6 1 1.4 0 2.3-.4 1.9-1-.3-.6-1.5-1-2.6-1-1 0-1.9.4-1.9 1zM569.5 977.5c2.1 1.7 7 1.7 7 0 0-.6-2-1.1-4.5-1.3-4.2-.2-4.4-.1-2.5 1.3zM603 981c0 .5 1.4 1 3.1 1 1.7 0 2.8-.4 2.4-1-.3-.6-1.7-1-3.1-1-1.3 0-2.4.4-2.4 1zM491.8 982.7c.6.2 1.8.2 2.5 0 .6-.3.1-.5-1.3-.5-1.4 0-1.9.2-1.2.5zM633.8 983.7c.6.2 1.8.2 2.5 0 .6-.3.1-.5-1.3-.5-1.4 0-1.9.2-1.2.5zM533.8 987.7c.6.2 1.8.2 2.5 0 .6-.3.1-.5-1.3-.5-1.4 0-1.9.2-1.2.5z"/></svg>