<svg xmlns="http://www.w3.org/2000/svg" width="155" height="56" fill="none"><g fill="#333" fill-rule="evenodd" clip-path="url(#a)" clip-rule="evenodd"><path d="M11.288.5 8.655 7.69h36.34L47.614.5H11.288ZM7.346 11.294l-2.618 7.19h36.34l2.619-7.19H7.347ZM3.42 22.072.802 29.278h36.34l2.618-7.19H3.42v-.016ZM78.056 32.019v.154c1.663.616 3.249 1.678 4.08 2.371 2.572 2.14 3.696 4.958 3.696 8.623 0 6.02-3.172 10.362-8.392 11.748-1.586.462-3.25.616-6.344.616H55.328V11.432h13.966c2.864 0 4.835.154 6.575.616 5.067 1.37 8.392 4.881 8.392 10.44 0 2.971-1.062 5.497-2.787 7.16-.77.77-1.832 1.678-3.418 2.37Zm-13.966 4.65v11.594h6.036c1.817 0 3.48-.154 4.68-1.293 1.202-1.14 1.74-2.587 1.74-4.496 0-1.448-.384-2.818-1.139-3.819-1.278-1.601-2.864-1.986-5.59-1.986H64.09Zm-.077-7.637h4.912c1.509 0 2.263 0 3.018-.231 2.048-.616 3.326-2.433 3.326-4.958 0-2.972-1.355-4.265-3.326-4.881-.832-.231-1.663-.308-3.326-.308h-4.604v10.378ZM98.983 55.5V18.823H86.37v-7.39h35.047l-2.495 7.39h-11.179V55.5h-8.761Zm25.145 0V11.432h28.395l-2.495 7.391h-17.215v9.762h7.022c5.666 0 8.607 1.37 10.655 3.126 1.586 1.37 4.312 4.419 4.312 10.44 0 5.943-2.803 9.222-5.143 10.9-2.726 1.91-5.59 2.434-11.41 2.434h-14.121v.015Zm8.685-7.406h6.575c2.495 0 4.004-.616 5.066-1.986.524-.693 1.278-1.91 1.278-4.189 0-2.278-.754-3.895-2.263-5.035-.909-.693-2.11-1.062-4.158-1.062h-6.498v12.272Z"/></g><defs><clipPath id="a"><path fill="#fff" d="M.802.5h154v55h-154z"/></clipPath></defs></svg>