<svg xmlns="http://www.w3.org/2000/svg" id="_Слой_1" data-name="Слой 1" viewBox="0 0 1080 1080"><defs><style>.cls-1{fill:#1d1d1b}</style></defs><path d="M615.75 591.84c29.43-22.96 34.67-65.43 11.7-94.86-22.96-29.43-65.43-34.67-94.86-11.7-29.43 22.96-34.67 65.43-11.7 94.86 22.96 29.43 65.43 34.67 94.86 11.7ZM490.03 398.28a4.26 4.26 0 0 0-5.97-.74l-24.78 19.33a4.261 4.261 0 0 0-.74 5.97l42.11 53.97 31.48-24.57-42.11-53.97Z" class="cls-1"/><path d="M978.94 790.11 673.86 559.77s-10.59 87.5-102.82 80.24l150.43 352.33c-46.95 15.33-96.59 23.52-147.38 23.52-262.4 0-475.88-213.47-475.88-475.86S311.68 64.13 574.09 64.13c150.25 0 288.59 68.78 379.49 188.71l49.11-37.24C900.03 80.18 743.8 2.5 574.09 2.5 277.7 2.5 36.58 243.62 36.58 540.01S277.7 1077.5 574.09 1077.5c194.43 0 374.28-105.51 469.34-275.37l-53.77-30.09c-3.43 6.13-7.04 12.13-10.71 18.07Zm-248.61 199.3-81.1-357.16 326 163.77c-58.25 91.07-145.09 158.62-244.91 193.4Z" class="cls-1"/></svg>