<svg xmlns="http://www.w3.org/2000/svg" version="1.1" xmlns:xlink="http://www.w3.org/1999/xlink" width="1000" height="1000"><style>
    #light-icon {
      display: inline;
    }
    #dark-icon {
      display: none;
    }

    @media (prefers-color-scheme: dark) {
      #light-icon {
        display: none;
      }
      #dark-icon {
        display: inline;
      }
    }
  </style><g id="light-icon"><svg xmlns="http://www.w3.org/2000/svg" version="1.1" xmlns:xlink="http://www.w3.org/1999/xlink" width="1000" height="1000"><g><g transform="matrix(1.4204545454545454,0,0,1.4204545454545454,24.85795454545456,0)"><svg xmlns="http://www.w3.org/2000/svg" version="1.1" xmlns:xlink="http://www.w3.org/1999/xlink" width="669" height="704"><svg xmlns="http://www.w3.org/2000/svg" fill="none" viewBox="0 0 669 704">
  <path fill="#8D222C" stroke="#8D222C" stroke-width="5" d="M325.276 315.923c19.7-15.375 48.129-11.867 63.498 7.832 15.376 19.7 11.869 48.13-7.832 63.499l.001.001c-19.7 15.376-48.13 11.868-63.5-7.833-15.375-19.7-11.867-48.13 7.833-63.499Zm-30.689-55.489a5.195 5.195 0 0 1 7.284.905l-.001.001 26.624 34.121 1.537 1.972-1.97 1.537-19.908 15.539-1.971 1.538-1.538-1.971-26.631-34.131-.002-.002a5.196 5.196 0 0 1 .898-7.279l.005-.003 15.671-12.225.002-.002Z"></path>
  <path fill="#8D222C" stroke="#8D222C" stroke-width="5" d="M353.059 10.081c108.11 0 207.648 49.493 273.042 135.756l1.51 1.992-1.992 1.51-31.058 23.551-1.992 1.51-1.511-1.992C534.044 97.186 447.295 54.057 353.059 54.057c-164.569 0-298.45 133.886-298.45 298.443s133.887 298.438 298.45 298.438c30.915-.001 61.151-4.84 89.827-13.917l-94.055-220.292-1.622-3.798 4.117.324c28.168 2.217 43.599-9.959 52.118-22.559 4.303-6.364 6.869-12.89 8.358-17.84a63.677 63.677 0 0 0 1.498-5.969 42.704 42.704 0 0 0 .357-2.068l.013-.097a.123.123 0 0 1 .003-.02l.521-4.311 3.467 2.617L608.402 507.02a277.65 277.65 0 0 0 5.284-8.997l1.222-2.182 2.182 1.221 34.004 19.03 2.181 1.22-1.221 2.182c-60.558 108.209-175.13 175.425-298.995 175.425-188.82 0-342.425-153.593-342.425-342.413 0-188.82 153.606-342.425 342.425-342.425ZM453.682 633.42c60.642-21.77 113.456-62.891 149.448-118.028L404.188 415.45l49.494 217.969Z"></path>
</svg></svg></g></g></svg></g><g id="dark-icon"><svg xmlns="http://www.w3.org/2000/svg" version="1.1" xmlns:xlink="http://www.w3.org/1999/xlink" width="1000" height="1000"><g><g transform="matrix(1.6103059581320451,0,0,1.6103059581320451,11.272141706924288,0)"><svg xmlns="http://www.w3.org/2000/svg" version="1.1" xmlns:xlink="http://www.w3.org/1999/xlink" width="607" height="621"><svg xmlns="http://www.w3.org/2000/svg" fill="none" viewBox="0 0 607 621">
  <path fill="#fff" stroke="#fff" stroke-width="5" d="M297.797 278.774c17.629-13.759 43.069-10.62 56.823 7.009 13.545 17.354 10.716 42.277-6.192 56.171l-.815.653c-17.354 13.545-42.278 10.715-56.171-6.193l-.654-.816c-13.759-17.629-10.62-43.07 7.009-56.824Zm-27.273-49.314a4.894 4.894 0 0 1 6.863.852l-.001.001 23.662 30.324 1.538 1.971-1.971 1.538-17.693 13.81-1.971 1.538-1.538-1.971-23.668-30.334-.001-.002a4.894 4.894 0 0 1 .846-6.858l.004-.004 13.928-10.864.002-.001Z"></path>
  <path fill="#fff" stroke="#fff" stroke-width="5" d="M322.66 6.905c96.167 0 184.71 44.026 242.881 120.76l1.511 1.992-1.993 1.51-27.601 20.93-1.992 1.511-1.511-1.992C483.338 84.833 406.322 46.544 322.66 46.544c-146.103 0-264.962 118.864-264.962 264.956S176.562 576.451 322.66 576.451c27.34 0 54.084-4.263 79.456-12.262l-83.47-195.498-1.621-3.798 4.116.324c24.923 1.961 38.545-8.803 46.067-19.927 3.804-5.627 6.074-11.398 7.392-15.779a56.458 56.458 0 0 0 1.325-5.279c.125-.634.209-1.127.26-1.456.026-.164.043-.288.054-.366l.012-.084.002-.017v-.001l.521-4.309 3.467 2.617 169.271 127.803a245.066 245.066 0 0 0 4.532-7.725l1.22-2.182 2.182 1.221 30.221 16.912 2.182 1.221-1.221 2.182c-53.869 96.256-155.785 156.046-265.968 156.046-167.963 0-304.6-136.625-304.6-304.588 0-167.963 136.637-304.601 304.6-304.601Zm89.629 553.887c53.617-19.321 100.321-55.688 132.212-104.417l-176-88.416 43.788 192.833Z"></path>
</svg></svg></g></g></svg></g></svg>