<svg xmlns="http://www.w3.org/2000/svg" fill="none" viewBox="0 0 607 621">
  <path fill="#fff" stroke="#fff" stroke-width="5" d="M297.797 278.774c17.629-13.759 43.069-10.62 56.823 7.009 13.545 17.354 10.716 42.277-6.192 56.171l-.815.653c-17.354 13.545-42.278 10.715-56.171-6.193l-.654-.816c-13.759-17.629-10.62-43.07 7.009-56.824Zm-27.273-49.314a4.894 4.894 0 0 1 6.863.852l-.001.001 23.662 30.324 1.538 1.971-1.971 1.538-17.693 13.81-1.971 1.538-1.538-1.971-23.668-30.334-.001-.002a4.894 4.894 0 0 1 .846-6.858l.004-.004 13.928-10.864.002-.001Z"/>
  <path fill="#fff" stroke="#fff" stroke-width="5" d="M322.66 6.905c96.167 0 184.71 44.026 242.881 120.76l1.511 1.992-1.993 1.51-27.601 20.93-1.992 1.511-1.511-1.992C483.338 84.833 406.322 46.544 322.66 46.544c-146.103 0-264.962 118.864-264.962 264.956S176.562 576.451 322.66 576.451c27.34 0 54.084-4.263 79.456-12.262l-83.47-195.498-1.621-3.798 4.116.324c24.923 1.961 38.545-8.803 46.067-19.927 3.804-5.627 6.074-11.398 7.392-15.779a56.458 56.458 0 0 0 1.325-5.279c.125-.634.209-1.127.26-1.456.026-.164.043-.288.054-.366l.012-.084.002-.017v-.001l.521-4.309 3.467 2.617 169.271 127.803a245.066 245.066 0 0 0 4.532-7.725l1.22-2.182 2.182 1.221 30.221 16.912 2.182 1.221-1.221 2.182c-53.869 96.256-155.785 156.046-265.968 156.046-167.963 0-304.6-136.625-304.6-304.588 0-167.963 136.637-304.601 304.6-304.601Zm89.629 553.887c53.617-19.321 100.321-55.688 132.212-104.417l-176-88.416 43.788 192.833Z"/>
</svg>
