<svg xmlns="http://www.w3.org/2000/svg" fill="none" viewBox="0 0 669 704">
  <path fill="#8D222C" stroke="#8D222C" stroke-width="5" d="M325.276 315.923c19.7-15.375 48.129-11.867 63.498 7.832 15.376 19.7 11.869 48.13-7.832 63.499l.001.001c-19.7 15.376-48.13 11.868-63.5-7.833-15.375-19.7-11.867-48.13 7.833-63.499Zm-30.689-55.489a5.195 5.195 0 0 1 7.284.905l-.001.001 26.624 34.121 1.537 1.972-1.97 1.537-19.908 15.539-1.971 1.538-1.538-1.971-26.631-34.131-.002-.002a5.196 5.196 0 0 1 .898-7.279l.005-.003 15.671-12.225.002-.002Z"/>
  <path fill="#8D222C" stroke="#8D222C" stroke-width="5" d="M353.059 10.081c108.11 0 207.648 49.493 273.042 135.756l1.51 1.992-1.992 1.51-31.058 23.551-1.992 1.51-1.511-1.992C534.044 97.186 447.295 54.057 353.059 54.057c-164.569 0-298.45 133.886-298.45 298.443s133.887 298.438 298.45 298.438c30.915-.001 61.151-4.84 89.827-13.917l-94.055-220.292-1.622-3.798 4.117.324c28.168 2.217 43.599-9.959 52.118-22.559 4.303-6.364 6.869-12.89 8.358-17.84a63.677 63.677 0 0 0 1.498-5.969 42.704 42.704 0 0 0 .357-2.068l.013-.097a.123.123 0 0 1 .003-.02l.521-4.311 3.467 2.617L608.402 507.02a277.65 277.65 0 0 0 5.284-8.997l1.222-2.182 2.182 1.221 34.004 19.03 2.181 1.22-1.221 2.182c-60.558 108.209-175.13 175.425-298.995 175.425-188.82 0-342.425-153.593-342.425-342.413 0-188.82 153.606-342.425 342.425-342.425ZM453.682 633.42c60.642-21.77 113.456-62.891 149.448-118.028L404.188 415.45l49.494 217.969Z"/>
</svg>
