<svg width="274" height="56" viewBox="0 0 274 56" fill="none" xmlns="http://www.w3.org/2000/svg">
<path d="M36.1777 55.5H0V47.9902H36.1777V55.5ZM108.949 10.752C116.7 11.3605 121.916 16.8533 121.916 24.5508C121.916 32.2485 116.7 37.7898 108.949 38.3984V48.3506H102.184V38.3984C94.4331 37.7408 89.2178 32.1996 89.2178 24.5508C89.218 16.9022 94.4332 11.4095 102.184 10.752V0.943359H108.949V10.752ZM136.203 10.2373C143.156 10.2375 147.289 14.3214 147.289 20.7979L147.285 29.668C147.285 31.1219 147.755 31.6855 148.978 31.6855V37.7861H146.627C144.043 37.7861 142.069 36.802 141.178 35.0176C140.177 36.494 137.884 38.4442 133.755 38.4443C128.125 38.4443 124.218 34.454 124.218 29.1982C124.218 23.9426 127.791 20.7979 133.804 20.7979H140.523C140.523 17.6087 138.835 16.3878 136.203 16.3877C133.007 16.3877 131.972 18.0782 131.739 19.0625H124.88C125.211 14.5581 129.25 10.2373 136.203 10.2373ZM203.86 10.2373C210.814 10.2373 214.946 14.3213 214.946 20.7979L214.943 29.668C214.943 31.1219 215.414 31.6855 216.636 31.6855V37.7861H214.285C211.702 37.7861 209.727 36.8021 208.836 35.0176C207.836 36.494 205.541 38.4443 201.412 38.4443C195.782 38.4443 191.875 34.454 191.875 29.1982C191.875 23.9426 195.448 20.7979 201.461 20.7979H208.182C208.182 17.6085 206.493 16.3877 203.86 16.3877C200.664 16.3877 199.63 18.0782 199.396 19.0625H192.537C192.868 14.5581 196.907 10.2373 203.86 10.2373ZM18.3711 0.5C22.4436 0.500149 23.6319 2.92701 24.666 6L35.3311 37.7861H27.4375L25.042 30.2314H10.7588L8.17578 37.7861H0.751953L11.9473 6C13.0303 2.91564 14.2983 0.5 18.3711 0.5ZM59.9971 37.7861H53.2314V17.5107H46.748L46.4668 26.2871C46.2111 34.2176 44.5485 37.7861 37.6328 37.7861H36.5986V31.5918C39.3738 31.5918 40.0092 30.6072 40.1709 25.6787L40.6416 11.3652H59.9971V37.7861ZM71.9297 19.3896L76.8145 19.3857C83.2489 19.3857 86.916 22.6729 86.916 28.4922C86.916 33.0003 84.2872 37.786 76.9092 37.7861H65.1641V11.3613H71.9297V19.3896ZM186.242 7.65723H168.717V15.1182H176.283C184.41 15.1182 189.062 19.3445 189.062 26.3359C189.062 33.7518 184.41 37.7861 176.283 37.7861H161.625V0.943359H186.242V7.65723ZM227.21 21.2188H236.56V11.3652H243.324V37.7861H236.56V27.3691H227.21V37.7861H220.441V11.3652H227.21V21.2188ZM255.253 21.8311L264.603 11.3652H273.108L261.691 23.9424L274 37.7861H265.26L255.253 26.666V37.7861H248.488V11.3652H255.253V21.8311ZM135.116 26.1963C133.285 26.1963 131.171 26.5687 131.171 29.1982C131.171 31.828 133.097 32.7188 135.541 32.7188C138.358 32.7187 140.519 30.983 140.52 27.9326V26.1963H135.116ZM202.773 26.1963C200.942 26.1963 198.829 26.5687 198.829 29.1982C198.829 31.8279 200.754 32.7187 203.198 32.7188C206.015 32.7188 208.178 30.983 208.178 27.9326V26.1963H202.773ZM102.184 17.0938C98.427 17.6085 96.0773 20.4262 96.0771 24.5547C96.0771 28.6833 98.427 31.5008 102.184 32.0156V17.0938ZM108.949 32.0127C112.706 31.498 115.057 28.6795 115.057 24.5508C115.056 20.4223 112.706 17.6083 108.949 17.0898V32.0127ZM71.9297 31.9639H76.2998C78.6952 31.9638 80.0566 30.8852 80.0566 28.4922C80.0566 26.287 78.6501 25.254 76.2998 25.2539H71.9297V31.9639ZM168.721 31.1221L175.956 31.1182C179.717 31.1182 181.83 29.3825 181.83 26.332C181.83 23.2815 179.713 21.5459 175.956 21.5459H168.721V31.1221ZM17.9951 8.78418L12.9219 23.8486H22.9736L18.1826 8.78418H17.9951Z" fill="#333333"/>
</svg>
