<svg width="240" height="56" viewBox="0 0 240 56" fill="none" xmlns="http://www.w3.org/2000/svg">
<path d="M45 25.2034C44.7893 25.3729 44.5787 25.5423 44.3259 25.7542C42.8096 26.9406 40.4507 27.8729 37.165 28.7627C30.3411 30.6271 25.3706 30.8813 19.7261 32.2796C18.6309 32.5339 17.4935 32.9152 16.3984 33.3814C17.4514 33.9322 18.5887 34.3983 19.7682 34.8645C22.0429 34.1864 23.1802 33.8899 26.4658 33.339C27.7295 33.1271 31.6469 32.4492 34.4271 31.8136C39.524 30.7118 46.9797 28.3391 45 25.2034ZM41.7144 18.7627C40.6192 18.2542 39.2712 17.7881 37.839 17.4068C37.2072 17.9153 36.449 18.3813 35.3958 18.8051C37.2072 19.144 38.513 19.6102 40.0294 20.0763C40.2821 20.2034 41.5037 19.0169 41.7144 18.7627ZM16.8196 25.6271C23.4751 23.678 30.4253 23.0424 37.5021 21.1779C34.7219 20.4152 33.2055 20.0763 30.2989 20.4152C26.0445 20.9238 21.4109 21.856 17.4093 23.0424C15.8508 23.5084 7.63677 25.8814 9.99565 29.1864C9.99565 29.2288 11.3857 27.2373 16.8196 25.6271ZM12.2282 36.9407C12.2282 37.5339 12.5652 38.0847 13.4076 38.7627C13.4919 38.4238 13.6604 38.1695 13.9131 37.8728C13.3234 37.6187 12.7336 37.2796 12.2282 36.9407ZM15.3453 36.6441C15.8508 36.3474 16.4405 36.0509 17.1145 35.7542C16.1877 35.3729 15.2189 34.9067 14.208 34.483C13.7446 34.7797 13.3655 35.0762 13.0706 35.3729C13.8289 35.7966 14.5871 36.2204 15.3453 36.6441ZM40.8718 22.3644C39.524 23 37.6283 23.6356 34.8483 24.3559C32.6157 24.9067 27.0976 25.7118 21.2004 27.0254C19.3049 27.4492 14.2501 28.6356 11.7648 30.7966C12.4388 31.3474 12.9021 31.5169 13.6604 31.9407C14.7134 31.2628 16.1035 30.6271 18.1676 30.0763C21.7901 29.1016 24.486 28.678 27.7716 28.1695C31.0151 27.6187 37.0808 26.3474 40.4507 25.1186C41.5459 24.7374 42.5568 24.1864 43.315 23.5932C43.1045 23.3389 40.9562 22.2797 40.8718 22.3644ZM42.8096 21.1779C43.4835 21.517 44.0733 21.7712 44.6208 22.1525C45.0421 21.3474 44.7893 20.839 43.9048 20.0763C43.6099 20.4999 43.2307 20.839 42.8096 21.1779ZM11.8912 33.2967C11.3015 32.9576 10.8802 32.7457 10.4169 32.3644C10.1642 32.9576 10.6696 33.5932 11.1751 33.8899C11.4278 33.6779 11.6806 33.5084 11.8912 33.2967ZM40.1558 14.7373C40.0294 15.2034 39.5661 15.7119 39.2291 16.0932C40.24 16.3475 41.251 16.7289 42.2198 17.1102C42.0934 16.2203 41.0403 15.3305 40.1558 14.7373ZM8.90046 20.4576C15.8508 15.839 23.5592 13.1695 36.6174 15.4153C37.3336 14.9915 37.7126 14.6102 37.9232 13.7203C34.6799 12.5339 31.1415 12.1102 26.55 12.1949C22.464 12.322 15.0504 13.8475 11.133 16.2203L12.3545 14.6949C15.1347 13.0847 22.2956 10.8814 27.6874 10.7966C31.4784 10.7119 33.4583 10.9237 37.9654 12.1525C37.5862 11.3475 36.6174 10.9661 35.2695 10.3729C30.8887 8.38135 22.7168 8.21187 16.0193 11.178C16.8617 10.6271 17.7042 10.0763 18.7572 9.61017C20.9477 8.59322 24.5703 7.61865 29.0775 7.66101C32.7 7.7034 36.9544 8.97458 39.6082 11.6017C40.0294 12.1102 40.2821 12.661 40.4085 13.1271C42.4725 14.1864 43.6941 15.2034 44.3681 16.3475C44.663 16.9406 44.7472 17.6186 44.6208 18.3389C45.5054 18.8475 45.8845 19.3136 46.3057 19.8644C46.6006 20.3306 46.8534 20.8814 46.8955 21.3898C46.9797 22.0678 47.064 22.7881 46.3901 23.6356C47.106 23.9746 47.6537 24.9915 47.7379 25.4153C48.0748 26.983 47.064 28.5508 45.716 29.7374C44.1997 31.0933 40.8298 32.7035 38.0917 33.4238C32.6157 34.8221 27.8138 35.4153 23.9805 36.0933C25.7076 36.5169 28.0244 37.0677 31.8575 37.0677C39.9874 37.0677 47.1904 33.1695 47.1904 33.1695C47.1904 33.1695 47.0219 33.6779 46.8534 34.1441C41.6721 37.2796 33.4583 38.6355 29.9619 38.4662C26.3815 38.2966 23.3908 37.7458 20.4421 36.856C19.5577 37.1101 18.673 37.3644 17.7884 37.7458C22.3376 39.9069 25.7076 40.3729 29.5408 40.6694C33.416 40.9661 39.861 39.9915 45.3369 38C45.0841 38.2543 44.9577 38.6355 44.7051 38.8898C41.9249 40.3729 36.0277 41.856 33.0791 41.9831C30.1304 42.1103 26.55 41.9831 23.4328 41.3899C20.737 40.8813 18.5466 39.9915 16.272 38.9746C15.8508 39.2711 15.6401 39.6949 15.5559 40.1186C24.4439 44.8645 32.8685 44.9916 42.3883 41.9831L41.5037 42.8306C30.973 47.1526 22.7589 45.4576 16.3984 42.3644C16.1877 42.2796 15.935 42.1525 15.7665 42.0679C16.3562 43.1271 21.2004 46.6864 26.6343 47.1526C30.3832 47.4491 34.9325 46.8136 37.6706 45.7119L36.0698 46.5593C34.764 47.1948 31.2679 48.6779 26.4237 48.3814C19.9367 47.9576 16.3141 45.0338 14.6713 43.5085C13.9131 42.7882 13.534 41.9831 13.3234 40.9661C11.8491 40.2034 10.9224 39.3983 10.1642 38.1695C9.70079 37.4492 9.78503 36.6864 9.91142 36.0085C9.95353 35.7966 9.99565 35.5848 10.0799 35.4153C9.3638 34.9067 8.64772 34.3559 8.35286 33.8051C7.72101 32.6187 8.10012 31.6441 8.56347 30.839C8.18436 30.4153 7.80526 29.9491 7.67889 29.5254C7.5104 28.9746 7.46827 28.466 7.5104 27.9152C7.63677 26.9406 8.14224 26.0509 8.8162 25.2458C10.2484 23.5932 12.4388 22.3221 16.272 21.0509C20.021 19.822 21.4953 19.6102 24.3175 18.9745C27.6031 18.2119 31.5205 17.9576 34.8483 16.8135C25.7076 15.0763 16.1456 16.5593 8.39497 21.983L8.90046 20.4576ZM1.36042 28C1.36042 13.339 13.1549 1.43221 27.6452 1.43221C42.1355 1.43221 53.93 13.3814 53.93 28C53.93 42.6611 42.1355 54.5678 27.6452 54.5678C13.1549 54.5678 1.36042 42.6611 1.36042 28ZM0.433716 28C0.433716 43.1695 12.6494 55.5 27.6452 55.5C42.6411 55.5 54.8568 43.1695 54.8568 28C54.8568 12.8305 42.6411 0.5 27.6452 0.5C12.6494 0.5 0.433716 12.8305 0.433716 28Z" fill="#333333"/>
<path fill-rule="evenodd" clip-rule="evenodd" d="M198.749 11.3049L199.676 17.788H197.78L198.749 11.3049ZM191.378 26.1777H196.432L197.023 22.4913H200.518L201.108 26.1777H206.164L201.909 4.8218H195.675L191.378 26.1777ZM158.564 4.8218H162.777L166.483 9.86418L170.232 4.8218H174.445V26.1777H169.474V13.1269L166.483 16.8557L163.493 13.1269V26.1353H158.522V4.8218H158.564ZM70.2318 4.86418H80.4255V10.1608H75.2865V26.093H70.2318V4.86418ZM224.739 4.8218H229.583V12.4913H230.636L233.417 4.8218H238.725L234.933 14.9066L239.271 26.093H233.543L230.764 17.5337H229.583V26.093H224.739V4.8218ZM208.27 4.8218H213.114V12.4913H216.568V4.8218H221.453V26.1353H216.568V17.576H213.114V26.093H208.27V4.8218ZM182.657 21.8133V16.9829H183.375C183.963 16.9829 185.522 16.9829 185.522 19.1862C185.522 21.3896 183.963 21.8557 183.375 21.8557L182.657 21.8133ZM177.814 26.0506H183.754C184.637 26.093 185.564 25.9234 186.408 25.5845C187.249 25.2455 188.009 24.737 188.641 24.0591C189.271 23.4235 189.735 22.6184 190.072 21.7709C190.367 20.9234 190.493 19.9914 190.409 19.1015C190.409 13.6777 186.238 12.7455 183.543 12.7455H182.701V9.94893H189.314V4.86418H177.856V26.093H177.814V26.0506ZM148.286 21.1777C146.517 21.1777 145.632 19.1862 145.632 15.4998C145.632 11.8133 146.517 9.8218 148.286 9.8218C150.055 9.8218 150.94 11.8133 150.94 15.4998C150.94 19.1862 150.055 21.1777 148.286 21.1777ZM148.286 26.2201C154.183 26.2201 156.163 20.8811 156.163 15.5421C156.163 10.2032 154.183 4.86418 148.286 4.86418C142.431 4.86418 140.409 10.2032 140.409 15.5421C140.409 20.8811 142.388 26.2201 148.286 26.2201ZM130.931 9.52519H132.11C133.248 9.52519 133.964 10.2032 133.964 11.9405C133.964 14.271 132.785 14.3981 132.11 14.3981H130.931V9.52519ZM126.045 26.1353H130.974V19.1015H132.659C137.587 19.1015 139.103 14.6947 139.103 11.8981C139.103 9.10146 137.376 4.77943 132.659 4.77943H126.045V26.1353ZM109.617 4.8218H123.181V26.1777H118.21V9.94893H114.587V26.1777H109.617V4.8218ZM99.4651 13.1693C99.76 13.2116 100.055 13.1693 100.308 13.0845C100.56 12.9998 100.813 12.8303 101.066 12.6608C101.276 12.4913 101.445 12.2371 101.571 11.9828C101.698 11.7286 101.782 11.432 101.782 11.1777C101.782 10.9235 101.698 10.6269 101.613 10.3727C101.487 10.1184 101.319 9.90655 101.108 9.73705C100.897 9.56757 100.645 9.44046 100.392 9.35571C100.139 9.27096 99.8443 9.27096 99.5915 9.27096C98.6648 9.27096 97.7381 9.48282 96.8534 9.86418V5.33028C98.2857 4.94893 99.7179 4.77943 101.192 4.77943C105.236 4.77943 107.089 7.53367 107.089 10.1608C107.131 11.1777 106.837 12.1947 106.247 13.0845C105.699 13.932 104.857 14.6099 103.888 14.9913V15.2032C104.941 15.4998 105.826 16.1777 106.458 17.0676C107.089 17.9573 107.384 19.0591 107.3 20.1607C107.3 24.0591 104.478 26.1777 100.855 26.1777C99.2123 26.2625 97.6117 25.8812 96.1795 25.1185L96.2638 20.8388C97.3168 21.3049 98.412 21.5168 99.5494 21.4744C99.8443 21.5168 100.097 21.4744 100.35 21.3896C100.602 21.3049 100.855 21.1777 101.066 20.9658C101.276 20.7965 101.445 20.5422 101.571 20.2879C101.698 20.0337 101.74 19.7794 101.74 19.4828C101.74 18.3388 100.982 17.5337 99.2545 17.5337H97.3168V13.1693H99.4651ZM87.2915 11.2625L88.2603 17.7456H86.3648L87.2915 11.2625ZM79.92 26.1353H84.9747L85.5645 22.4489H89.0186L89.6083 26.1353H94.663L90.4086 4.77943H84.1744L79.92 26.1353Z" fill="#333333"/>
<path fill-rule="evenodd" clip-rule="evenodd" d="M76.5081 42.746H78.3194L77.3927 36.3472L76.5081 42.746ZM80.4676 30.034L84.5957 51.0086H79.6672L79.0775 47.4069H75.7077L75.118 51.0086H70.1895L74.3177 30.034H80.4676ZM122.464 34.9913C120.779 34.9913 119.895 36.9828 119.895 40.6696C119.895 44.356 120.779 46.3477 122.464 46.3477C124.191 46.3477 125.034 44.356 125.034 40.6696C125.034 36.9828 124.149 34.9913 122.464 34.9913ZM122.464 29.9066C128.193 29.9066 130.131 35.2878 130.131 40.6696C130.131 46.051 128.193 51.4324 122.464 51.4324C116.736 51.4324 114.798 46.051 114.798 40.6696C114.798 35.2878 116.736 29.9066 122.464 29.9066ZM100.097 30.034V35.2459H104.141V50.9659H106.584H109.027V35.2459H113.071V30.034H106.542H100.097ZM91.209 46.4747V42.2795H92.0515C92.4726 42.2795 92.8098 42.4493 93.1045 42.8303C93.3994 43.1696 93.5258 43.7205 93.5258 44.3981C93.5258 45.0764 93.3994 45.5845 93.1045 45.9662C92.8098 46.3048 92.4726 46.5167 92.0515 46.5167H91.209V46.4747ZM91.209 38.212V34.4832H91.9251C92.3042 34.4832 92.599 34.6522 92.8098 34.9492C93.0203 35.2459 93.1467 35.7116 93.1467 36.3472C93.1467 36.9828 93.0203 37.4493 92.8098 37.7882C92.599 38.0849 92.3042 38.2539 91.9251 38.2539H91.209V38.212ZM86.4491 50.9659H92.1778C93.1467 50.9659 94.0312 50.7967 94.7894 50.5002C95.5477 50.2035 96.2216 49.7798 96.7272 49.2709C97.2747 48.7204 97.6539 48.1268 97.9486 47.4069C98.2435 46.6866 98.3699 45.9238 98.3699 45.0764C98.3699 44.5251 98.3278 43.9743 98.2014 43.4239C98.075 42.873 97.9066 42.3645 97.696 41.8985C97.4432 41.432 97.1483 41.0081 96.8114 40.6696C96.4323 40.3307 96.011 40.034 95.4635 39.8641C95.5477 39.8641 95.6741 39.737 95.9269 39.6103C96.1795 39.4403 96.4323 39.1865 96.7272 38.8895C97.0221 38.5509 97.2326 38.1273 97.4854 37.5765C97.696 37.0255 97.8224 36.3472 97.8224 35.5848C97.8224 34.8221 97.696 34.0595 97.4011 33.3811C97.1483 32.7035 96.7693 32.11 96.2638 31.6014C95.7582 31.0934 95.1686 30.712 94.4525 30.415C93.7363 30.1183 92.936 29.9913 92.0515 29.9913H86.4491V50.9659ZM195.926 51.3048H200.771V42.8303H204.226V51.3477H209.111V30.034H204.226V37.7035H200.771V30.034H195.926V51.3048ZM212.524 51.3048H217.579V35.3731H222.717V30.034H212.524V51.3048ZM166.398 38.3392V42.8303H168.421C170.106 42.8303 170.864 43.5933 170.864 44.7799C170.864 45.0764 170.78 45.3307 170.653 45.5845C170.527 45.8391 170.358 46.051 170.148 46.2629C169.937 46.432 169.684 46.6018 169.432 46.6866C169.179 46.7713 168.884 46.8137 168.631 46.7713C167.494 46.8137 166.356 46.6018 165.345 46.1358L165.261 50.4154C166.693 51.1776 168.336 51.5594 169.979 51.4746C173.56 51.4746 176.425 49.3136 176.425 45.4154C176.508 44.3133 176.213 43.2539 175.581 42.3645C174.949 41.4747 174.066 40.7964 173.011 40.4997V40.2878C173.98 39.9068 174.782 39.1865 175.328 38.3392C175.876 37.4493 176.13 36.4323 176.088 35.3731C176.088 32.7035 174.275 29.9493 170.19 29.9493C168.715 29.9493 167.283 30.1183 165.851 30.5001V34.9492C166.735 34.5675 167.662 34.3984 168.589 34.4403C168.842 34.3984 169.137 34.4403 169.389 34.5256C169.642 34.6103 169.895 34.7375 170.106 34.9069C170.316 35.0759 170.485 35.3307 170.611 35.5424C170.738 35.7967 170.78 36.0505 170.78 36.3472C170.738 36.898 170.485 37.4493 170.064 37.8303C169.642 38.212 169.095 38.3811 168.505 38.3811H166.398V38.3392ZM134.133 29.9066V41.6018C134.133 45.3726 133.627 46.2629 132.574 46.2629C132.195 46.22 131.816 46.1781 131.437 46.0929V51.0929C132.068 51.3477 132.742 51.4746 133.458 51.4746C138.766 51.4746 138.766 46.3477 138.766 43.4658V35.034H140.704V51.1776H145.337V29.9066H134.133ZM148.96 30.0764V51.3477H153.467L157.974 39.8641V51.3477H162.482V30.0764H157.974L153.509 41.5591V30.0764H148.96ZM183.375 30.0764V41.5591L187.839 30.0764H192.389V51.3477H187.881V39.8641L183.375 51.3477H178.867V30.0764H183.375Z" fill="#333333"/>
</svg>
