<svg width="57" height="58" viewBox="0 0 57 58" fill="none" xmlns="http://www.w3.org/2000/svg">
<path d="M35.3456 15.0531V1H49.0839V15.0531C49.0839 18.9255 52.1674 22.0796 55.953 22.0796V36.1327C44.5655 36.1327 35.3456 26.6703 35.3456 15.0531Z" stroke="black" stroke-miterlimit="10"/>
<path d="M14.7383 22.0796H1V8.02654H14.7383C18.5239 8.02654 21.6074 4.87241 21.6074 1H35.3456C35.3456 12.6172 26.1257 22.0796 14.7383 22.0796Z" stroke="black" stroke-miterlimit="10"/>
<path d="M21.6074 43.1592V57.2123H7.86913V43.1592C7.86913 39.2868 4.78565 36.1327 1 36.1327V22.0796C12.3875 22.0796 21.6074 31.5108 21.6074 43.1592Z" stroke="black" stroke-miterlimit="10"/>
<path d="M42.2147 36.1328H55.953V50.1858H42.2147C38.4291 50.1858 35.3456 53.34 35.3456 57.2124H21.6074C21.6074 45.5639 30.8273 36.1328 42.2147 36.1328Z" stroke="black" stroke-miterlimit="10"/>
</svg>
