<svg width="400" height="400" viewBox="0 0 400 400" fill="none" xmlns="http://www.w3.org/2000/svg">
<path d="M80.2658 278.414C37.0282 278.414 1.85185 243.238 1.85185 200C1.85185 156.762 37.0282 121.586 80.2658 121.586C123.504 121.586 158.68 156.762 158.68 200C158.68 243.238 123.504 278.414 80.2658 278.414ZM80.2658 122.286C37.414 122.286 2.55157 157.148 2.55157 200C2.55157 242.852 37.414 277.714 80.2658 277.714C123.118 277.714 157.98 242.852 157.98 200C157.98 157.148 123.118 122.286 80.2658 122.286Z" fill="#181716"/>
<path d="M200 398.148C147.073 398.148 97.3135 377.537 59.8881 340.112C22.4628 302.686 1.85185 252.927 1.85185 200C1.85185 147.072 22.4628 97.3132 59.8881 59.8878C97.3135 22.4629 147.073 1.85175 200 1.85175C252.927 1.85175 302.687 22.4629 340.112 59.8878C377.537 97.3132 398.148 147.072 398.148 200C398.148 252.927 377.537 302.686 340.112 340.112C302.687 377.537 252.927 398.148 200 398.148ZM200 2.55146C91.1265 2.55146 2.55157 91.1264 2.55157 200C2.55157 308.874 91.1265 397.449 200 397.449C308.873 397.449 397.448 308.874 397.448 200C397.448 91.1264 308.873 2.55146 200 2.55146Z" fill="#181716"/>
<path d="M151.324 349.472C68.905 349.472 1.85185 282.419 1.85185 200C1.85185 117.58 68.905 50.5273 151.324 50.5273C233.744 50.5273 300.797 117.58 300.797 200C300.797 282.419 233.744 349.472 151.324 349.472ZM151.324 51.227C69.2908 51.227 2.55157 117.966 2.55157 200C2.55157 282.033 69.2908 348.773 151.324 348.773C233.358 348.773 300.097 282.033 300.097 200C300.097 117.966 233.358 51.227 151.324 51.227Z" fill="#181716"/>
<path d="M106.923 305.072C48.9867 305.072 1.85185 257.937 1.85185 200C1.85185 142.063 48.9867 94.9284 106.923 94.9284C164.86 94.9284 211.995 142.063 211.995 200C211.995 257.937 164.86 305.072 106.923 305.072ZM106.923 95.6281C49.3726 95.6281 2.55157 142.449 2.55157 200C2.55157 257.551 49.3726 304.372 106.923 304.372C164.474 304.372 211.295 257.551 211.295 200C211.295 142.449 164.474 95.6281 106.923 95.6281Z" fill="#181716"/>
</svg>
