<svg width="58" height="57" viewBox="0 0 58 57" fill="none" xmlns="http://www.w3.org/2000/svg">
<path d="M28.8747 56.3734C36.5721 56.3734 42.8121 50.1755 42.8121 42.53C42.8121 34.8846 36.5721 28.6867 28.8747 28.6867C21.1773 28.6867 14.9374 34.8846 14.9374 42.53C14.9374 50.1755 21.1773 56.3734 28.8747 56.3734Z" stroke="black" stroke-miterlimit="10"/>
<path d="M28.8747 28.6867C36.5721 28.6867 42.8121 22.4888 42.8121 14.8433C42.8121 7.19787 36.5721 1 28.8747 1C21.1773 1 14.9374 7.19787 14.9374 14.8433C14.9374 22.4888 21.1773 28.6867 28.8747 28.6867Z" stroke="black" stroke-miterlimit="10"/>
<path d="M42.8121 42.53C50.5095 42.53 56.7494 36.3321 56.7494 28.6866C56.7494 21.0412 50.5095 14.8433 42.8121 14.8433C35.1147 14.8433 28.8747 21.0412 28.8747 28.6866C28.8747 36.3321 35.1147 42.53 42.8121 42.53Z" stroke="black" stroke-miterlimit="10"/>
<path d="M14.9374 42.53C22.6348 42.53 28.8747 36.3321 28.8747 28.6866C28.8747 21.0412 22.6348 14.8433 14.9374 14.8433C7.23997 14.8433 1 21.0412 1 28.6866C1 36.3321 7.23997 42.53 14.9374 42.53Z" stroke="black" stroke-miterlimit="10"/>
</svg>
