<svg width="58" height="68" viewBox="0 0 58 68" fill="none" xmlns="http://www.w3.org/2000/svg">
<path d="M28.8747 17.4857L42.8299 25.7286L28.8747 33.9714L14.9194 25.7286L28.8747 17.4857Z" stroke="black" stroke-miterlimit="10"/>
<path d="M28.8747 33.9715L14.9194 25.7286V42.2143L28.8747 50.4572V33.9715Z" stroke="black" stroke-miterlimit="10"/>
<path d="M14.9195 25.7285L1 17.4856V33.9713L14.9195 42.2142V25.7285Z" stroke="black" stroke-miterlimit="10"/>
<path d="M28.8747 50.4571L14.9194 42.2143V58.7L28.8747 66.9428V50.4571Z" stroke="black" stroke-miterlimit="10"/>
<path d="M14.9195 42.2142L1 33.9714V50.4571L14.9195 58.6999V42.2142Z" stroke="black" stroke-miterlimit="10"/>
<path d="M14.9195 9.24287L28.8747 17.4857L14.9195 25.7286L1 17.4857L14.9195 9.24287Z" stroke="black" stroke-miterlimit="10"/>
<path d="M42.8299 9.24287L56.7494 17.4857L42.8299 25.7286L28.8747 17.4857L42.8299 9.24287Z" stroke="black" stroke-miterlimit="10"/>
<path d="M28.8747 1L42.8299 9.24285L28.8747 17.4857L14.9194 9.24285L28.8747 1Z" stroke="black" stroke-miterlimit="10"/>
<path d="M28.8747 33.9715L42.8299 25.7286V42.2143L28.8747 50.4572V33.9715Z" stroke="black" stroke-miterlimit="10"/>
<path d="M42.83 25.7286L56.7494 17.4857V33.9714L42.83 42.2143V25.7286Z" stroke="black" stroke-miterlimit="10"/>
<path d="M28.8747 50.4571L42.8299 42.2143V58.7L28.8747 66.9428V50.4571Z" stroke="black" stroke-miterlimit="10"/>
<path d="M42.83 42.2142L56.7494 33.9714V50.4571L42.83 58.6999V42.2142Z" stroke="black" stroke-miterlimit="10"/>
</svg>
