<svg width="155" height="56" viewBox="0 0 155 56" fill="none" xmlns="http://www.w3.org/2000/svg">
<g clip-path="url(#clip0_11020_40)">
<path fill-rule="evenodd" clip-rule="evenodd" d="M11.2882 0.5L8.65509 7.69065H44.9955L47.6132 0.5H11.2882ZM7.34623 11.2937L4.72849 18.4843H41.0689L43.6866 11.2937H7.34623ZM3.41962 22.0719L0.80188 29.278H37.1422L39.76 22.0873H3.41962V22.0719Z" fill="#333333"/>
<path fill-rule="evenodd" clip-rule="evenodd" d="M78.0559 32.0188V32.1727C79.719 32.7886 81.305 33.8511 82.1365 34.544C84.7081 36.6842 85.8322 39.502 85.8322 43.1666C85.8322 49.187 82.6601 53.5291 77.44 54.9149C75.854 55.3768 74.1909 55.5308 71.0958 55.5308H55.3278V11.4323H69.2942C72.1583 11.4323 74.1293 11.5862 75.8694 12.0482C80.9355 13.4185 84.2615 16.9292 84.2615 22.4877C84.2615 25.4594 83.199 27.9846 81.4744 29.6475C80.7045 30.4174 79.642 31.3259 78.0559 32.0188ZM64.0895 36.6688V48.2632H70.1257C71.9428 48.2632 73.6058 48.1092 74.8069 46.9698C76.008 45.8303 76.5469 44.383 76.5469 42.4737C76.5469 41.0263 76.1619 39.6559 75.4074 38.6551C74.1293 37.0538 72.5433 36.6688 69.8178 36.6688H64.0895ZM64.0126 29.0316H68.9247C70.4337 29.0316 71.1882 29.0316 71.9428 28.8007C73.9908 28.1848 75.2688 26.3679 75.2688 23.8427C75.2688 20.8709 73.9138 19.5775 71.9428 18.9616C71.1112 18.7307 70.2797 18.6537 68.6167 18.6537H64.0126V29.0316ZM98.9825 55.5V18.8231H86.3711V11.4323H121.418L118.923 18.8231H107.744V55.5H98.9825ZM124.128 55.5V11.4323H152.523L150.028 18.8231H132.813V28.5851H139.835C145.501 28.5851 148.442 29.9555 150.49 31.7108C152.076 33.0812 154.802 36.1299 154.802 42.1503C154.802 48.0938 151.999 51.3735 149.659 53.0518C146.933 54.9611 144.069 55.4846 138.249 55.4846H124.128V55.5ZM132.813 48.0938H139.388C141.883 48.0938 143.392 47.4779 144.454 46.1075C144.978 45.4146 145.732 44.1982 145.732 41.9194C145.732 39.6405 144.978 38.0238 143.469 36.8844C142.56 36.1915 141.359 35.8219 139.311 35.8219H132.813V48.0938Z" fill="#333333"/>
</g>
<defs>
<clipPath id="clip0_11020_40">
<rect width="154" height="55" fill="white" transform="translate(0.80188 0.5)"/>
</clipPath>
</defs>
</svg>
